<?xml version="1.0" standalone="no"?>
<!DOCTYPE svg PUBLIC "-//W3C//DTD SVG 1.1//EN" "http://www.w3.org/Graphics/SVG/1.1/DTD/svg11.dtd" >
<svg>
<metadata>
Created by FontForge 20090622 at Thu May 19 14:55:04 2016
 By deploy user
Copyright &#194;&#169; 2001 - 2006 Linotype GmbH, www.linotype.com. All rights reserved. This font software may not be reproduced, modified, disclosed or transferred without the express written approval of Linotype GmbH. Helvetica is a trademark of Heidelberger Druckmaschinen AG, exclusively licensed through Linotype GmbH, and may be registered in certain jurisdictions. This typeface is original artwork of Linotype Design Studio. The design may be protected in certain jurisdictions.
</metadata>
<defs>
<font id="HelveticaWorld-Italic" horiz-adv-x="1200" >
  <font-face 
    font-family="Helvetica World"
    font-weight="400"
    font-style="italic"
    font-stretch="normal"
    units-per-em="2048"
    panose-1="2 11 5 0 4 0 0 9 0 4"
    ascent="1638"
    descent="-410"
    x-height="1071"
    cap-height="1470"
    bbox="-519 -1196 2655 2442"
    underline-thickness="50"
    underline-position="-50"
    slope="-12"
    unicode-range="U+000D-U+FFFD"
  />
<missing-glyph horiz-adv-x="1048" 
d="M1048 1470v-1470h-1048v1470h1048zM946 102v1265h-844v-1265h844zM460 479l-3 35q0 112 26.5 165.5t94.5 120.5q65 65 83.5 98t18.5 72q0 74 -46.5 124.5t-108.5 50.5q-65 0 -111 -45.5t-58 -148.5l-102 16q14 146 89.5 213.5t186.5 67.5q108 0 181.5 -74.5t73.5 -194.5
q0 -65 -26 -119.5t-103 -126.5q-76 -68 -89 -107t-13 -147h-94zM454 239v137h115v-137h-115z" />
    <glyph glyph-name="uniFC6A" unicode="&#xfe92;&#xfeae;" horiz-adv-x="1147" arabic-form="final" 
d="M653 593q-20 -118 -58.5 -214t-88 -163.5t-107.5 -104.5t-118 -37q-54 0 -118.5 19t-125.5 59q-25 17 -31 26t-6 17q0 4 4.5 8t6.5 3l52 -13.5t77 -8.5q63 0 123 25t115 71.5t103 113.5t87 150q4 8 7 19t3 19t-5.5 13t-11.5 9q-31 20 -49 35.5t-27 28.5t-11.5 23t-2.5 18
q0 10 3 24t7 29.5t9 31l9 28.5l43.5 -32.5t45.5 -27t53 -18.5t66 -7q39 0 65.5 6t42.5 16q22 13 29 35q12 39 24.5 74t29.5 72l6 -2q26 -82 44.5 -168.5t39.5 -167.5q10 -37 22.5 -58t31.5 -31.5t44.5 -13t60.5 -2.5v-147h-43q-30 0 -56.5 4t-47.5 16t-36.5 33t-22.5 55
l-23.5 98.5t-48.5 186.5h-4q-10 -39 -24 -67.5t-38 -46.5t-60 -26.5t-90 -9.5zM836 -138l-191 104q19 38 37 70l35 61q92 -45 184 -98q-12 -35 -28.5 -69t-36.5 -68z" />
    <glyph glyph-name="uniFC70" unicode="&#xfe98;&#xfeae;" horiz-adv-x="1147" arabic-form="final" 
d="M653 593q-20 -118 -58.5 -214t-88 -163.5t-107.5 -104.5t-118 -37q-54 0 -118.5 19t-125.5 59q-25 17 -31 26t-6 17q0 4 4.5 8t6.5 3l52 -13.5t77 -8.5q63 0 123 25t115 71.5t103 113.5t87 150q4 8 7 19t3 19t-5.5 13t-11.5 9q-31 20 -49 35.5t-27 28.5t-11.5 23t-2.5 18
q0 10 3 24t7 29.5t9 31l9 28.5l43.5 -32.5t45.5 -27t53 -18.5t66 -7q39 0 65.5 6t42.5 16q22 13 29 35q12 39 24.5 74t29.5 72l6 -2q26 -82 44.5 -168.5t39.5 -167.5q10 -37 22.5 -58t31.5 -31.5t44.5 -13t60.5 -2.5v-147h-43q-30 0 -56.5 4t-47.5 16t-36.5 33t-22.5 55
l-23.5 98.5t-48.5 186.5h-4q-10 -39 -24 -67.5t-38 -46.5t-60 -26.5t-90 -9.5zM802 1179l-55 -96l-180 107q23 46 40.5 76t35.5 53l157 -93l57 94l100.5 -59.5t81.5 -43.5q-16 -37 -33 -70t-38 -67z" />
    <glyph glyph-name="uniFD0E" unicode="&#xfeb3;&#xfeae;" horiz-adv-x="1925" arabic-form="isolated" 
d="M1036 750q-2 -15 -3 -28.5t-1 -26.5q0 -59 20 -97.5t51.5 -61.5t70.5 -32t78 -9q37 0 69 6t54 15q11 11 12.5 31.5t1.5 38.5t-3 50.5t-8 61.5q30 29 60 54.5t62 48.5q6 -48 6 -100q0 -51 -7.5 -99t-27.5 -88q9 -3 26 -6.5t39.5 -6.5t48.5 -4.5t51 -1.5q27 0 51 2.5
t41 7.5q6 2 10 8t4 18q0 17 -5 39t-13 46.5t-19 50t-24 49.5q27 35 54 64t51 52q29 -77 40 -149.5t11 -143.5q0 -23 -3.5 -48t-10 -48t-17 -41t-25.5 -26q-10 -5 -22.5 -10t-32.5 -8.5t-49.5 -5.5t-73.5 -2q-32 0 -66.5 3.5t-65.5 10.5t-54 16.5t-31 20.5q-33 -31 -76.5 -41
t-92.5 -10q-41 0 -80.5 10t-71.5 36t-55 70.5t-31 112.5q-57 -8 -121.5 -18.5t-123.5 -27.5v-8q0 -62 -14.5 -128.5t-40.5 -131t-62.5 -122.5t-81 -102t-95.5 -70t-106 -26q-38 0 -77.5 10t-77 26t-70 36t-57 39t-38.5 35t-14 25q0 2 2 7.5t10 5.5q6 0 17 -6q52 -29 98 -42
t102 -13q55 0 107 20.5t98.5 53t85 72.5t66.5 78.5t43.5 72t15.5 52.5q0 7 -2.5 12t-8.5 11t-17 13.5t-27 19.5q-20 14 -31 23.5t-16.5 15.5t-6.5 10t-1 8q0 16 8.5 47t24.5 79q32 9 86 22t118.5 26.5t133 25.5t130.5 20z" />
    <glyph glyph-name="uniFD2A" unicode="&#xfeb4;&#xfeae;" horiz-adv-x="1837" arabic-form="final" 
d="M1036 750q-2 -15 -3 -28.5t-1 -26.5q0 -59 20 -97.5t51.5 -61.5t70.5 -32t78 -9q37 0 69 6t54 15q11 11 12.5 31.5t1.5 38.5t-3 50.5t-8 61.5q30 29 60 54.5t62 48.5q6 -48 6 -100q0 -51 -7.5 -99t-27.5 -88q9 -3 26 -6.5t39.5 -6.5t48.5 -4.5t51 -1.5q27 0 51 2.5
t41 7.5q6 2 10 8t4 18q0 17 -5 39t-13 46.5t-19 50t-24 49.5q27 35 54 64t51 52q29 -77 40 -149.5t11 -143.5q0 -23 -3.5 -48t-10 -48t-17 -41t-25.5 -26q-10 -5 -22.5 -10t-32.5 -8.5t-49.5 -5.5t-73.5 -2q-32 0 -66.5 3.5t-65.5 10.5t-54 16.5t-31 20.5q-33 -31 -76.5 -41
t-92.5 -10q-41 0 -80.5 10t-71.5 36t-55 70.5t-31 112.5q-57 -8 -121.5 -18.5t-123.5 -27.5v-8q0 -62 -14.5 -128.5t-40.5 -131t-62.5 -122.5t-81 -102t-95.5 -70t-106 -26q-38 0 -77.5 10t-77 26t-70 36t-57 39t-38.5 35t-14 25q0 2 2 7.5t10 5.5q6 0 17 -6q52 -29 98 -42
t102 -13q55 0 107 20.5t98.5 53t85 72.5t66.5 78.5t43.5 72t15.5 52.5q0 7 -2.5 12t-8.5 11t-17 13.5t-27 19.5q-20 14 -31 23.5t-16.5 15.5t-6.5 10t-1 8q0 16 8.5 47t24.5 79q32 9 86 22t118.5 26.5t133 25.5t130.5 20z" />
    <glyph glyph-name="uniFCFB" unicode="&#xfeb3;&#xfef0;" horiz-adv-x="1937" arabic-form="isolated" 
d="M1232 350q-38 0 -65.5 7.5t-48 20.5t-35.5 29t-28 33l-24.5 30t-28.5 26t-37 18t-49 7q-47 0 -91.5 -16.5t-79 -39.5t-55.5 -47.5t-21 -39.5q0 -16 25.5 -27.5t67.5 -21t94.5 -18.5t106.5 -20q50 -10 67 -29.5t17 -52.5q0 -53 -17 -99t-44 -69q-59 -51 -129 -89
t-141.5 -63t-139.5 -37.5t-123 -12.5q-86 0 -154 24t-115 69.5t-72 111.5t-25 151q0 40 7.5 87t24.5 99t44.5 108t67.5 113q23 34 37 34q4 0 7.5 -4t3.5 -12t-4 -18.5l-9 -23.5q-18 -38 -34.5 -80t-29 -83t-20 -79t-7.5 -68q0 -130 82 -199.5t231 -69.5q49 0 105 10t113 28
t112.5 43t103.5 54v16l-170.5 30.5t-109.5 26.5t-58.5 32t-17.5 45q0 54 20 104t53.5 94t76 80.5t88 62.5t90 40.5t80.5 14.5q25 0 44 -7.5t34.5 -19.5t28.5 -28l25 -32q13 -18 27.5 -35t32.5 -31t41.5 -22.5t54.5 -8.5q42 0 75 5t50 16q11 11 12.5 31t1.5 38t-3 50.5
t-8 61.5q30 29 60 54.5t62 48.5q6 -48 6 -100q0 -51 -7.5 -99t-27.5 -88q9 -3 26 -6.5t39.5 -6.5t48.5 -4.5t51 -1.5q27 0 51 2.5t41 7.5q6 2 10 8t4 18q0 17 -5 39t-13 46.5t-19 50t-24 49.5q27 35 54 64t51 52q29 -77 40 -149.5t11 -143.5q0 -23 -3.5 -48t-10 -48t-17 -41
t-25.5 -26q-10 -5 -22.5 -10t-32.5 -8.5t-49.5 -5.5t-73.5 -2q-32 0 -66.5 3.5t-65.5 10.5t-54 16.5t-31 20.5q-32 -32 -75.5 -41.5t-90.5 -9.5z" />
    <glyph glyph-name="uniFD17" unicode="&#xfeb4;&#xfef0;" horiz-adv-x="1849" arabic-form="final" 
d="M1232 350q-38 0 -65.5 7.5t-48 20.5t-35.5 29t-28 33l-24.5 30t-28.5 26t-37 18t-49 7q-47 0 -91.5 -16.5t-79 -39.5t-55.5 -47.5t-21 -39.5q0 -16 25.5 -27.5t67.5 -21t94.5 -18.5t106.5 -20q50 -10 67 -29.5t17 -52.5q0 -53 -17 -99t-44 -69q-59 -51 -129 -89
t-141.5 -63t-139.5 -37.5t-123 -12.5q-86 0 -154 24t-115 69.5t-72 111.5t-25 151q0 40 7.5 87t24.5 99t44.5 108t67.5 113q23 34 37 34q4 0 7.5 -4t3.5 -12t-4 -18.5l-9 -23.5q-18 -38 -34.5 -80t-29 -83t-20 -79t-7.5 -68q0 -130 82 -199.5t231 -69.5q49 0 105 10t113 28
t112.5 43t103.5 54v16l-170.5 30.5t-109.5 26.5t-58.5 32t-17.5 45q0 54 20 104t53.5 94t76 80.5t88 62.5t90 40.5t80.5 14.5q25 0 44 -7.5t34.5 -19.5t28.5 -28l25 -32q13 -18 27.5 -35t32.5 -31t41.5 -22.5t54.5 -8.5q42 0 75 5t50 16q11 11 12.5 31t1.5 38t-3 50.5
t-8 61.5q30 29 60 54.5t62 48.5q6 -48 6 -100q0 -51 -7.5 -99t-27.5 -88q9 -3 26 -6.5t39.5 -6.5t48.5 -4.5t51 -1.5q27 0 51 2.5t41 7.5q6 2 10 8t4 18q0 17 -5 39t-13 46.5t-19 50t-24 49.5q27 35 54 64t51 52q29 -77 40 -149.5t11 -143.5q0 -23 -3.5 -48t-10 -48t-17 -41
t-25.5 -26q-10 -5 -22.5 -10t-32.5 -8.5t-49.5 -5.5t-73.5 -2q-32 0 -66.5 3.5t-65.5 10.5t-54 16.5t-31 20.5q-32 -32 -75.5 -41.5t-90.5 -9.5z" />
    <glyph glyph-name="uniFCFC" unicode="&#xfeb3;&#xfef2;" horiz-adv-x="1937" arabic-form="isolated" 
d="M1232 350q-38 0 -65.5 7.5t-48 20.5t-35.5 29t-28 33l-24.5 30t-28.5 26t-37 18t-49 7q-47 0 -91.5 -16.5t-79 -39.5t-55.5 -47.5t-21 -39.5q0 -16 25.5 -27.5t67.5 -21t94.5 -18.5t106.5 -20q50 -10 67 -29.5t17 -52.5q0 -53 -17 -99t-44 -69q-59 -51 -129 -89
t-141.5 -63t-139.5 -37.5t-123 -12.5q-86 0 -154 24t-115 69.5t-72 111.5t-25 151q0 40 7.5 87t24.5 99t44.5 108t67.5 113q23 34 37 34q4 0 7.5 -4t3.5 -12t-4 -18.5l-9 -23.5q-18 -38 -34.5 -80t-29 -83t-20 -79t-7.5 -68q0 -130 82 -199.5t231 -69.5q49 0 105 10t113 28
t112.5 43t103.5 54v16l-170.5 30.5t-109.5 26.5t-58.5 32t-17.5 45q0 54 20 104t53.5 94t76 80.5t88 62.5t90 40.5t80.5 14.5q25 0 44 -7.5t34.5 -19.5t28.5 -28l25 -32q13 -18 27.5 -35t32.5 -31t41.5 -22.5t54.5 -8.5q42 0 75 5t50 16q11 11 12.5 31t1.5 38t-3 50.5
t-8 61.5q30 29 60 54.5t62 48.5q6 -48 6 -100q0 -51 -7.5 -99t-27.5 -88q9 -3 26 -6.5t39.5 -6.5t48.5 -4.5t51 -1.5q27 0 51 2.5t41 7.5q6 2 10 8t4 18q0 17 -5 39t-13 46.5t-19 50t-24 49.5q27 35 54 64t51 52q29 -77 40 -149.5t11 -143.5q0 -23 -3.5 -48t-10 -48t-17 -41
t-25.5 -26q-10 -5 -22.5 -10t-32.5 -8.5t-49.5 -5.5t-73.5 -2q-32 0 -66.5 3.5t-65.5 10.5t-54 16.5t-31 20.5q-32 -32 -75.5 -41.5t-90.5 -9.5zM537 -375l-55 -96l-180 107q23 46 40.5 76t35.5 53l157 -93l57 94l100.5 -59.5t81.5 -43.5q-16 -37 -33 -70t-38 -67z" />
    <glyph glyph-name="uniFD18" unicode="&#xfeb4;&#xfef2;" horiz-adv-x="1849" arabic-form="final" 
d="M1232 350q-38 0 -65.5 7.5t-48 20.5t-35.5 29t-28 33l-24.5 30t-28.5 26t-37 18t-49 7q-47 0 -91.5 -16.5t-79 -39.5t-55.5 -47.5t-21 -39.5q0 -16 25.5 -27.5t67.5 -21t94.5 -18.5t106.5 -20q50 -10 67 -29.5t17 -52.5q0 -53 -17 -99t-44 -69q-59 -51 -129 -89
t-141.5 -63t-139.5 -37.5t-123 -12.5q-86 0 -154 24t-115 69.5t-72 111.5t-25 151q0 40 7.5 87t24.5 99t44.5 108t67.5 113q23 34 37 34q4 0 7.5 -4t3.5 -12t-4 -18.5l-9 -23.5q-18 -38 -34.5 -80t-29 -83t-20 -79t-7.5 -68q0 -130 82 -199.5t231 -69.5q49 0 105 10t113 28
t112.5 43t103.5 54v16l-170.5 30.5t-109.5 26.5t-58.5 32t-17.5 45q0 54 20 104t53.5 94t76 80.5t88 62.5t90 40.5t80.5 14.5q25 0 44 -7.5t34.5 -19.5t28.5 -28l25 -32q13 -18 27.5 -35t32.5 -31t41.5 -22.5t54.5 -8.5q42 0 75 5t50 16q11 11 12.5 31t1.5 38t-3 50.5
t-8 61.5q30 29 60 54.5t62 48.5q6 -48 6 -100q0 -51 -7.5 -99t-27.5 -88q9 -3 26 -6.5t39.5 -6.5t48.5 -4.5t51 -1.5q27 0 51 2.5t41 7.5q6 2 10 8t4 18q0 17 -5 39t-13 46.5t-19 50t-24 49.5q27 35 54 64t51 52q29 -77 40 -149.5t11 -143.5q0 -23 -3.5 -48t-10 -48t-17 -41
t-25.5 -26q-10 -5 -22.5 -10t-32.5 -8.5t-49.5 -5.5t-73.5 -2q-32 0 -66.5 3.5t-65.5 10.5t-54 16.5t-31 20.5q-32 -32 -75.5 -41.5t-90.5 -9.5zM527 -375l-55 -96l-180 107q23 46 40.5 76t35.5 53l157 -93l57 94l100.5 -59.5t81.5 -43.5q-16 -37 -33 -70t-38 -67z" />
    <glyph glyph-name="uniFD0D" unicode="&#xfeb7;&#xfeae;" horiz-adv-x="1925" arabic-form="isolated" 
d="M1036 750q-2 -15 -3 -28.5t-1 -26.5q0 -59 20 -97.5t51.5 -61.5t70.5 -32t78 -9q37 0 69 6t54 15q11 11 12.5 31.5t1.5 38.5t-3 50.5t-8 61.5q30 29 60 54.5t62 48.5q6 -48 6 -100q0 -51 -7.5 -99t-27.5 -88q9 -3 26 -6.5t39.5 -6.5t48.5 -4.5t51 -1.5q27 0 51 2.5
t41 7.5q6 2 10 8t4 18q0 17 -5 39t-13 46.5t-19 50t-24 49.5q27 35 54 64t51 52q29 -77 40 -149.5t11 -143.5q0 -23 -3.5 -48t-10 -48t-17 -41t-25.5 -26q-10 -5 -22.5 -10t-32.5 -8.5t-49.5 -5.5t-73.5 -2q-32 0 -66.5 3.5t-65.5 10.5t-54 16.5t-31 20.5q-33 -31 -76.5 -41
t-92.5 -10q-41 0 -80.5 10t-71.5 36t-55 70.5t-31 112.5q-57 -8 -121.5 -18.5t-123.5 -27.5v-8q0 -62 -14.5 -128.5t-40.5 -131t-62.5 -122.5t-81 -102t-95.5 -70t-106 -26q-38 0 -77.5 10t-77 26t-70 36t-57 39t-38.5 35t-14 25q0 2 2 7.5t10 5.5q6 0 17 -6q52 -29 98 -42
t102 -13q55 0 107 20.5t98.5 53t85 72.5t66.5 78.5t43.5 72t15.5 52.5q0 7 -2.5 12t-8.5 11t-17 13.5t-27 19.5q-20 14 -31 23.5t-16.5 15.5t-6.5 10t-1 8q0 16 8.5 47t24.5 79q32 9 86 22t118.5 26.5t133 25.5t130.5 20zM1380 936l-186 110q20 42 39 73t36 54l166 -94
l58 94l20 -12l89.5 -54t70.5 -38q-14 -32 -31.5 -65t-40.5 -68l-160 96zM1407 1175l-170 99l10 20q18 32 33.5 56.5t27.5 41.5l35 -18l68.5 -37l62.5 -35q-11 -26 -27.5 -58t-39.5 -69z" />
    <glyph glyph-name="uniFD29" unicode="&#xfeb8;&#xfeae;" horiz-adv-x="1837" arabic-form="final" 
d="M1036 750q-2 -15 -3 -28.5t-1 -26.5q0 -59 20 -97.5t51.5 -61.5t70.5 -32t78 -9q37 0 69 6t54 15q11 11 12.5 31.5t1.5 38.5t-3 50.5t-8 61.5q30 29 60 54.5t62 48.5q6 -48 6 -100q0 -51 -7.5 -99t-27.5 -88q9 -3 26 -6.5t39.5 -6.5t48.5 -4.5t51 -1.5q27 0 51 2.5
t41 7.5q6 2 10 8t4 18q0 17 -5 39t-13 46.5t-19 50t-24 49.5q27 35 54 64t51 52q29 -77 40 -149.5t11 -143.5q0 -23 -3.5 -48t-10 -48t-17 -41t-25.5 -26q-10 -5 -22.5 -10t-32.5 -8.5t-49.5 -5.5t-73.5 -2q-32 0 -66.5 3.5t-65.5 10.5t-54 16.5t-31 20.5q-33 -31 -76.5 -41
t-92.5 -10q-41 0 -80.5 10t-71.5 36t-55 70.5t-31 112.5q-57 -8 -121.5 -18.5t-123.5 -27.5v-8q0 -62 -14.5 -128.5t-40.5 -131t-62.5 -122.5t-81 -102t-95.5 -70t-106 -26q-38 0 -77.5 10t-77 26t-70 36t-57 39t-38.5 35t-14 25q0 2 2 7.5t10 5.5q6 0 17 -6q52 -29 98 -42
t102 -13q55 0 107 20.5t98.5 53t85 72.5t66.5 78.5t43.5 72t15.5 52.5q0 7 -2.5 12t-8.5 11t-17 13.5t-27 19.5q-20 14 -31 23.5t-16.5 15.5t-6.5 10t-1 8q0 16 8.5 47t24.5 79q32 9 86 22t118.5 26.5t133 25.5t130.5 20zM1380 936l-186 110q20 42 39 73t36 54l166 -94
l58 94l20 -12l89.5 -54t70.5 -38q-14 -32 -31.5 -65t-40.5 -68l-160 96zM1407 1175l-170 99l10 20q18 32 33.5 56.5t27.5 41.5l35 -18l68.5 -37l62.5 -35q-11 -26 -27.5 -58t-39.5 -69z" />
    <glyph glyph-name="uniFCFD" unicode="&#xfeb7;&#xfef0;" horiz-adv-x="1937" arabic-form="isolated" 
d="M1232 350q-38 0 -65.5 7.5t-48 20.5t-35.5 29t-28 33l-24.5 30t-28.5 26t-37 18t-49 7q-47 0 -91.5 -16.5t-79 -39.5t-55.5 -47.5t-21 -39.5q0 -16 25.5 -27.5t67.5 -21t94.5 -18.5t106.5 -20q50 -10 67 -29.5t17 -52.5q0 -53 -17 -99t-44 -69q-59 -51 -129 -89
t-141.5 -63t-139.5 -37.5t-123 -12.5q-86 0 -154 24t-115 69.5t-72 111.5t-25 151q0 40 7.5 87t24.5 99t44.5 108t67.5 113q23 34 37 34q4 0 7.5 -4t3.5 -12t-4 -18.5l-9 -23.5q-18 -38 -34.5 -80t-29 -83t-20 -79t-7.5 -68q0 -130 82 -199.5t231 -69.5q49 0 105 10t113 28
t112.5 43t103.5 54v16l-170.5 30.5t-109.5 26.5t-58.5 32t-17.5 45q0 54 20 104t53.5 94t76 80.5t88 62.5t90 40.5t80.5 14.5q25 0 44 -7.5t34.5 -19.5t28.5 -28l25 -32q13 -18 27.5 -35t32.5 -31t41.5 -22.5t54.5 -8.5q42 0 75 5t50 16q11 11 12.5 31t1.5 38t-3 50.5
t-8 61.5q30 29 60 54.5t62 48.5q6 -48 6 -100q0 -51 -7.5 -99t-27.5 -88q9 -3 26 -6.5t39.5 -6.5t48.5 -4.5t51 -1.5q27 0 51 2.5t41 7.5q6 2 10 8t4 18q0 17 -5 39t-13 46.5t-19 50t-24 49.5q27 35 54 64t51 52q29 -77 40 -149.5t11 -143.5q0 -23 -3.5 -48t-10 -48t-17 -41
t-25.5 -26q-10 -5 -22.5 -10t-32.5 -8.5t-49.5 -5.5t-73.5 -2q-32 0 -66.5 3.5t-65.5 10.5t-54 16.5t-31 20.5q-32 -32 -75.5 -41.5t-90.5 -9.5zM1386 936l-186 110q20 42 39 73t36 54l166 -94l58 94l20 -12l89.5 -54t70.5 -38q-14 -32 -31.5 -65t-40.5 -68l-160 96z
M1413 1175l-170 99l10 20q18 32 33.5 56.5t27.5 41.5l35 -18l68.5 -37l62.5 -35q-11 -26 -27.5 -58t-39.5 -69z" />
    <glyph glyph-name="uniFD19" unicode="&#xfeb8;&#xfef0;" horiz-adv-x="1849" arabic-form="final" 
d="M1232 350q-38 0 -65.5 7.5t-48 20.5t-35.5 29t-28 33l-24.5 30t-28.5 26t-37 18t-49 7q-47 0 -91.5 -16.5t-79 -39.5t-55.5 -47.5t-21 -39.5q0 -16 25.5 -27.5t67.5 -21t94.5 -18.5t106.5 -20q50 -10 67 -29.5t17 -52.5q0 -53 -17 -99t-44 -69q-59 -51 -129 -89
t-141.5 -63t-139.5 -37.5t-123 -12.5q-86 0 -154 24t-115 69.5t-72 111.5t-25 151q0 40 7.5 87t24.5 99t44.5 108t67.5 113q23 34 37 34q4 0 7.5 -4t3.5 -12t-4 -18.5l-9 -23.5q-18 -38 -34.5 -80t-29 -83t-20 -79t-7.5 -68q0 -130 82 -199.5t231 -69.5q49 0 105 10t113 28
t112.5 43t103.5 54v16l-170.5 30.5t-109.5 26.5t-58.5 32t-17.5 45q0 54 20 104t53.5 94t76 80.5t88 62.5t90 40.5t80.5 14.5q25 0 44 -7.5t34.5 -19.5t28.5 -28l25 -32q13 -18 27.5 -35t32.5 -31t41.5 -22.5t54.5 -8.5q42 0 75 5t50 16q11 11 12.5 31t1.5 38t-3 50.5
t-8 61.5q30 29 60 54.5t62 48.5q6 -48 6 -100q0 -51 -7.5 -99t-27.5 -88q9 -3 26 -6.5t39.5 -6.5t48.5 -4.5t51 -1.5q27 0 51 2.5t41 7.5q6 2 10 8t4 18q0 17 -5 39t-13 46.5t-19 50t-24 49.5q27 35 54 64t51 52q29 -77 40 -149.5t11 -143.5q0 -23 -3.5 -48t-10 -48t-17 -41
t-25.5 -26q-10 -5 -22.5 -10t-32.5 -8.5t-49.5 -5.5t-73.5 -2q-32 0 -66.5 3.5t-65.5 10.5t-54 16.5t-31 20.5q-32 -32 -75.5 -41.5t-90.5 -9.5zM1386 936l-186 110q20 42 39 73t36 54l166 -94l58 94l20 -12l89.5 -54t70.5 -38q-14 -32 -31.5 -65t-40.5 -68l-160 96z
M1413 1175l-170 99l10 20q18 32 33.5 56.5t27.5 41.5l35 -18l68.5 -37l62.5 -35q-11 -26 -27.5 -58t-39.5 -69z" />
    <glyph glyph-name="uniFCFE" unicode="&#xfeb7;&#xfef2;" horiz-adv-x="1937" arabic-form="isolated" 
d="M1232 350q-38 0 -65.5 7.5t-48 20.5t-35.5 29t-28 33l-24.5 30t-28.5 26t-37 18t-49 7q-47 0 -91.5 -16.5t-79 -39.5t-55.5 -47.5t-21 -39.5q0 -16 25.5 -27.5t67.5 -21t94.5 -18.5t106.5 -20q50 -10 67 -29.5t17 -52.5q0 -53 -17 -99t-44 -69q-59 -51 -129 -89
t-141.5 -63t-139.5 -37.5t-123 -12.5q-86 0 -154 24t-115 69.5t-72 111.5t-25 151q0 40 7.5 87t24.5 99t44.5 108t67.5 113q23 34 37 34q4 0 7.5 -4t3.5 -12t-4 -18.5l-9 -23.5q-18 -38 -34.5 -80t-29 -83t-20 -79t-7.5 -68q0 -130 82 -199.5t231 -69.5q49 0 105 10t113 28
t112.5 43t103.5 54v16l-170.5 30.5t-109.5 26.5t-58.5 32t-17.5 45q0 54 20 104t53.5 94t76 80.5t88 62.5t90 40.5t80.5 14.5q25 0 44 -7.5t34.5 -19.5t28.5 -28l25 -32q13 -18 27.5 -35t32.5 -31t41.5 -22.5t54.5 -8.5q42 0 75 5t50 16q11 11 12.5 31t1.5 38t-3 50.5
t-8 61.5q30 29 60 54.5t62 48.5q6 -48 6 -100q0 -51 -7.5 -99t-27.5 -88q9 -3 26 -6.5t39.5 -6.5t48.5 -4.5t51 -1.5q27 0 51 2.5t41 7.5q6 2 10 8t4 18q0 17 -5 39t-13 46.5t-19 50t-24 49.5q27 35 54 64t51 52q29 -77 40 -149.5t11 -143.5q0 -23 -3.5 -48t-10 -48t-17 -41
t-25.5 -26q-10 -5 -22.5 -10t-32.5 -8.5t-49.5 -5.5t-73.5 -2q-32 0 -66.5 3.5t-65.5 10.5t-54 16.5t-31 20.5q-32 -32 -75.5 -41.5t-90.5 -9.5zM1386 936l-186 110q20 42 39 73t36 54l166 -94l58 94l20 -12l89.5 -54t70.5 -38q-14 -32 -31.5 -65t-40.5 -68l-160 96z
M1413 1175l-170 99l10 20q18 32 33.5 56.5t27.5 41.5l35 -18l68.5 -37l62.5 -35q-11 -26 -27.5 -58t-39.5 -69zM537 -375l-55 -96l-180 107q23 46 40.5 76t35.5 53l157 -93l57 94l100.5 -59.5t81.5 -43.5q-16 -37 -33 -70t-38 -67z" />
    <glyph glyph-name="uniFD1A" unicode="&#xfeb8;&#xfef2;" horiz-adv-x="1849" arabic-form="final" 
d="M1232 350q-38 0 -65.5 7.5t-48 20.5t-35.5 29t-28 33l-24.5 30t-28.5 26t-37 18t-49 7q-47 0 -91.5 -16.5t-79 -39.5t-55.5 -47.5t-21 -39.5q0 -16 25.5 -27.5t67.5 -21t94.5 -18.5t106.5 -20q50 -10 67 -29.5t17 -52.5q0 -53 -17 -99t-44 -69q-59 -51 -129 -89
t-141.5 -63t-139.5 -37.5t-123 -12.5q-86 0 -154 24t-115 69.5t-72 111.5t-25 151q0 40 7.5 87t24.5 99t44.5 108t67.5 113q23 34 37 34q4 0 7.5 -4t3.5 -12t-4 -18.5l-9 -23.5q-18 -38 -34.5 -80t-29 -83t-20 -79t-7.5 -68q0 -130 82 -199.5t231 -69.5q49 0 105 10t113 28
t112.5 43t103.5 54v16l-170.5 30.5t-109.5 26.5t-58.5 32t-17.5 45q0 54 20 104t53.5 94t76 80.5t88 62.5t90 40.5t80.5 14.5q25 0 44 -7.5t34.5 -19.5t28.5 -28l25 -32q13 -18 27.5 -35t32.5 -31t41.5 -22.5t54.5 -8.5q42 0 75 5t50 16q11 11 12.5 31t1.5 38t-3 50.5
t-8 61.5q30 29 60 54.5t62 48.5q6 -48 6 -100q0 -51 -7.5 -99t-27.5 -88q9 -3 26 -6.5t39.5 -6.5t48.5 -4.5t51 -1.5q27 0 51 2.5t41 7.5q6 2 10 8t4 18q0 17 -5 39t-13 46.5t-19 50t-24 49.5q27 35 54 64t51 52q29 -77 40 -149.5t11 -143.5q0 -23 -3.5 -48t-10 -48t-17 -41
t-25.5 -26q-10 -5 -22.5 -10t-32.5 -8.5t-49.5 -5.5t-73.5 -2q-32 0 -66.5 3.5t-65.5 10.5t-54 16.5t-31 20.5q-32 -32 -75.5 -41.5t-90.5 -9.5zM1386 936l-186 110q20 42 39 73t36 54l166 -94l58 94l20 -12l89.5 -54t70.5 -38q-14 -32 -31.5 -65t-40.5 -68l-160 96z
M1413 1175l-170 99l10 20q18 32 33.5 56.5t27.5 41.5l35 -18l68.5 -37l62.5 -35q-11 -26 -27.5 -58t-39.5 -69zM537 -375l-55 -96l-180 107q23 46 40.5 76t35.5 53l157 -93l57 94l100.5 -59.5t81.5 -43.5q-16 -37 -33 -70t-38 -67z" />
    <glyph glyph-name="uniFD0F" unicode="&#xfebb;&#xfeae;" horiz-adv-x="2282" arabic-form="isolated" 
d="M1414 491q99 -5 178 -6.5t146 -1.5q182 0 269 5.5t87 33.5q0 10 -11 29.5t-30.5 42.5t-47 47t-60 43.5t-70 32t-76.5 12.5q-31 0 -61 -9t-66 -30t-81.5 -55l-108.5 -84l-68 -54v-6zM2188 518q0 -57 -5 -89.5t-15 -49t-24.5 -23t-33.5 -10.5q-7 -2 -23 -3.5t-49 -3
t-86 -2.5t-133 -1q-128 0 -223.5 0.5t-166 1t-119 2t-81.5 3.5q-108 6 -169.5 71t-78.5 177q-57 -8 -122.5 -19.5t-124.5 -28.5v-8q0 -64 -14.5 -132.5t-40.5 -134t-62.5 -124.5t-81 -103t-95.5 -70t-106 -26q-38 0 -77.5 10t-77 26t-70 36t-57 39t-38.5 35t-14 25
q0 2 2 7.5t10 5.5q6 0 17 -6q52 -29 98 -42t102 -13q55 0 107 20.5t98.5 53t85 73t66.5 80.5t43.5 75t15.5 57q0 7 -2.5 12t-8.5 11t-17 13.5t-27 19.5q-20 14 -31 23.5t-16.5 15.5t-6.5 10t-1 8q0 16 8.5 47t24.5 79q32 9 85.5 22t117.5 26.5t132 25.5t130 20
q-2 -16 -2.5 -26.5t-0.5 -18.5q0 -47 13.5 -86.5t39 -68t61.5 -44.5t81 -16q21 0 39.5 8.5t37.5 22t37.5 30t39.5 33.5l155 128t119.5 89t99 52t93.5 17q42 0 100 -23t123 -83q44 -42 68 -79t35.5 -69.5t13.5 -59.5t2 -48z" />
    <glyph glyph-name="uniFD2B" unicode="&#xfebc;&#xfeae;" horiz-adv-x="2188" arabic-form="final" 
d="M1414 491q99 -5 178 -6.5t146 -1.5q182 0 269 5.5t87 33.5q0 10 -11 29.5t-30.5 42.5t-47 47t-60 43.5t-70 32t-76.5 12.5q-31 0 -61 -9t-66 -30t-81.5 -55l-108.5 -84l-68 -54v-6zM2188 518q0 -57 -5 -89.5t-15 -49t-24.5 -23t-33.5 -10.5q-7 -2 -23 -3.5t-49 -3
t-86 -2.5t-133 -1q-128 0 -223.5 0.5t-166 1t-119 2t-81.5 3.5q-108 6 -169.5 71t-78.5 177q-57 -8 -122.5 -19.5t-124.5 -28.5v-8q0 -64 -14.5 -132.5t-40.5 -134t-62.5 -124.5t-81 -103t-95.5 -70t-106 -26q-38 0 -77.5 10t-77 26t-70 36t-57 39t-38.5 35t-14 25
q0 2 2 7.5t10 5.5q6 0 17 -6q52 -29 98 -42t102 -13q55 0 107 20.5t98.5 53t85 73t66.5 80.5t43.5 75t15.5 57q0 7 -2.5 12t-8.5 11t-17 13.5t-27 19.5q-20 14 -31 23.5t-16.5 15.5t-6.5 10t-1 8q0 16 8.5 47t24.5 79q32 9 85.5 22t117.5 26.5t132 25.5t130 20
q-2 -16 -2.5 -26.5t-0.5 -18.5q0 -47 13.5 -86.5t39 -68t61.5 -44.5t81 -16q21 0 39.5 8.5t37.5 22t37.5 30t39.5 33.5l155 128t119.5 89t99 52t93.5 17q42 0 100 -23t123 -83q44 -42 68 -79t35.5 -69.5t13.5 -59.5t2 -48z" />
    <glyph glyph-name="uniFD05" unicode="&#xfebb;&#xfef0;" horiz-adv-x="2322" arabic-form="isolated" 
d="M1454 491q99 -5 178 -6.5t146 -1.5q182 0 269 5.5t87 33.5q0 10 -11 29.5t-30.5 42.5t-47 47t-60 43.5t-70 32t-76.5 12.5q-31 0 -61 -9t-66 -30t-81.5 -55l-108.5 -84l-68 -54v-6zM268 636q4 0 7.5 -4t3.5 -12t-4 -18.5l-9 -23.5q-18 -38 -34.5 -80t-29 -83t-20 -79
t-7.5 -68q0 -130 82 -199.5t231 -69.5q49 0 105 10t113 28t112.5 43t103.5 54v16l-170.5 30.5t-109.5 26.5t-58.5 32t-17.5 45q0 54 20 104t53.5 94t76 80.5t88 62.5t90 40.5t80.5 14.5q25 0 44 -7.5t34.5 -19.5t28.5 -27.5t25 -32.5q16 -22 30.5 -39t31.5 -29t39.5 -18.5
t53.5 -6.5q22 0 40.5 7t36.5 19.5t37.5 30l43.5 37.5l155.5 128t119.5 89t98.5 52t93.5 17q42 0 100 -23t123 -83q44 -42 68 -79t35.5 -69.5t13.5 -59.5t2 -48q0 -57 -5 -89.5t-15 -49t-24.5 -23t-33.5 -10.5q-7 -2 -23 -3.5t-49 -3t-86 -2.5t-133 -1q-125 0 -220.5 1
t-168 3t-127 4t-97.5 4q-45 2 -75 10t-51.5 20t-37 28t-29.5 34l-24 30t-27 27t-35 19t-48 7q-47 0 -92 -17t-80 -40t-56.5 -48t-21.5 -40q0 -16 25.5 -27.5t67.5 -21t94.5 -18.5t106.5 -20q50 -10 67 -29.5t17 -52.5q0 -53 -17 -99t-44 -69q-59 -51 -129 -89t-141.5 -63
t-139.5 -37.5t-123 -12.5q-86 0 -154 24t-115 69.5t-72 111.5t-25 151q0 40 7.5 87t24.5 99t44.5 108t67.5 113q23 34 37 34z" />
    <glyph glyph-name="uniFD21" unicode="&#xfebc;&#xfef0;" horiz-adv-x="2228" arabic-form="final" 
d="M1454 491q99 -5 178 -6.5t146 -1.5q182 0 269 5.5t87 33.5q0 10 -11 29.5t-30.5 42.5t-47 47t-60 43.5t-70 32t-76.5 12.5q-31 0 -61 -9t-66 -30t-81.5 -55l-108.5 -84l-68 -54v-6zM268 636q4 0 7.5 -4t3.5 -12t-4 -18.5l-9 -23.5q-18 -38 -34.5 -80t-29 -83t-20 -79
t-7.5 -68q0 -130 82 -199.5t231 -69.5q49 0 105 10t113 28t112.5 43t103.5 54v16l-170.5 30.5t-109.5 26.5t-58.5 32t-17.5 45q0 54 20 104t53.5 94t76 80.5t88 62.5t90 40.5t80.5 14.5q25 0 44 -7.5t34.5 -19.5t28.5 -27.5t25 -32.5q16 -22 30.5 -39t31.5 -29t39.5 -18.5
t53.5 -6.5q22 0 40.5 7t36.5 19.5t37.5 30l43.5 37.5l155.5 128t119.5 89t98.5 52t93.5 17q42 0 100 -23t123 -83q44 -42 68 -79t35.5 -69.5t13.5 -59.5t2 -48q0 -57 -5 -89.5t-15 -49t-24.5 -23t-33.5 -10.5q-7 -2 -23 -3.5t-49 -3t-86 -2.5t-133 -1q-125 0 -220.5 1
t-168 3t-127 4t-97.5 4q-45 2 -75 10t-51.5 20t-37 28t-29.5 34l-24 30t-27 27t-35 19t-48 7q-47 0 -92 -17t-80 -40t-56.5 -48t-21.5 -40q0 -16 25.5 -27.5t67.5 -21t94.5 -18.5t106.5 -20q50 -10 67 -29.5t17 -52.5q0 -53 -17 -99t-44 -69q-59 -51 -129 -89t-141.5 -63
t-139.5 -37.5t-123 -12.5q-86 0 -154 24t-115 69.5t-72 111.5t-25 151q0 40 7.5 87t24.5 99t44.5 108t67.5 113q23 34 37 34z" />
    <glyph glyph-name="uniFD06" unicode="&#xfebb;&#xfef2;" horiz-adv-x="2322" arabic-form="isolated" 
d="M1454 491q99 -5 178 -6.5t146 -1.5q182 0 269 5.5t87 33.5q0 10 -11 29.5t-30.5 42.5t-47 47t-60 43.5t-70 32t-76.5 12.5q-31 0 -61 -9t-66 -30t-81.5 -55l-108.5 -84l-68 -54v-6zM268 636q4 0 7.5 -4t3.5 -12t-4 -18.5l-9 -23.5q-18 -38 -34.5 -80t-29 -83t-20 -79
t-7.5 -68q0 -130 82 -199.5t231 -69.5q49 0 105 10t113 28t112.5 43t103.5 54v16l-170.5 30.5t-109.5 26.5t-58.5 32t-17.5 45q0 54 20 104t53.5 94t76 80.5t88 62.5t90 40.5t80.5 14.5q25 0 44 -7.5t34.5 -19.5t28.5 -27.5t25 -32.5q16 -22 30.5 -39t31.5 -29t39.5 -18.5
t53.5 -6.5q22 0 40.5 7t36.5 19.5t37.5 30l43.5 37.5l155.5 128t119.5 89t98.5 52t93.5 17q42 0 100 -23t123 -83q44 -42 68 -79t35.5 -69.5t13.5 -59.5t2 -48q0 -57 -5 -89.5t-15 -49t-24.5 -23t-33.5 -10.5q-7 -2 -23 -3.5t-49 -3t-86 -2.5t-133 -1q-125 0 -220.5 1
t-168 3t-127 4t-97.5 4q-45 2 -75 10t-51.5 20t-37 28t-29.5 34l-24 30t-27 27t-35 19t-48 7q-47 0 -92 -17t-80 -40t-56.5 -48t-21.5 -40q0 -16 25.5 -27.5t67.5 -21t94.5 -18.5t106.5 -20q50 -10 67 -29.5t17 -52.5q0 -53 -17 -99t-44 -69q-59 -51 -129 -89t-141.5 -63
t-139.5 -37.5t-123 -12.5q-86 0 -154 24t-115 69.5t-72 111.5t-25 151q0 40 7.5 87t24.5 99t44.5 108t67.5 113q23 34 37 34zM537 -375l-55 -96l-180 107q23 46 40.5 76t35.5 53l157 -93l57 94l100.5 -59.5t81.5 -43.5q-16 -37 -33 -70t-38 -67z" />
    <glyph glyph-name="uniFD22" unicode="&#xfebc;&#xfef2;" horiz-adv-x="2228" arabic-form="final" 
d="M1454 491q99 -5 178 -6.5t146 -1.5q182 0 269 5.5t87 33.5q0 10 -11 29.5t-30.5 42.5t-47 47t-60 43.5t-70 32t-76.5 12.5q-31 0 -61 -9t-66 -30t-81.5 -55l-108.5 -84l-68 -54v-6zM268 636q4 0 7.5 -4t3.5 -12t-4 -18.5l-9 -23.5q-18 -38 -34.5 -80t-29 -83t-20 -79
t-7.5 -68q0 -130 82 -199.5t231 -69.5q49 0 105 10t113 28t112.5 43t103.5 54v16l-170.5 30.5t-109.5 26.5t-58.5 32t-17.5 45q0 54 20 104t53.5 94t76 80.5t88 62.5t90 40.5t80.5 14.5q25 0 44 -7.5t34.5 -19.5t28.5 -27.5t25 -32.5q16 -22 30.5 -39t31.5 -29t39.5 -18.5
t53.5 -6.5q22 0 40.5 7t36.5 19.5t37.5 30l43.5 37.5l155.5 128t119.5 89t98.5 52t93.5 17q42 0 100 -23t123 -83q44 -42 68 -79t35.5 -69.5t13.5 -59.5t2 -48q0 -57 -5 -89.5t-15 -49t-24.5 -23t-33.5 -10.5q-7 -2 -23 -3.5t-49 -3t-86 -2.5t-133 -1q-125 0 -220.5 1
t-168 3t-127 4t-97.5 4q-45 2 -75 10t-51.5 20t-37 28t-29.5 34l-24 30t-27 27t-35 19t-48 7q-47 0 -92 -17t-80 -40t-56.5 -48t-21.5 -40q0 -16 25.5 -27.5t67.5 -21t94.5 -18.5t106.5 -20q50 -10 67 -29.5t17 -52.5q0 -53 -17 -99t-44 -69q-59 -51 -129 -89t-141.5 -63
t-139.5 -37.5t-123 -12.5q-86 0 -154 24t-115 69.5t-72 111.5t-25 151q0 40 7.5 87t24.5 99t44.5 108t67.5 113q23 34 37 34zM537 -375l-55 -96l-180 107q23 46 40.5 76t35.5 53l157 -93l57 94l100.5 -59.5t81.5 -43.5q-16 -37 -33 -70t-38 -67z" />
    <glyph glyph-name="uniFD10" unicode="&#xfebf;&#xfeae;" horiz-adv-x="2282" arabic-form="isolated" 
d="M1414 491q99 -5 178 -6.5t146 -1.5q182 0 269 5.5t87 33.5q0 10 -11 29.5t-30.5 42.5t-47 47t-60 43.5t-70 32t-76.5 12.5q-31 0 -61 -9t-66 -30t-81.5 -55l-108.5 -84l-68 -54v-6zM2188 518q0 -57 -5 -89.5t-15 -49t-24.5 -23t-33.5 -10.5q-7 -2 -23 -3.5t-49 -3
t-86 -2.5t-133 -1q-128 0 -223.5 0.5t-166 1t-119 2t-81.5 3.5q-108 6 -169.5 71t-78.5 177q-57 -8 -122.5 -19.5t-124.5 -28.5v-8q0 -64 -14.5 -132.5t-40.5 -134t-62.5 -124.5t-81 -103t-95.5 -70t-106 -26q-38 0 -77.5 10t-77 26t-70 36t-57 39t-38.5 35t-14 25
q0 2 2 7.5t10 5.5q6 0 17 -6q52 -29 98 -42t102 -13q55 0 107 20.5t98.5 53t85 73t66.5 80.5t43.5 75t15.5 57q0 7 -2.5 12t-8.5 11t-17 13.5t-27 19.5q-20 14 -31 23.5t-16.5 15.5t-6.5 10t-1 8q0 16 8.5 47t24.5 79q32 9 85.5 22t117.5 26.5t132 25.5t130 20
q-2 -16 -2.5 -26.5t-0.5 -18.5q0 -47 13.5 -86.5t39 -68t61.5 -44.5t81 -16q21 0 39.5 8.5t37.5 22t37.5 30t39.5 33.5l155 128t119.5 89t99 52t93.5 17q42 0 100 -23t123 -83q44 -42 68 -79t35.5 -69.5t13.5 -59.5t2 -48zM1807 1059l-191 104q19 38 37 70l35 61
q92 -45 184 -98q-12 -35 -28.5 -69t-36.5 -68z" />
    <glyph glyph-name="uniFD2C" unicode="&#xfec0;&#xfeae;" horiz-adv-x="2188" arabic-form="final" 
d="M1414 491q99 -5 178 -6.5t146 -1.5q182 0 269 5.5t87 33.5q0 10 -11 29.5t-30.5 42.5t-47 47t-60 43.5t-70 32t-76.5 12.5q-31 0 -61 -9t-66 -30t-81.5 -55l-108.5 -84l-68 -54v-6zM2188 518q0 -57 -5 -89.5t-15 -49t-24.5 -23t-33.5 -10.5q-7 -2 -23 -3.5t-49 -3
t-86 -2.5t-133 -1q-128 0 -223.5 0.5t-166 1t-119 2t-81.5 3.5q-108 6 -169.5 71t-78.5 177q-57 -8 -122.5 -19.5t-124.5 -28.5v-8q0 -64 -14.5 -132.5t-40.5 -134t-62.5 -124.5t-81 -103t-95.5 -70t-106 -26q-38 0 -77.5 10t-77 26t-70 36t-57 39t-38.5 35t-14 25
q0 2 2 7.5t10 5.5q6 0 17 -6q52 -29 98 -42t102 -13q55 0 107 20.5t98.5 53t85 73t66.5 80.5t43.5 75t15.5 57q0 7 -2.5 12t-8.5 11t-17 13.5t-27 19.5q-20 14 -31 23.5t-16.5 15.5t-6.5 10t-1 8q0 16 8.5 47t24.5 79q32 9 85.5 22t117.5 26.5t132 25.5t130 20
q-2 -16 -2.5 -26.5t-0.5 -18.5q0 -47 13.5 -86.5t39 -68t61.5 -44.5t81 -16q21 0 39.5 8.5t37.5 22t37.5 30t39.5 33.5l155 128t119.5 89t99 52t93.5 17q42 0 100 -23t123 -83q44 -42 68 -79t35.5 -69.5t13.5 -59.5t2 -48zM1807 1059l-191 104q19 38 37 70l35 61
q92 -45 184 -98q-12 -35 -28.5 -69t-36.5 -68z" />
    <glyph glyph-name="uniFD07" unicode="&#xfebf;&#xfef0;" horiz-adv-x="2322" arabic-form="isolated" 
d="M1454 491q99 -5 178 -6.5t146 -1.5q182 0 269 5.5t87 33.5q0 10 -11 29.5t-30.5 42.5t-47 47t-60 43.5t-70 32t-76.5 12.5q-31 0 -61 -9t-66 -30t-81.5 -55l-108.5 -84l-68 -54v-6zM268 636q4 0 7.5 -4t3.5 -12t-4 -18.5l-9 -23.5q-18 -38 -34.5 -80t-29 -83t-20 -79
t-7.5 -68q0 -130 82 -199.5t231 -69.5q49 0 105 10t113 28t112.5 43t103.5 54v16l-170.5 30.5t-109.5 26.5t-58.5 32t-17.5 45q0 54 20 104t53.5 94t76 80.5t88 62.5t90 40.5t80.5 14.5q25 0 44 -7.5t34.5 -19.5t28.5 -27.5t25 -32.5q16 -22 30.5 -39t31.5 -29t39.5 -18.5
t53.5 -6.5q22 0 40.5 7t36.5 19.5t37.5 30l43.5 37.5l155.5 128t119.5 89t98.5 52t93.5 17q42 0 100 -23t123 -83q44 -42 68 -79t35.5 -69.5t13.5 -59.5t2 -48q0 -57 -5 -89.5t-15 -49t-24.5 -23t-33.5 -10.5q-7 -2 -23 -3.5t-49 -3t-86 -2.5t-133 -1q-125 0 -220.5 1
t-168 3t-127 4t-97.5 4q-45 2 -75 10t-51.5 20t-37 28t-29.5 34l-24 30t-27 27t-35 19t-48 7q-47 0 -92 -17t-80 -40t-56.5 -48t-21.5 -40q0 -16 25.5 -27.5t67.5 -21t94.5 -18.5t106.5 -20q50 -10 67 -29.5t17 -52.5q0 -53 -17 -99t-44 -69q-59 -51 -129 -89t-141.5 -63
t-139.5 -37.5t-123 -12.5q-86 0 -154 24t-115 69.5t-72 111.5t-25 151q0 40 7.5 87t24.5 99t44.5 108t67.5 113q23 34 37 34zM1847 1059l-191 104q19 38 37 70l35 61q92 -45 184 -98q-12 -35 -28.5 -69t-36.5 -68z" />
    <glyph glyph-name="uniFD23" unicode="&#xfec0;&#xfef0;" horiz-adv-x="2228" arabic-form="final" 
d="M1454 491q99 -5 178 -6.5t146 -1.5q182 0 269 5.5t87 33.5q0 10 -11 29.5t-30.5 42.5t-47 47t-60 43.5t-70 32t-76.5 12.5q-31 0 -61 -9t-66 -30t-81.5 -55l-108.5 -84l-68 -54v-6zM268 636q4 0 7.5 -4t3.5 -12t-4 -18.5l-9 -23.5q-18 -38 -34.5 -80t-29 -83t-20 -79
t-7.5 -68q0 -130 82 -199.5t231 -69.5q49 0 105 10t113 28t112.5 43t103.5 54v16l-170.5 30.5t-109.5 26.5t-58.5 32t-17.5 45q0 54 20 104t53.5 94t76 80.5t88 62.5t90 40.5t80.5 14.5q25 0 44 -7.5t34.5 -19.5t28.5 -27.5t25 -32.5q16 -22 30.5 -39t31.5 -29t39.5 -18.5
t53.5 -6.5q22 0 40.5 7t36.5 19.5t37.5 30l43.5 37.5l155.5 128t119.5 89t98.5 52t93.5 17q42 0 100 -23t123 -83q44 -42 68 -79t35.5 -69.5t13.5 -59.5t2 -48q0 -57 -5 -89.5t-15 -49t-24.5 -23t-33.5 -10.5q-7 -2 -23 -3.5t-49 -3t-86 -2.5t-133 -1q-125 0 -220.5 1
t-168 3t-127 4t-97.5 4q-45 2 -75 10t-51.5 20t-37 28t-29.5 34l-24 30t-27 27t-35 19t-48 7q-47 0 -92 -17t-80 -40t-56.5 -48t-21.5 -40q0 -16 25.5 -27.5t67.5 -21t94.5 -18.5t106.5 -20q50 -10 67 -29.5t17 -52.5q0 -53 -17 -99t-44 -69q-59 -51 -129 -89t-141.5 -63
t-139.5 -37.5t-123 -12.5q-86 0 -154 24t-115 69.5t-72 111.5t-25 151q0 40 7.5 87t24.5 99t44.5 108t67.5 113q23 34 37 34zM1847 1059l-191 104q19 38 37 70l35 61q92 -45 184 -98q-12 -35 -28.5 -69t-36.5 -68z" />
    <glyph glyph-name="uniFD08" unicode="&#xfebf;&#xfef2;" horiz-adv-x="2322" arabic-form="isolated" 
d="M1454 491q99 -5 178 -6.5t146 -1.5q182 0 269 5.5t87 33.5q0 10 -11 29.5t-30.5 42.5t-47 47t-60 43.5t-70 32t-76.5 12.5q-31 0 -61 -9t-66 -30t-81.5 -55l-108.5 -84l-68 -54v-6zM268 636q4 0 7.5 -4t3.5 -12t-4 -18.5l-9 -23.5q-18 -38 -34.5 -80t-29 -83t-20 -79
t-7.5 -68q0 -130 82 -199.5t231 -69.5q49 0 105 10t113 28t112.5 43t103.5 54v16l-170.5 30.5t-109.5 26.5t-58.5 32t-17.5 45q0 54 20 104t53.5 94t76 80.5t88 62.5t90 40.5t80.5 14.5q25 0 44 -7.5t34.5 -19.5t28.5 -27.5t25 -32.5q16 -22 30.5 -39t31.5 -29t39.5 -18.5
t53.5 -6.5q22 0 40.5 7t36.5 19.5t37.5 30l43.5 37.5l155.5 128t119.5 89t98.5 52t93.5 17q42 0 100 -23t123 -83q44 -42 68 -79t35.5 -69.5t13.5 -59.5t2 -48q0 -57 -5 -89.5t-15 -49t-24.5 -23t-33.5 -10.5q-7 -2 -23 -3.5t-49 -3t-86 -2.5t-133 -1q-125 0 -220.5 1
t-168 3t-127 4t-97.5 4q-45 2 -75 10t-51.5 20t-37 28t-29.5 34l-24 30t-27 27t-35 19t-48 7q-47 0 -92 -17t-80 -40t-56.5 -48t-21.5 -40q0 -16 25.5 -27.5t67.5 -21t94.5 -18.5t106.5 -20q50 -10 67 -29.5t17 -52.5q0 -53 -17 -99t-44 -69q-59 -51 -129 -89t-141.5 -63
t-139.5 -37.5t-123 -12.5q-86 0 -154 24t-115 69.5t-72 111.5t-25 151q0 40 7.5 87t24.5 99t44.5 108t67.5 113q23 34 37 34zM1847 1059l-191 104q19 38 37 70l35 61q92 -45 184 -98q-12 -35 -28.5 -69t-36.5 -68zM537 -375l-55 -96l-180 107q23 46 40.5 76t35.5 53l157 -93
l57 94l100.5 -59.5t81.5 -43.5q-16 -37 -33 -70t-38 -67z" />
    <glyph glyph-name="uniFD24" unicode="&#xfec0;&#xfef2;" horiz-adv-x="2228" arabic-form="final" 
d="M1454 491q99 -5 178 -6.5t146 -1.5q182 0 269 5.5t87 33.5q0 10 -11 29.5t-30.5 42.5t-47 47t-60 43.5t-70 32t-76.5 12.5q-31 0 -61 -9t-66 -30t-81.5 -55l-108.5 -84l-68 -54v-6zM268 636q4 0 7.5 -4t3.5 -12t-4 -18.5l-9 -23.5q-18 -38 -34.5 -80t-29 -83t-20 -79
t-7.5 -68q0 -130 82 -199.5t231 -69.5q49 0 105 10t113 28t112.5 43t103.5 54v16l-170.5 30.5t-109.5 26.5t-58.5 32t-17.5 45q0 54 20 104t53.5 94t76 80.5t88 62.5t90 40.5t80.5 14.5q25 0 44 -7.5t34.5 -19.5t28.5 -27.5t25 -32.5q16 -22 30.5 -39t31.5 -29t39.5 -18.5
t53.5 -6.5q22 0 40.5 7t36.5 19.5t37.5 30l43.5 37.5l155.5 128t119.5 89t98.5 52t93.5 17q42 0 100 -23t123 -83q44 -42 68 -79t35.5 -69.5t13.5 -59.5t2 -48q0 -57 -5 -89.5t-15 -49t-24.5 -23t-33.5 -10.5q-7 -2 -23 -3.5t-49 -3t-86 -2.5t-133 -1q-125 0 -220.5 1
t-168 3t-127 4t-97.5 4q-45 2 -75 10t-51.5 20t-37 28t-29.5 34l-24 30t-27 27t-35 19t-48 7q-47 0 -92 -17t-80 -40t-56.5 -48t-21.5 -40q0 -16 25.5 -27.5t67.5 -21t94.5 -18.5t106.5 -20q50 -10 67 -29.5t17 -52.5q0 -53 -17 -99t-44 -69q-59 -51 -129 -89t-141.5 -63
t-139.5 -37.5t-123 -12.5q-86 0 -154 24t-115 69.5t-72 111.5t-25 151q0 40 7.5 87t24.5 99t44.5 108t67.5 113q23 34 37 34zM1847 1059l-191 104q19 38 37 70l35 61q92 -45 184 -98q-12 -35 -28.5 -69t-36.5 -68zM537 -375l-55 -96l-180 107q23 46 40.5 76t35.5 53l157 -93
l57 94l100.5 -59.5t81.5 -43.5q-16 -37 -33 -70t-38 -67z" />
    <glyph glyph-name="uniFC31" unicode="&#xfed3;&#xfef0;" horiz-adv-x="1139" arabic-form="isolated" 
d="M740 1285l-190 104q18 39 36 71.5t35 59.5l92.5 -47.5l92.5 -50.5q-25 -68 -66 -137zM880 760q-30 -3 -60 -3q-47 0 -91 8.5t-78 26t-54.5 43t-20.5 60.5q0 48 17 101.5t46 99.5t67.5 76t82.5 30q32 0 58.5 -22.5t47 -58t35.5 -80t25 -88.5t14.5 -83t4.5 -64
q0 -67 -20 -126.5t-46 -103.5q43 -9 71.5 -19.5t45 -24t23 -31t6.5 -42.5q0 -27 -1 -48.5t-4.5 -39.5t-11.5 -34t-22 -31q-51 -56 -121 -99.5t-144.5 -74t-147 -46.5t-129.5 -16q-91 0 -162.5 24.5t-121 72t-76 116t-26.5 156.5q0 30 5 68t15.5 78.5t26 81.5t37.5 78
q22 38 35 38q5 0 9.5 -4.5t4.5 -13.5q0 -8 -3.5 -17.5t-8.5 -21.5q-9 -23 -17 -49t-14.5 -51t-10 -48.5t-3.5 -41.5q0 -150 85 -230.5t239 -80.5q56 0 121 14.5t128.5 39t119.5 56.5t93 68v10q-87 27 -175.5 39t-173.5 22l18.5 68.5t11 36.5t8.5 15.5t10 5.5l135 43t71 28.5
t27.5 24.5t4.5 29q0 8 -1.5 17.5t-4.5 17.5zM872 889q-6 36 -18.5 67.5t-28 55t-34 36.5t-36.5 13q-14 0 -32 -6.5t-33.5 -17.5t-26 -26t-10.5 -33q0 -14 15 -29t43 -27.5t68.5 -21t92.5 -11.5z" />
    <glyph glyph-name="uniFC32" unicode="&#xfed3;&#xfef2;" horiz-adv-x="1139" arabic-form="isolated" 
d="M740 1285l-190 104q18 39 36 71.5t35 59.5l92.5 -47.5l92.5 -50.5q-25 -68 -66 -137zM880 760q-30 -3 -60 -3q-47 0 -91 8.5t-78 26t-54.5 43t-20.5 60.5q0 48 17 101.5t46 99.5t67.5 76t82.5 30q32 0 58.5 -22.5t47 -58t35.5 -80t25 -88.5t14.5 -83t4.5 -64
q0 -67 -20 -126.5t-46 -103.5q43 -9 71.5 -19.5t45 -24t23 -31t6.5 -42.5q0 -27 -1 -48.5t-4.5 -39.5t-11.5 -34t-22 -31q-51 -56 -121 -99.5t-144.5 -74t-147 -46.5t-129.5 -16q-91 0 -162.5 24.5t-121 72t-76 116t-26.5 156.5q0 30 5 68t15.5 78.5t26 81.5t37.5 78
q22 38 35 38q5 0 9.5 -4.5t4.5 -13.5q0 -8 -3.5 -17.5t-8.5 -21.5q-9 -23 -17 -49t-14.5 -51t-10 -48.5t-3.5 -41.5q0 -150 85 -230.5t239 -80.5q56 0 121 14.5t128.5 39t119.5 56.5t93 68v10q-87 27 -175.5 39t-173.5 22l18.5 68.5t11 36.5t8.5 15.5t10 5.5l135 43t71 28.5
t27.5 24.5t4.5 29q0 8 -1.5 17.5t-4.5 17.5zM872 889q-6 36 -18.5 67.5t-28 55t-34 36.5t-36.5 13q-14 0 -32 -6.5t-33.5 -17.5t-26 -26t-10.5 -33q0 -14 15 -29t43 -27.5t68.5 -21t92.5 -11.5zM526 -165l-55 -96l-180 107q23 46 40.5 76t35.5 53l157 -93l57 94l100.5 -59.5
t81.5 -43.5q-16 -37 -33 -70t-38 -67z" />
    <glyph glyph-name="uniFEFB" unicode="&#xfedf;&#xfe8e;" horiz-adv-x="931" arabic-form="isolated" 
d="M561 446q4 0 10.5 -0.5t14.5 -0.5q18 0 41.5 0.5t47 1.5t43.5 2.5t30 2.5q3 2 4.5 4t1.5 9q0 6 -15.5 37.5t-45.5 74.5q-15 -19 -33.5 -38.5l-36.5 -37.5t-34.5 -32zM338 311q-3 2 -4.5 6.5t-1.5 9.5q0 17 2.5 38.5t7 40t10 31.5t10.5 13q30 0 59.5 7.5t62.5 28t72 56.5
t89 93q-92 122 -179 213t-155 147l-26 -31q-12 4 -27.5 12t-32.5 18l-34.5 21l-33.5 22q-32 22 -50.5 46.5t-18.5 55.5q0 22 6 44.5t16 42.5t22 37t23 29q34 -24 75.5 -60.5t88 -82l95.5 -97.5l97.5 -108l96 -114l89.5 -114q7 36 9.5 82t2.5 98q0 59 -3 122t-6.5 121.5
t-8 109l-7.5 84.5l122 132q3 -48 5 -85.5t3.5 -70.5t2 -64t0.5 -66q0 -106 -4 -190.5t-12 -150t-20.5 -113.5t-29.5 -81q35 -48 57.5 -92.5t22.5 -92.5q0 -9 -4.5 -28t-12 -41t-18.5 -42.5t-24 -32.5q-59 -9 -125 -12.5t-131 -3.5q-51 0 -100.5 3t-77.5 9z" />
    <glyph glyph-name="uniFEFC" unicode="&#xfee0;&#xfe8e;" horiz-adv-x="1083" arabic-form="final" 
d="M1083 350h-15q-55 0 -92.5 9t-63.5 26t-43 41.5t-32 56.5q-17 -37 -44 -67.5t-60.5 -52t-73.5 -33.5t-83 -12q-39 0 -84.5 6.5t-90 16t-83 20.5t-63.5 20v3q0 12 9 21l145 19q37 4 76.5 11.5t77.5 17.5t73 23t62 29q12 7 12 18q0 13 -7.5 27t-12.5 21q-32 52 -70 107
t-81 108t-91.5 103.5t-100.5 93.5l-29 -36q-71 33 -110.5 60.5t-58.5 49t-23 37t-4 24.5q0 27 7 51t17 44.5t21.5 36t20.5 25.5q77 -54 159.5 -132.5t161 -170.5t148.5 -191.5t121 -194.5h2q21 26 25.5 66.5t4.5 82.5q0 27 -2.5 70.5t-6.5 95.5t-9 110l-10 115.5l-10 110.5
t-8 96l123 132q3 -131 6.5 -248.5t8 -216.5t9 -178.5t9.5 -134.5q3 -37 6 -60.5t6 -38.5t7 -23.5t9 -15.5q19 -26 44.5 -39t75.5 -13h15v-147z" />
    <glyph glyph-name="uniFEF5" unicode="&#xfedf;&#xfe82;" horiz-adv-x="931" arabic-form="isolated" 
d="M561 446q4 0 10.5 -0.5t14.5 -0.5q18 0 41.5 0.5t47 1.5t43.5 2.5t30 2.5q3 2 4.5 4t1.5 9q0 6 -15.5 37.5t-45.5 74.5q-15 -19 -33.5 -38.5l-36.5 -37.5t-34.5 -32zM338 311q-3 2 -4.5 6.5t-1.5 9.5q0 17 2.5 38.5t7 40t10 31.5t10.5 13q30 0 59.5 7.5t62.5 28t72 56.5
t89 93q-92 122 -179 213t-155 147l-26 -31q-12 4 -27.5 12t-32.5 18l-34.5 21l-33.5 22q-32 22 -50.5 46.5t-18.5 55.5q0 22 6 44.5t16 42.5t22 37t23 29q34 -24 75.5 -60.5t88 -82l95.5 -97.5l97.5 -108l96 -114l89.5 -114q7 36 9.5 82t2.5 98q0 59 -3 122t-6.5 121.5
t-8 109l-7.5 84.5l122 132q3 -48 5 -85.5t3.5 -70.5t2 -64t0.5 -66q0 -106 -4 -190.5t-12 -150t-20.5 -113.5t-29.5 -81q35 -48 57.5 -92.5t22.5 -92.5q0 -9 -4.5 -28t-12 -41t-18.5 -42.5t-24 -32.5q-59 -9 -125 -12.5t-131 -3.5q-51 0 -100.5 3t-77.5 9zM571 1633
q-13 -44 -34 -80t-53 -61.5t-76.5 -39.5t-102.5 -14q-14 0 -33 1.5t-33 1.5q-50 0 -87.5 -20.5t-54.5 -68.5l-2 -1q-18 8 -27.5 28.5t-9.5 40.5q0 32 12.5 57.5t33.5 43.5t48.5 28t57.5 10q31 0 63.5 -4.5t64.5 -4.5q31 0 62 4.5t58.5 17t50 35t37.5 59.5z" />
    <glyph glyph-name="uniFEF6" unicode="&#xfee0;&#xfe82;" horiz-adv-x="1083" arabic-form="final" 
d="M1083 350h-15q-55 0 -92.5 9t-63.5 26t-43 41.5t-32 56.5q-17 -37 -44 -67.5t-60.5 -52t-73.5 -33.5t-83 -12q-39 0 -84.5 6.5t-90 16t-83 20.5t-63.5 20v3q0 12 9 21l145 19q37 4 76.5 11.5t77.5 17.5t73 23t62 29q12 7 12 18q0 13 -7.5 27t-12.5 21q-32 52 -70 107
t-81 108t-91.5 103.5t-100.5 93.5l-29 -36q-71 33 -110.5 60.5t-58.5 49t-23 37t-4 24.5q0 27 7 51t17 44.5t21.5 36t20.5 25.5q77 -54 159.5 -132.5t161 -170.5t148.5 -191.5t121 -194.5h2q21 26 25.5 66.5t4.5 82.5q0 27 -2.5 70.5t-6.5 95.5t-9 110l-10 115.5l-10 110.5
t-8 96l123 132q3 -131 6.5 -248.5t8 -216.5t9 -178.5t9.5 -134.5q3 -37 6 -60.5t6 -38.5t7 -23.5t9 -15.5q19 -26 44.5 -39t75.5 -13h15v-147zM569 1578q-13 -44 -34 -80t-53 -61.5t-76.5 -39.5t-102.5 -14q-14 0 -33 1.5t-33 1.5q-50 0 -87.5 -20.5t-54.5 -68.5l-2 -1
q-18 8 -27.5 28.5t-9.5 40.5q0 32 12.5 57.5t33.5 43.5t48.5 28t57.5 10q31 0 63.5 -4.5t64.5 -4.5q31 0 62 4.5t58.5 17t50 35t37.5 59.5z" />
    <glyph glyph-name="uniFEF7" unicode="&#xfedf;&#xfe84;" horiz-adv-x="931" arabic-form="isolated" 
d="M561 446q4 0 10.5 -0.5t14.5 -0.5q18 0 41.5 0.5t47 1.5t43.5 2.5t30 2.5q3 2 4.5 4t1.5 9q0 6 -15.5 37.5t-45.5 74.5q-15 -19 -33.5 -38.5l-36.5 -37.5t-34.5 -32zM338 311q-3 2 -4.5 6.5t-1.5 9.5q0 17 2.5 38.5t7 40t10 31.5t10.5 13q30 0 59.5 7.5t62.5 28t72 56.5
t89 93q-92 122 -179 213t-155 147l-26 -31q-12 4 -27.5 12t-32.5 18l-34.5 21l-33.5 22q-32 22 -50.5 46.5t-18.5 55.5q0 22 6 44.5t16 42.5t22 37t23 29q34 -24 75.5 -60.5t88 -82l95.5 -97.5l97.5 -108l96 -114l89.5 -114q7 36 9.5 82t2.5 98q0 59 -3 122t-6.5 121.5
t-8 109l-7.5 84.5l122 132q3 -48 5 -85.5t3.5 -70.5t2 -64t0.5 -66q0 -106 -4 -190.5t-12 -150t-20.5 -113.5t-29.5 -81q35 -48 57.5 -92.5t22.5 -92.5q0 -9 -4.5 -28t-12 -41t-18.5 -42.5t-24 -32.5q-59 -9 -125 -12.5t-131 -3.5q-51 0 -100.5 3t-77.5 9zM387 1530
q-8 -30 -16.5 -55.5l-13.5 -40.5l-116.5 -37.5t-84 -31.5t-66.5 -35.5t-63 -50.5q-2 28 0 48.5t10 38.5q5 14 18 26.5t28 24.5q-33 21 -51.5 43.5t-18.5 59.5q0 26 13.5 56t38.5 55t60.5 41.5t79.5 16.5q35 0 61.5 -15.5t26.5 -44.5q0 -12 -9 -28t-26 -24q-19 14 -40 23
t-47 9q-15 0 -29 -3t-25 -9t-17.5 -15.5t-6.5 -22.5q0 -17 11.5 -32.5t28 -27t36 -18.5t36.5 -7q22 0 72 16t110 40z" />
    <glyph glyph-name="uniFEF8" unicode="&#xfee0;&#xfe84;" horiz-adv-x="1083" arabic-form="final" 
d="M1083 350h-15q-55 0 -92.5 9t-63.5 26t-43 41.5t-32 56.5q-17 -37 -44 -67.5t-60.5 -52t-73.5 -33.5t-83 -12q-39 0 -84.5 6.5t-90 16t-83 20.5t-63.5 20v3q0 12 9 21l145 19q37 4 76.5 11.5t77.5 17.5t73 23t62 29q12 7 12 18q0 13 -7.5 27t-12.5 21q-32 52 -70 107
t-81 108t-91.5 103.5t-100.5 93.5l-29 -36q-71 33 -110.5 60.5t-58.5 49t-23 37t-4 24.5q0 27 7 51t17 44.5t21.5 36t20.5 25.5q77 -54 159.5 -132.5t161 -170.5t148.5 -191.5t121 -194.5h2q21 26 25.5 66.5t4.5 82.5q0 27 -2.5 70.5t-6.5 95.5t-9 110l-10 115.5l-10 110.5
t-8 96l123 132q3 -131 6.5 -248.5t8 -216.5t9 -178.5t9.5 -134.5q3 -37 6 -60.5t6 -38.5t7 -23.5t9 -15.5q19 -26 44.5 -39t75.5 -13h15v-147zM407 1510q-8 -30 -16.5 -55.5l-13.5 -40.5l-116.5 -37.5t-84 -31.5t-66.5 -35.5t-63 -50.5q-2 28 0 48.5t10 38.5q5 14 18 26.5
t28 24.5q-33 21 -51.5 43.5t-18.5 59.5q0 26 13.5 56t38.5 55t60.5 41.5t79.5 16.5q35 0 61.5 -15.5t26.5 -44.5q0 -12 -9 -28t-26 -24q-19 14 -40 23t-47 9q-15 0 -29 -3t-25 -9t-17.5 -15.5t-6.5 -22.5q0 -17 11.5 -32.5t28 -27t36 -18.5t36.5 -7q22 0 72 16t110 40z" />
    <glyph glyph-name="uniFEF9" unicode="&#xfedf;&#xfe88;" horiz-adv-x="931" arabic-form="isolated" 
d="M561 446q4 0 10.5 -0.5t14.5 -0.5q18 0 41.5 0.5t47 1.5t43.5 2.5t30 2.5q3 2 4.5 4t1.5 9q0 6 -15.5 37.5t-45.5 74.5q-15 -19 -33.5 -38.5l-36.5 -37.5t-34.5 -32zM338 311q-3 2 -4.5 6.5t-1.5 9.5q0 17 2.5 38.5t7 40t10 31.5t10.5 13q30 0 59.5 7.5t62.5 28t72 56.5
t89 93q-92 122 -179 213t-155 147l-26 -31q-12 4 -27.5 12t-32.5 18l-34.5 21l-33.5 22q-32 22 -50.5 46.5t-18.5 55.5q0 22 6 44.5t16 42.5t22 37t23 29q34 -24 75.5 -60.5t88 -82l95.5 -97.5l97.5 -108l96 -114l89.5 -114q7 36 9.5 82t2.5 98q0 59 -3 122t-6.5 121.5
t-8 109l-7.5 84.5l122 132q3 -48 5 -85.5t3.5 -70.5t2 -64t0.5 -66q0 -106 -4 -190.5t-12 -150t-20.5 -113.5t-29.5 -81q35 -48 57.5 -92.5t22.5 -92.5q0 -9 -4.5 -28t-12 -41t-18.5 -42.5t-24 -32.5q-59 -9 -125 -12.5t-131 -3.5q-51 0 -100.5 3t-77.5 9zM612 5
q-8 -30 -16.5 -55.5l-13.5 -40.5l-116.5 -37.5t-84 -31.5t-66.5 -35.5t-63 -50.5q-2 28 0 48.5t10 38.5q5 14 18 26.5t28 24.5q-33 21 -51.5 43.5t-18.5 59.5q0 26 13.5 56t38.5 55t60.5 41.5t79.5 16.5q35 0 61.5 -15.5t26.5 -44.5q0 -12 -9 -28t-26 -24q-19 14 -40 23
t-47 9q-15 0 -29 -3t-25 -9t-17.5 -15.5t-6.5 -22.5q0 -17 11.5 -32.5t28 -27t36 -18.5t36.5 -7q22 0 72 16t110 40z" />
    <glyph glyph-name="uniFEFA" unicode="&#xfee0;&#xfe88;" horiz-adv-x="1083" arabic-form="final" 
d="M1083 350h-15q-55 0 -92.5 9t-63.5 26t-43 41.5t-32 56.5q-17 -37 -44 -67.5t-60.5 -52t-73.5 -33.5t-83 -12q-39 0 -84.5 6.5t-90 16t-83 20.5t-63.5 20v3q0 12 9 21l145 19q37 4 76.5 11.5t77.5 17.5t73 23t62 29q12 7 12 18q0 13 -7.5 27t-12.5 21q-32 52 -70 107
t-81 108t-91.5 103.5t-100.5 93.5l-29 -36q-71 33 -110.5 60.5t-58.5 49t-23 37t-4 24.5q0 27 7 51t17 44.5t21.5 36t20.5 25.5q77 -54 159.5 -132.5t161 -170.5t148.5 -191.5t121 -194.5h2q21 26 25.5 66.5t4.5 82.5q0 27 -2.5 70.5t-6.5 95.5t-9 110l-10 115.5l-10 110.5
t-8 96l123 132q3 -131 6.5 -248.5t8 -216.5t9 -178.5t9.5 -134.5q3 -37 6 -60.5t6 -38.5t7 -23.5t9 -15.5q19 -26 44.5 -39t75.5 -13h15v-147zM700 6q-8 -30 -16.5 -55.5l-13.5 -40.5l-116.5 -37.5t-84 -31.5t-66.5 -35.5t-63 -50.5q-2 28 0 48.5t10 38.5q5 14 18 26.5
t28 24.5q-33 21 -51.5 43.5t-18.5 59.5q0 26 13.5 56t38.5 55t60.5 41.5t79.5 16.5q35 0 61.5 -15.5t26.5 -44.5q0 -12 -9 -28t-26 -24q-19 14 -40 23t-47 9q-15 0 -29 -3t-25 -9t-17.5 -15.5t-6.5 -22.5q0 -17 11.5 -32.5t28 -27t36 -18.5t36.5 -7q22 0 72 16t110 40z" />
    <glyph glyph-name="uniFCCC" unicode="&#xfedf;&#xfee4;" horiz-adv-x="754" arabic-form="initial" 
d="M631 305q-125 113 -180 125q-74 -30 -135 -46.5t-113.5 -24t-99 -8.5t-91.5 -1q-21 0 -34 2.5t-20 10t-9 22t-2 39.5q0 44 8.5 58.5t34.5 14.5h63q152 0 283 58l-65 806q19 34 38.5 64t45.5 56q14 14 22 14q4 0 6.5 -5t4 -12.5t2 -16t0.5 -15.5q0 -120 80 -160q2 -1 3 -4
t1 -6q-8 -26 -26.5 -57l-37.5 -61q2 -77 4 -135.5l3.5 -104t3.5 -82l4 -71t5 -70t6 -79.5q34 -18 70.5 -40.5t69.5 -46t60 -46t42 -39.5q-5 -35 -16 -70t-31 -69z" />
    <glyph glyph-name="uniFC43" unicode="&#xfedf;&#xfef0;" horiz-adv-x="1145" arabic-form="isolated" 
d="M934 1079q3 -71 6 -104q5 -62 6.5 -108.5t1.5 -78.5q0 -43 -18.5 -108.5t-57.5 -153.5q52 -15 86.5 -28.5t54.5 -29t28 -35.5t8 -48q0 -149 -205 -275q-204 -125 -449 -125q-70 0 -127 23.5t-97.5 66t-62.5 102t-22 130.5q0 45 9.5 96t29.5 111t37.5 92.5t34.5 38.5l2 2
h2q6 -3 6 -16q0 -24 -17 -66l-14 -35q-24 -68 -24 -143q0 -240 278 -240q74 0 146.5 15.5t144.5 44.5t124 63t81 76q-57 20 -128 35.5t-159 27.5l-18 4l-19 3l29 147q133 35 211 76q0 37 -2.5 91t-6.5 116.5t-10 131.5l-11.5 136.5l-11 131t-8.5 115.5q19 34 39 64t46 56
q14 14 22 14q4 0 6.5 -5t4 -12.5t2 -16t0.5 -15.5q0 -120 80 -160q2 -1 3 -4t1 -6q-8 -26 -26.5 -57l-37.5 -61q1 -21 1 -41t1 -38z" />
    <glyph glyph-name="uniFC86" unicode="&#xfee0;&#xfef0;" horiz-adv-x="1135" arabic-form="final" 
d="M498 227q0 26 2.5 60.5t7.5 76.5q201 70 295 123l-43 660l57 93.5t45 63.5l10 -4l33 -643q3 -54 13.5 -87.5t27.5 -47.5q39 -25 189 -25v-147q-135 0 -179 23q-20 12 -39.5 42.5t-37.5 81.5l-15 -6q-18 -119 -96 -159v-15q31 -6 51.5 -14t32.5 -20t17 -29t5 -41
q0 -76 -67 -146q-80 -83 -201 -139q-60 -29 -114 -43t-105 -14q-68 0 -124 24t-96 68t-62.5 106t-22.5 138q0 68 24 163q13 48 28 85.5t32 66.5q21 41 35 41h4l2 -2l2 -2v-6v-2q0 -8 -4 -26t-12 -44q-46 -131 -46 -221q0 -116 69 -179t187 -63q166 0 342 137v19l-116 23.5
t-131 29.5z" />
    <glyph glyph-name="uni06440671" unicode="&#xfedf;&#xfb51;" horiz-adv-x="931" 
d="M561 446q4 0 10.5 -0.5t14.5 -0.5q18 0 41.5 0.5t47 1.5t43.5 2.5t30 2.5q3 2 4.5 4t1.5 9q0 6 -15.5 37.5t-45.5 74.5q-15 -19 -33.5 -38.5l-36.5 -37.5t-34.5 -32zM338 311q-3 2 -4.5 6.5t-1.5 9.5q0 17 2.5 38.5t7 40t10 31.5t10.5 13q30 0 59.5 7.5t62.5 28t72 56.5
t89 93q-92 122 -179 213t-155 147l-26 -31q-12 4 -27.5 12t-32.5 18l-34.5 21l-33.5 22q-32 22 -50.5 46.5t-18.5 55.5q0 22 6 44.5t16 42.5t22 37t23 29q34 -24 75.5 -60.5t88 -82l95.5 -97.5l97.5 -108l96 -114l89.5 -114q7 36 9.5 82t2.5 98q0 59 -3 122t-6.5 121.5
t-8 109l-7.5 84.5l122 132q3 -48 5 -85.5t3.5 -70.5t2 -64t0.5 -66q0 -106 -4 -190.5t-12 -150t-20.5 -113.5t-29.5 -81q35 -48 57.5 -92.5t22.5 -92.5q0 -9 -4.5 -28t-12 -41t-18.5 -42.5t-24 -32.5q-59 -9 -125 -12.5t-131 -3.5q-51 0 -100.5 3t-77.5 9zM187 1457
q36 -13 66 -18t71 -5q16 0 32 2.5t28.5 7t20 10.5t7.5 14q0 9 -6 22t-17 25t-27 20t-37 8q-37 0 -69.5 -23.5t-68.5 -62.5zM3 1338q5 40 16.5 68.5t25.5 46.5t29.5 26t29.5 8q11 0 21.5 -3.5t18.5 -5.5q42 49 72.5 79t55 46.5t44.5 22t40 5.5q15 0 33 -9t34 -27t27 -46
t11 -67q0 -33 -7 -58.5t-23.5 -42t-45.5 -25t-72 -8.5q-50 0 -86.5 7.5t-63.5 17t-46.5 17t-35.5 7.5q-14 0 -33 -13.5t-42 -46.5z" />
    <glyph glyph-name="uni06440671.fina" unicode="&#xfee0;&#xfb51;" horiz-adv-x="1083" 
d="M1083 350h-15q-55 0 -92.5 9t-63.5 26t-43 41.5t-32 56.5q-17 -37 -44 -67.5t-60.5 -52t-73.5 -33.5t-83 -12q-39 0 -84.5 6.5t-90 16t-83 20.5t-63.5 20v3q0 12 9 21l145 19q37 4 76.5 11.5t77.5 17.5t73 23t62 29q12 7 12 18q0 13 -7.5 27t-12.5 21q-32 52 -70 107
t-81 108t-91.5 103.5t-100.5 93.5l-29 -36q-71 33 -110.5 60.5t-58.5 49t-23 37t-4 24.5q0 27 7 51t17 44.5t21.5 36t20.5 25.5q77 -54 159.5 -132.5t161 -170.5t148.5 -191.5t121 -194.5h2q21 26 25.5 66.5t4.5 82.5q0 27 -2.5 70.5t-6.5 95.5t-9 110l-10 115.5l-10 110.5
t-8 96l123 132q3 -131 6.5 -248.5t8 -216.5t9 -178.5t9.5 -134.5q3 -37 6 -60.5t6 -38.5t7 -23.5t9 -15.5q19 -26 44.5 -39t75.5 -13h15v-147zM246 1442q36 -13 66 -18t71 -5q16 0 32 2.5t28.5 7t20 10.5t7.5 14q0 9 -6 22t-17 25t-27 20t-37 8q-37 0 -69.5 -23.5
t-68.5 -62.5zM62 1323q5 40 16.5 68.5t25.5 46.5t29.5 26t29.5 8q11 0 21.5 -3.5t18.5 -5.5q42 49 72.5 79t55 46.5t44.5 22t40 5.5q15 0 33 -9t34 -27t27 -46t11 -67q0 -33 -7 -58.5t-23.5 -42t-45.5 -25t-72 -8.5q-50 0 -86.5 7.5t-63.5 17t-46.5 17t-35.5 7.5
q-14 0 -33 -13.5t-42 -46.5z" />
    <glyph glyph-name="uniFC44" unicode="&#xfedf;&#xfef2;" horiz-adv-x="1145" arabic-form="isolated" 
d="M934 1079q3 -71 6 -104q5 -62 6.5 -108.5t1.5 -78.5q0 -43 -18.5 -108.5t-57.5 -153.5q52 -15 86.5 -28.5t54.5 -29t28 -35.5t8 -48q0 -149 -205 -275q-204 -125 -449 -125q-70 0 -127 23.5t-97.5 66t-62.5 102t-22 130.5q0 45 9.5 96t29.5 111t37.5 92.5t34.5 38.5l2 2
h2q6 -3 6 -16q0 -24 -17 -66l-14 -35q-24 -68 -24 -143q0 -240 278 -240q74 0 146.5 15.5t144.5 44.5t124 63t81 76q-57 20 -128 35.5t-159 27.5l-18 4l-19 3l29 147q133 35 211 76q0 37 -2.5 91t-6.5 116.5t-10 131.5l-11.5 136.5l-11 131t-8.5 115.5q19 34 39 64t46 56
q14 14 22 14q4 0 6.5 -5t4 -12.5t2 -16t0.5 -15.5q0 -120 80 -160q2 -1 3 -4t1 -6q-8 -26 -26.5 -57l-37.5 -61q1 -21 1 -41t1 -38zM546 -239l-55 -96l-180 107q23 46 40.5 76t35.5 53l157 -93l57 94l100.5 -59.5t81.5 -43.5q-16 -37 -33 -70t-38 -67z" />
    <glyph glyph-name="uniFC87" unicode="&#xfee0;&#xfef2;" horiz-adv-x="1135" arabic-form="final" 
d="M498 227q0 26 2.5 60.5t7.5 76.5q201 70 295 123l-43 660l57 93.5t45 63.5l10 -4l33 -643q3 -54 13.5 -87.5t27.5 -47.5q39 -25 189 -25v-147q-135 0 -179 23q-20 12 -39.5 42.5t-37.5 81.5l-15 -6q-18 -119 -96 -159v-15q31 -6 51.5 -14t32.5 -20t17 -29t5 -41
q0 -76 -67 -146q-80 -83 -201 -139q-60 -29 -114 -43t-105 -14q-68 0 -124 24t-96 68t-62.5 106t-22.5 138q0 68 24 163q13 48 28 85.5t32 66.5q21 41 35 41h4l2 -2l2 -2v-6v-2q0 -8 -4 -26t-12 -44q-46 -131 -46 -221q0 -116 69 -179t187 -63q166 0 342 137v19l-116 23.5
t-131 29.5zM484 -339l-55 -96l-180 107q23 46 40.5 76t35.5 53l157 -93l57 94l100.5 -59.5t81.5 -43.5q-16 -37 -33 -70t-38 -67z" />
    <glyph glyph-name="uniFC91" unicode="&#xfef4;&#xfeae;" horiz-adv-x="1147" arabic-form="final" 
d="M653 593q-20 -118 -58.5 -214t-88 -163.5t-107.5 -104.5t-118 -37q-54 0 -118.5 19t-125.5 59q-25 17 -31 26t-6 17q0 4 4.5 8t6.5 3l52 -13.5t77 -8.5q63 0 123 25t115 71.5t103 113.5t87 150q4 8 7 19t3 19t-5.5 13t-11.5 9q-31 20 -49 35.5t-27 28.5t-11.5 23t-2.5 18
q0 10 3 24t7 29.5t9 31l9 28.5l43.5 -32.5t45.5 -27t53 -18.5t66 -7q39 0 65.5 6t42.5 16q22 13 29 35q12 39 24.5 74t29.5 72l6 -2q26 -82 44.5 -168.5t39.5 -167.5q10 -37 22.5 -58t31.5 -31.5t44.5 -13t60.5 -2.5v-147h-43q-30 0 -56.5 4t-47.5 16t-36.5 33t-22.5 55
l-23.5 98.5t-48.5 186.5h-4q-10 -39 -24 -67.5t-38 -46.5t-60 -26.5t-90 -9.5zM767 -44l-55 -96l-180 107q23 46 40.5 76t35.5 53l157 -93l57 94l100.5 -59.5t81.5 -43.5q-16 -37 -33 -70t-38 -67z" />
    <glyph glyph-name="uni064A0646.fina" unicode="&#xfef4;&#xfee6;" horiz-adv-x="1362" 
d="M1362 350q-44 0 -78.5 2.5t-61.5 14.5t-45.5 37.5t-29.5 70.5q-15 65 -30.5 124.5l-32.5 122.5h-3q-8 -31 -20.5 -58t-32.5 -47.5t-49.5 -33t-71.5 -13.5l4 -101q0 -152 -163 -275q-161 -123 -357 -123q-70 0 -126.5 23t-96 65t-61 101.5t-21.5 132.5q0 35 6 77.5
t19 90.5q27 95 61 158q22 37 33 37q8 0 8 -17q0 -6 -2.5 -18t-7.5 -31l-10 -35l-13 -37q-14 -48 -21 -87.5t-7 -71.5q0 -50 19.5 -91.5t54 -71.5t82.5 -46.5t104 -16.5q60 0 120 14t116 39.5t105.5 62t88.5 81.5q0 22 -9 53.5t-25 67t-37 73t-45 73.5q14 57 27.5 91t26.5 52
h3l12 -18.5l22 -33.5l23 -33t21 -23.5t24.5 -14t32.5 -4.5q24 0 47 5t41 14t30 21.5t15 27.5q6 31 14.5 58t17 48.5t15.5 35.5t10 19q2 2 4 2t3 -2q7 -21 20.5 -72t28.5 -123q7 -33 14.5 -65l14.5 -59.5t14 -48t12 -29.5q17 -30 53.5 -39t89.5 -9v-147zM490 901l-191 104
q19 38 37 70l35 61q92 -45 184 -98q-12 -35 -28.5 -69t-36.5 -68zM992 -50l-55 -96l-180 107q23 46 40.5 76t35.5 53l157 -93l57 94l100.5 -59.5t81.5 -43.5q-16 -37 -33 -70t-38 -67z" />
    <glyph glyph-name="uniFDF2" unicode="&#x627;&#xfedf;&#xfee0;&#xfeea;" horiz-adv-x="1624" arabic-form="isolated" 
d="M717 1022q10 -29 20.5 -67l21 -78.5t20 -82l18 -78.5t16 -66t13.5 -46q20 -64 63.5 -93.5t106.5 -29.5q35 0 50 13t7 44l-107 410v1q0 5 7 23t19 41t26.5 46.5t29.5 39.5q22 -99 42 -179.5l40 -153.5q18 -69 26.5 -108.5t8.5 -53.5q0 -50 -5 -98.5t-19.5 -86.5
t-40.5 -61.5t-68 -23.5q-69 0 -114 12.5t-65 29.5q-5 4 -13 16t-16.5 30.5t-16 42.5t-11.5 52l-8 1q-3 -18 -8.5 -40.5t-12.5 -44.5t-15.5 -41.5t-17.5 -31.5q-6 -8 -20.5 -14.5t-33.5 -11.5t-39.5 -8t-39.5 -3q-38 0 -67 6.5t-50 23t-33.5 44.5t-17.5 70
q-25 -36 -40.5 -55.5t-19.5 -21.5q-13 -7 -44.5 -12t-65.5 -5q-30 0 -56 7.5t-46 20t-31.5 28.5t-11.5 33q0 35 19 82t47 87q10 15 30 34t46 39t55.5 40t58.5 36l-11 43q4 8 11.5 19t17.5 22.5l20.5 23.5t20.5 22q10 -47 17 -86.5l14.5 -80t17 -86t23.5 -103.5
q4 -16 10.5 -30.5t19.5 -25t34 -16.5t54 -6q60 0 89.5 23t29.5 67q0 31 -10 77t-22 93l-22.5 90.5t-12.5 70.5q14 37 29.5 69t32.5 56zM795 1350q5 -32 17.5 -66t12.5 -65q0 -20 -4 -42.5t-13.5 -41.5t-25 -32t-38.5 -13q-20 0 -41 8.5t-39 20.5q-31 -26 -54 -38.5
t-46 -12.5q-21 0 -35.5 7.5t-23.5 20t-13 28t-4 32.5t3.5 36.5t11 39t19.5 37.5t28 33l4 -2q-2 -28 -9 -52.5t-7 -50.5q0 -18 10 -26.5t24 -8.5q22 0 39.5 10t17.5 42q0 14 1 28t4 32q15 20 37 35l7 -47.5t7 -35.5q7 -26 24 -36t41 -10q27 0 27 13q0 5 -3.5 15.5l-7.5 22.5
t-7.5 24t-3.5 20q0 9 2 17t6 16t11 18.5t18 24.5zM407 522l-31 158q-18 -7 -48.5 -22t-60 -34t-51 -40t-21.5 -39q0 -15 31 -27t83 -12q13 0 28.5 1t29.5 3t24.5 5t15.5 7zM620 1327q0 5 0.5 9t0.5 9q0 42 -10.5 80.5t-30.5 83.5q11 22 22.5 41t29.5 39q16 -43 27 -87
t11 -76q0 -21 -4 -35.5t-10.5 -26t-15.5 -20.5t-19 -18zM1347 1345l131 162q8 -97 13 -169t10 -120q17 -207 25 -347.5t8 -219.5l-2 -78q0 -71 -6 -98q-4 -12 -14 -31t-27 -45q-20 -31 -37.5 -51t-32.5 -31l2 158q0 71 -11 222t-34 386l-12 133q-2 14 -5 46z" />
    <glyph glyph-name="uni064406440647" unicode="&#xfedf;&#xfee0;&#xfeea;" horiz-adv-x="1245" 
d="M717 1022q10 -29 20.5 -67l21 -78.5t20 -82l18 -78.5t16 -66t13.5 -46q20 -64 63.5 -93.5t106.5 -29.5q35 0 50 13t7 44l-107 410v1q0 5 7 23t19 41t26.5 46.5t29.5 39.5q22 -99 42 -179.5l40 -153.5q18 -69 26.5 -108.5t8.5 -53.5q0 -50 -5 -98.5t-19.5 -86.5
t-40.5 -61.5t-68 -23.5q-69 0 -114 12.5t-65 29.5q-5 4 -13 16t-16.5 30.5t-16 42.5t-11.5 52l-8 1q-3 -18 -8.5 -40.5t-12.5 -44.5t-15.5 -41.5t-17.5 -31.5q-6 -8 -20.5 -14.5t-33.5 -11.5t-39.5 -8t-39.5 -3q-38 0 -67 6.5t-50 23t-33.5 44.5t-17.5 70
q-25 -36 -40.5 -55.5t-19.5 -21.5q-13 -7 -44.5 -12t-65.5 -5q-30 0 -56 7.5t-46 20t-31.5 28.5t-11.5 33q0 35 19 82t47 87q10 15 30 34t46 39t55.5 40t58.5 36l-11 43q4 8 11.5 19t17.5 22.5l20.5 23.5t20.5 22q10 -47 17 -86.5l14.5 -80t17 -86t23.5 -103.5
q4 -16 10.5 -30.5t19.5 -25t34 -16.5t54 -6q60 0 89.5 23t29.5 67q0 31 -10 77t-22 93l-22.5 90.5t-12.5 70.5q14 37 29.5 69t32.5 56zM795 1350q5 -32 17.5 -66t12.5 -65q0 -20 -4 -42.5t-13.5 -41.5t-25 -32t-38.5 -13q-20 0 -41 8.5t-39 20.5q-31 -26 -54 -38.5
t-46 -12.5q-21 0 -35.5 7.5t-23.5 20t-13 28t-4 32.5t3.5 36.5t11 39t19.5 37.5t28 33l4 -2q-2 -28 -9 -52.5t-7 -50.5q0 -18 10 -26.5t24 -8.5q22 0 39.5 10t17.5 42q0 14 1 28t4 32q15 20 37 35l7 -47.5t7 -35.5q7 -26 24 -36t41 -10q27 0 27 13q0 5 -3.5 15.5l-7.5 22.5
t-7.5 24t-3.5 20q0 9 2 17t6 16t11 18.5t18 24.5zM407 522l-31 158q-18 -7 -48.5 -22t-60 -34t-51 -40t-21.5 -39q0 -15 31 -27t83 -12q13 0 28.5 1t29.5 3t24.5 5t15.5 7zM620 1327q0 5 0.5 9t0.5 9q0 42 -10.5 80.5t-30.5 83.5q11 22 22.5 41t29.5 39q16 -43 27 -87
t11 -76q0 -21 -4 -35.5t-10.5 -26t-15.5 -20.5t-19 -18z" />
    <glyph glyph-name="uniFE82" unicode="&#x622;" horiz-adv-x="408" arabic-form="final" 
d="M96 1364l133 143q0 -222 33 -778l8 -129q2 -34 9 -55.5t18 -30.5q11 -8 38.5 -12.5t72.5 -4.5v-147q-162 0 -201 41q-40 40 -55 225l-9 86q-3 38 -7.5 104.5l-10.5 161.5q-6 98 -13.5 197zM441 1792q-13 -44 -34 -80t-53 -61.5t-76.5 -39.5t-102.5 -14q-14 0 -33 1.5
t-33 1.5q-50 0 -87.5 -20.5t-54.5 -68.5l-2 -1q-18 8 -27.5 28.5t-9.5 40.5q0 32 12.5 57.5t33.5 43.5t48.5 28t57.5 10q31 0 63.5 -4.5t64.5 -4.5q31 0 62 4.5t58.5 17t50 35t37.5 59.5z" />
    <glyph glyph-name="uniFE84" unicode="&#x623;" horiz-adv-x="408" arabic-form="final" 
d="M96 1384l133 143q0 -222 33 -778l8 -129q2 -34 9 -55.5t18 -30.5q11 -8 38.5 -12.5t72.5 -4.5v-147q-162 0 -201 41q-40 40 -55 225l-9 86q-3 38 -7.5 104.5l-10.5 161.5q-6 98 -13.5 197zM360 1726q-8 -30 -15.5 -53.5t-14.5 -39.5l-118 -42t-86.5 -35.5t-66.5 -38
t-56 -48.5v17q0 20 1.5 38.5t8.5 33.5q5 14 17 26l26 25q-30 23 -48 47.5t-18 62.5q0 27 14.5 57.5t40 57t60 44t75.5 17.5q16 0 31.5 -4t28 -12.5t20 -20.5t7.5 -27q0 -13 -9.5 -28t-28.5 -25q-38 33 -87 33q-29 0 -51 -11t-22 -40q0 -17 10.5 -32.5t26 -28.5t34 -20.5
t35.5 -7.5q11 0 33 5.5t48.5 13.5t54 18z" />
    <glyph glyph-name="uniFE86" unicode="&#x624;" horiz-adv-x="805" arabic-form="final" 
d="M694 320q-149 10 -220.5 52.5t-71.5 134.5q0 57 18.5 114t48 102.5t67 74.5t76.5 29t73 -29.5t63 -85.5q27 -54 42 -115.5t15 -135.5q0 -138 -50.5 -248.5t-150.5 -198.5q-116 -100 -235 -100q-165 0 -297 170q-72 90 -72 127q0 10 6 10l2 2h2q6 -2 14 -8.5t19 -20.5
q22 -31 52.5 -55.5t66.5 -42t75.5 -26.5t79.5 -9q129 0 226 66.5t151 192.5zM715 466q1 15 -11.5 48.5t-34.5 68t-50.5 60.5t-57.5 26q-17 0 -31.5 -8t-25 -20.5t-16.5 -28t-6 -31.5q0 -20 13.5 -40.5t42 -37t72.5 -27t105 -10.5zM725 1188q-8 -30 -15.5 -53.5t-14.5 -39.5
l-118 -42t-86.5 -35.5t-66.5 -38t-56 -48.5v17q0 20 1.5 38.5t8.5 33.5q5 14 17 26l26 25q-30 23 -48 47.5t-18 62.5q0 27 14.5 57.5t40 57t60 44t75.5 17.5q16 0 31.5 -4t28 -12.5t20 -20.5t7.5 -27q0 -13 -9.5 -28t-28.5 -25q-38 33 -87 33q-29 0 -51 -11t-22 -40
q0 -17 10.5 -32.5t26 -28.5t34 -20.5t35.5 -7.5q11 0 33 5.5t48.5 13.5t54 18z" />
    <glyph glyph-name="uniFE88" unicode="&#x625;" horiz-adv-x="492" arabic-form="final" 
d="M96 1364l133 143q0 -222 33 -778l8 -129q3 -73 37 -88t185 -15v-147q-222 0 -273 39q-52 40 -67 227l-9 86q-3 38 -7.5 104.5l-10.5 161.5q-6 98 -13.5 197zM475 96q-8 -30 -15.5 -53.5t-14.5 -39.5l-118 -42t-86.5 -35.5t-66.5 -38t-56 -48.5v17q0 20 1.5 38.5t8.5 33.5
q5 14 17 26l26 25q-30 23 -48 47.5t-18 62.5q0 27 14.5 57.5t40 57t60 44t75.5 17.5q16 0 31.5 -4t28 -12.5t20 -20.5t7.5 -27q0 -13 -9.5 -28t-28.5 -25q-38 33 -87 33q-29 0 -51 -11t-22 -40q0 -17 10.5 -32.5t26 -28.5t34 -20.5t35.5 -7.5q11 0 33 5.5t48.5 13.5t54 18z
" />
    <glyph glyph-name="uniFE8B" unicode="&#x626;" horiz-adv-x="649" arabic-form="initial" 
d="M416 892q31 -49 58 -96.5t46.5 -97.5t31 -105.5t11.5 -119.5q0 -83 -51 -111q-51 -26 -205 -26q-96 0 -171.5 4.5t-145.5 9.5q-25 0 -34 15t-9 59t8.5 58.5t34.5 14.5q8 0 31.5 -1t54.5 -2.5t67 -3.5t69 -3.5t60.5 -2.5t42.5 -1q109 0 129 21q-3 27 -12.5 54.5
t-23.5 54.5t-31 54l-35 53q14 43 32.5 86t41.5 86zM462 1175q-8 -30 -15.5 -53.5t-14.5 -39.5l-118 -42t-86.5 -35.5t-66.5 -38t-56 -48.5v17q0 20 1.5 38.5t8.5 33.5q5 14 17 26l26 25q-30 23 -48 47.5t-18 62.5q0 27 14.5 57.5t40 57t60 44t75.5 17.5q16 0 31.5 -4
t28 -12.5t20 -20.5t7.5 -27q0 -13 -9.5 -28t-28.5 -25q-38 33 -87 33q-29 0 -51 -11t-22 -40q0 -17 10.5 -32.5t26 -28.5t34 -20.5t35.5 -7.5q11 0 33 5.5t48.5 13.5t54 18z" />
    <glyph glyph-name="uniFE8C" unicode="&#x626;" horiz-adv-x="563" arabic-form="medial" 
d="M416 892q31 -49 58 -96.5t46.5 -97.5t31 -105.5t11.5 -119.5q0 -83 -51 -111q-51 -26 -205 -26q-96 0 -171.5 4.5t-145.5 9.5q-25 0 -34 15t-9 59t8.5 58.5t34.5 14.5q8 0 31.5 -1t54.5 -2.5t67 -3.5t69 -3.5t60.5 -2.5t42.5 -1q109 0 129 21q-3 27 -12.5 54.5
t-23.5 54.5t-31 54l-35 53q14 43 32.5 86t41.5 86zM462 1175q-8 -30 -15.5 -53.5t-14.5 -39.5l-118 -42t-86.5 -35.5t-66.5 -38t-56 -48.5v17q0 20 1.5 38.5t8.5 33.5q5 14 17 26l26 25q-30 23 -48 47.5t-18 62.5q0 27 14.5 57.5t40 57t60 44t75.5 17.5q16 0 31.5 -4
t28 -12.5t20 -20.5t7.5 -27q0 -13 -9.5 -28t-28.5 -25q-38 33 -87 33q-29 0 -51 -11t-22 -40q0 -17 10.5 -32.5t26 -28.5t34 -20.5t35.5 -7.5q11 0 33 5.5t48.5 13.5t54 18z" />
    <glyph glyph-name="uniFE8A" unicode="&#x626;" horiz-adv-x="1094" arabic-form="final" 
d="M1094 497v-147h-144q-46 0 -80.5 -7t-57 -16.5t-34 -19.5t-11.5 -16q0 -12 17.5 -21.5t48.5 -18t72.5 -16l89.5 -15.5q29 -5 37.5 -17t8.5 -22q0 -25 -4 -53.5t-11 -54.5t-15.5 -46.5t-18.5 -29.5q-51 -47 -117 -84.5t-137 -63.5t-141.5 -40t-130.5 -14q-86 0 -156 21.5
t-119 64.5t-75.5 108t-26.5 152q0 37 7.5 79.5t21 85.5t33 85t42.5 78q20 31 34 31q10 0 10 -13q0 -9 -11 -31q-36 -75 -48 -134.5t-12 -106.5q0 -69 25 -120t68 -84t100.5 -49.5t123.5 -16.5q55 0 111.5 11t112.5 30.5t111 45.5t108 56v8q-87 9 -140 22.5t-81.5 30
t-38.5 35t-10 36.5q0 12 6.5 37t21 55.5t39 63.5t60.5 59.5t84 44t110 17.5h117zM446 819q-8 -30 -16.5 -55.5l-13.5 -40.5l-116.5 -37.5t-84 -31.5t-66.5 -35.5t-63 -50.5q-2 28 0 48.5t10 38.5q5 14 18 26.5t28 24.5q-33 21 -51.5 43.5t-18.5 59.5q0 26 13.5 56t38.5 55
t60.5 41.5t79.5 16.5q35 0 61.5 -15.5t26.5 -44.5q0 -12 -9 -28t-26 -24q-19 14 -40 23t-47 9q-15 0 -29 -3t-25 -9t-17.5 -15.5t-6.5 -22.5q0 -17 11.5 -32.5t28 -27t36 -18.5t36.5 -7q22 0 72 16t110 40z" />
    <glyph glyph-name="uniFE8E" unicode="&#x627;" horiz-adv-x="408" arabic-form="final" 
d="M96 1364l133 143q0 -222 33 -778l8 -129q2 -34 9 -55.5t18 -30.5q11 -8 38.5 -12.5t72.5 -4.5v-147q-162 0 -201 41q-40 40 -55 225l-9 86q-3 38 -7.5 104.5l-10.5 161.5q-6 98 -13.5 197z" />
    <glyph glyph-name="uniFE91" unicode="&#x628;" horiz-adv-x="649" arabic-form="initial" 
d="M416 892q31 -49 58 -96.5t46.5 -97.5t31 -105.5t11.5 -119.5q0 -83 -51 -111q-51 -26 -205 -26q-96 0 -171.5 4.5t-145.5 9.5q-25 0 -34 15t-9 59t8.5 58.5t34.5 14.5q8 0 31.5 -1t54.5 -2.5t67 -3.5t69 -3.5t60.5 -2.5t42.5 -1q109 0 129 21q-3 27 -12.5 54.5
t-23.5 54.5t-31 54l-35 53q14 43 32.5 86t41.5 86zM355 -138l-191 104q19 38 37 70l35 61q92 -45 184 -98q-12 -35 -28.5 -69t-36.5 -68z" />
    <glyph glyph-name="uniFE92" unicode="&#x628;" horiz-adv-x="563" arabic-form="medial" 
d="M416 892q31 -49 58 -96.5t46.5 -97.5t31 -105.5t11.5 -119.5q0 -83 -51 -111q-51 -26 -205 -26q-96 0 -171.5 4.5t-145.5 9.5q-25 0 -34 15t-9 59t8.5 58.5t34.5 14.5q8 0 31.5 -1t54.5 -2.5t67 -3.5t69 -3.5t60.5 -2.5t42.5 -1q109 0 129 21q-3 27 -12.5 54.5
t-23.5 54.5t-31 54l-35 53q14 43 32.5 86t41.5 86zM355 -138l-191 104q19 38 37 70l35 61q92 -45 184 -98q-12 -35 -28.5 -69t-36.5 -68z" />
    <glyph glyph-name="uniFE90" unicode="&#x628;" horiz-adv-x="1210" arabic-form="final" 
d="M1036 655q16 51 36.5 98t35.5 73q51 -71 76.5 -160t25.5 -177q0 -97 -49 -129q-25 -16 -69.5 -30t-101 -25.5t-121 -20.5t-128 -15t-122.5 -9.5t-105 -3.5q-99 0 -177.5 17t-132.5 48.5t-83 77.5t-29 105t31 137q33 83 61 92l2 2q2 0 4 -2h3l2 -2v-4q0 -15 -7 -35
q-18 -59 -18 -115q0 -43 20 -73t64 -49t113 -28t168 -9q98 0 194.5 6.5t178.5 17t141 23.5t82 26q-2 19 -11 41t-22 44t-29.5 42.5t-32.5 36.5zM717 -163l-191 104q19 38 37 70l35 61q92 -45 184 -98q-12 -35 -28.5 -69t-36.5 -68z" />
    <glyph glyph-name="uniFE94" unicode="&#x629;" horiz-adv-x="678" arabic-form="final" 
d="M426 866q-48 -21 -92.5 -43t-78.5 -42.5t-54.5 -39.5t-20.5 -35q0 -17 14 -29t36 -20t48 -12t50 -4q43 0 73 5t39 17q-5 54 -8.5 103t-5.5 100zM678 350q-51 0 -89.5 7.5t-66 29.5t-44 63t-23.5 109l-41 -49q-6 -6 -35.5 -12.5t-71.5 -6.5q-32 0 -71.5 6t-74 20t-58 36.5
t-23.5 56.5q0 23 11 56t30 79q17 43 38.5 74t54.5 58t81.5 53.5t118.5 60.5l-2 72l104 106q-2 -32 -2 -63v-58q0 -21 1 -57t3.5 -79t5.5 -89.5t7 -88.5t9 -77t11 -55q11 -50 41 -77.5t86 -27.5v-147zM388 1357l-55 -96l-180 107q23 46 40.5 76t35.5 53l157 -93l57 94
l100.5 -59.5t81.5 -43.5q-16 -37 -33 -70t-38 -67z" />
    <glyph glyph-name="uniFE97" unicode="&#x62a;" horiz-adv-x="662" arabic-form="initial" 
d="M416 892q31 -49 58 -96.5t46.5 -97.5t31 -105.5t11.5 -119.5q0 -83 -51 -111q-51 -26 -205 -26q-96 0 -171.5 4.5t-145.5 9.5q-25 0 -34 15t-9 59t8.5 58.5t34.5 14.5q8 0 31.5 -1t54.5 -2.5t67 -3.5t69 -3.5t60.5 -2.5t42.5 -1q109 0 129 21q-3 27 -12.5 54.5
t-23.5 54.5t-31 54l-35 53q14 43 32.5 86t41.5 86zM280 1148l-55 -96l-180 107q23 46 40.5 76t35.5 53l157 -93l57 94l100.5 -59.5t81.5 -43.5q-16 -37 -33 -70t-38 -67z" />
    <glyph glyph-name="uniFE98" unicode="&#x62a;" horiz-adv-x="563" arabic-form="medial" 
d="M416 892q31 -49 58 -96.5t46.5 -97.5t31 -105.5t11.5 -119.5q0 -83 -51 -111q-51 -26 -205 -26q-96 0 -171.5 4.5t-145.5 9.5q-25 0 -34 15t-9 59t8.5 58.5t34.5 14.5q8 0 31.5 -1t54.5 -2.5t67 -3.5t69 -3.5t60.5 -2.5t42.5 -1q109 0 129 21q-3 27 -12.5 54.5
t-23.5 54.5t-31 54l-35 53q14 43 32.5 86t41.5 86zM280 1148l-55 -96l-180 107q23 46 40.5 76t35.5 53l157 -93l57 94l100.5 -59.5t81.5 -43.5q-16 -37 -33 -70t-38 -67z" />
    <glyph glyph-name="uniFE96" unicode="&#x62a;" horiz-adv-x="1210" arabic-form="final" 
d="M1036 655q16 51 36.5 98t35.5 73q51 -71 76.5 -160t25.5 -177q0 -97 -49 -129q-25 -16 -69.5 -30t-101 -25.5t-121 -20.5t-128 -15t-122.5 -9.5t-105 -3.5q-99 0 -177.5 17t-132.5 48.5t-83 77.5t-29 105t31 137q33 83 61 92l2 2q2 0 4 -2h3l2 -2v-4q0 -15 -7 -35
q-18 -59 -18 -115q0 -43 20 -73t64 -49t113 -28t168 -9q98 0 194.5 6.5t178.5 17t141 23.5t82 26q-2 19 -11 41t-22 44t-29.5 42.5t-32.5 36.5zM634 883l-55 -96l-180 107q23 46 40.5 76t35.5 53l157 -93l57 94l100.5 -59.5t81.5 -43.5q-16 -37 -33 -70t-38 -67z" />
    <glyph glyph-name="uniFE9B" unicode="&#x62b;" horiz-adv-x="662" arabic-form="initial" 
d="M416 892q31 -49 58 -96.5t46.5 -97.5t31 -105.5t11.5 -119.5q0 -83 -51 -111q-51 -26 -205 -26q-96 0 -171.5 4.5t-145.5 9.5q-25 0 -34 15t-9 59t8.5 58.5t34.5 14.5q8 0 31.5 -1t54.5 -2.5t67 -3.5t69 -3.5t60.5 -2.5t42.5 -1q109 0 129 21q-3 27 -12.5 54.5
t-23.5 54.5t-31 54l-35 53q14 43 32.5 86t41.5 86zM225 1034l-186 110q20 42 39 73t36 54l166 -94l58 94l20 -12l89.5 -54t70.5 -38q-14 -32 -31.5 -65t-40.5 -68l-160 96zM252 1273l-170 99l10 20q18 32 33.5 56.5t27.5 41.5l35 -18l68.5 -37l62.5 -35q-11 -26 -27.5 -58
t-39.5 -69z" />
    <glyph glyph-name="uniFE9C" unicode="&#x62b;" horiz-adv-x="563" arabic-form="medial" 
d="M416 892q31 -49 58 -96.5t46.5 -97.5t31 -105.5t11.5 -119.5q0 -83 -51 -111q-51 -26 -205 -26q-96 0 -171.5 4.5t-145.5 9.5q-25 0 -34 15t-9 59t8.5 58.5t34.5 14.5q8 0 31.5 -1t54.5 -2.5t67 -3.5t69 -3.5t60.5 -2.5t42.5 -1q109 0 129 21q-3 27 -12.5 54.5
t-23.5 54.5t-31 54l-35 53q14 43 32.5 86t41.5 86zM225 1034l-186 110q20 42 39 73t36 54l166 -94l58 94l20 -12l89.5 -54t70.5 -38q-14 -32 -31.5 -65t-40.5 -68l-160 96zM252 1273l-170 99l10 20q18 32 33.5 56.5t27.5 41.5l35 -18l68.5 -37l62.5 -35q-11 -26 -27.5 -58
t-39.5 -69z" />
    <glyph glyph-name="uniFE9A" unicode="&#x62b;" horiz-adv-x="1210" arabic-form="final" 
d="M1036 655q16 51 36.5 98t35.5 73q51 -71 76.5 -160t25.5 -177q0 -97 -49 -129q-25 -16 -69.5 -30t-101 -25.5t-121 -20.5t-128 -15t-122.5 -9.5t-105 -3.5q-99 0 -177.5 17t-132.5 48.5t-83 77.5t-29 105t31 137q33 83 61 92l2 2q2 0 4 -2h3l2 -2v-4q0 -15 -7 -35
q-18 -59 -18 -115q0 -43 20 -73t64 -49t113 -28t168 -9q98 0 194.5 6.5t178.5 17t141 23.5t82 26q-2 19 -11 41t-22 44t-29.5 42.5t-32.5 36.5zM583 790l-186 110q20 42 39 73t36 54l166 -94l58 94l20 -12l89.5 -54t70.5 -38q-14 -32 -31.5 -65t-40.5 -68l-160 96zM610 1029
l-170 99l10 20q18 32 33.5 56.5t27.5 41.5l35 -18l68.5 -37l62.5 -35q-11 -26 -27.5 -58t-39.5 -69z" />
    <glyph glyph-name="uniFE9F" unicode="&#x62c;" horiz-adv-x="1221" arabic-form="initial" 
d="M1151 571q-3 -77 -29 -149l-194.5 -25t-164.5 -19t-154.5 -13.5t-165 -8.5t-196 -4.5t-247.5 -1.5q-16 0 -26.5 3.5t-16.5 12t-8 22.5t-2 36q0 24 1.5 38.5t7 22t16 10t28.5 2.5q149 0 260 -0.5t201 2t167 9t158 20.5v10l-140.5 87t-98.5 51q-77 30 -148 30
q-45 0 -147 -47q-23 -10 -33 -10h-4l-2 2v4q79 184 244 184q33 0 66.5 -6.5t73 -21.5t88 -40t110.5 -63q80 -48 132.5 -76.5t78.5 -39.5q26 -13 65.5 -18.5t79.5 -2.5zM576 -127l-191 104q19 38 37 70l35 61q92 -45 184 -98q-12 -35 -28.5 -69t-36.5 -68z" />
    <glyph glyph-name="uniFEA0" unicode="&#x62c;" horiz-adv-x="1139" arabic-form="medial" 
d="M1139 498v-148q-54 -1 -120 -3t-137 -3.5l-145 -3t-146 -1.5q-48 0 -103.5 1l-113.5 2t-115.5 2.5t-108.5 2.5t-92.5 2t-67.5 1q-25 0 -34 15t-9 59q0 23 1.5 37.5t6.5 22.5t16 11t29 3q97 -3 188.5 -5.5t186 -4.5t195.5 -3.5t217 -1.5v11q-81 64 -141 106t-100 64
q-77 43 -146 43q-49 0 -149 -48q-24 -11 -31 -11q-4 0 -6 2.5t-1 4.5q80 185 244 185q66 0 139 -37q37 -18 86.5 -50.5t112.5 -80.5l133.5 -98t78.5 -50q54 -26 132 -26zM576 -137l-191 104q19 38 37 70l35 61q92 -45 184 -98q-12 -35 -28.5 -69t-36.5 -68z" />
    <glyph glyph-name="uniFE9E" unicode="&#x62c;" horiz-adv-x="1064" arabic-form="final" 
d="M978 778q3 0 6.5 -2t3.5 -8q0 -1 -4.5 -13t-12 -29t-17.5 -36.5t-21.5 -35.5t-24 -27t-23.5 -11h-28q-4 -4 -4 -14q0 -33 17 -53.5t42.5 -32t54.5 -15.5t54 -4h43v-147h-78q-103 0 -157 37t-54 119q0 44 18 106q-69 -1 -142.5 -14.5t-143.5 -39.5t-132.5 -64.5
t-109 -89.5t-74 -115.5t-27.5 -141.5q0 -64 21.5 -111t58 -80.5t85 -55t103 -33.5t111.5 -16.5t110 -4.5q96 0 189 13.5t184 32.5q17 3 17 -10q0 -5 -4 -9q-114 -91 -236.5 -140t-267.5 -49q-95 0 -176.5 27t-141.5 79.5t-94 131t-34 181.5q0 121 39 219.5t108.5 174
t165 127.5t208.5 79v4q-32 13 -68.5 29.5t-75.5 31t-77.5 24.5t-72.5 10q-45 0 -93.5 -15t-105.5 -64q-5 -4 -10 -7.5t-11 -3.5q-5 0 -7.5 4t-2.5 9q0 8 4 16q24 55 50 94.5t56.5 65.5t67.5 38.5t83 12.5q62 0 128.5 -26.5t138.5 -59.5l76.5 -35t77.5 -30.5t78 -22t78 -8.5
q16 0 28.5 2.5t25.5 5.5zM627 84l-191 104q19 38 37 70l35 61q92 -45 184 -98q-12 -35 -28.5 -69t-36.5 -68z" />
    <glyph glyph-name="uniFEA3" unicode="&#x62d;" horiz-adv-x="1221" arabic-form="initial" 
d="M1151 571q-3 -77 -29 -149l-194.5 -25t-164.5 -19t-154.5 -13.5t-165 -8.5t-196 -4.5t-247.5 -1.5q-16 0 -26.5 3.5t-16.5 12t-8 22.5t-2 36q0 24 1.5 38.5t7 22t16 10t28.5 2.5q149 0 260 -0.5t201 2t167 9t158 20.5v10l-140.5 87t-98.5 51q-77 30 -148 30
q-45 0 -147 -47q-23 -10 -33 -10h-4l-2 2v4q79 184 244 184q33 0 66.5 -6.5t73 -21.5t88 -40t110.5 -63q80 -48 132.5 -76.5t78.5 -39.5q26 -13 65.5 -18.5t79.5 -2.5z" />
    <glyph glyph-name="uniFEA4" unicode="&#x62d;" horiz-adv-x="1139" arabic-form="medial" 
d="M1139 498v-148q-54 -1 -120 -3t-137 -3.5l-145 -3t-146 -1.5q-48 0 -103.5 1l-113.5 2t-115.5 2.5t-108.5 2.5t-92.5 2t-67.5 1q-25 0 -34 15t-9 59q0 23 1.5 37.5t6.5 22.5t16 11t29 3q97 -3 188.5 -5.5t186 -4.5t195.5 -3.5t217 -1.5v11q-81 64 -141 106t-100 64
q-77 43 -146 43q-49 0 -149 -48q-24 -11 -31 -11q-4 0 -6 2.5t-1 4.5q80 185 244 185q66 0 139 -37q37 -18 86.5 -50.5t112.5 -80.5l133.5 -98t78.5 -50q54 -26 132 -26z" />
    <glyph glyph-name="uniFEA2" unicode="&#x62d;" horiz-adv-x="1064" arabic-form="final" 
d="M978 778q3 0 6.5 -2t3.5 -8q0 -1 -4.5 -13t-12 -29t-17.5 -36.5t-21.5 -35.5t-24 -27t-23.5 -11h-28q-4 -4 -4 -14q0 -33 17 -53.5t42.5 -32t54.5 -15.5t54 -4h43v-147h-78q-103 0 -157 37t-54 119q0 44 18 106q-69 -1 -142.5 -14.5t-143.5 -39.5t-132.5 -64.5
t-109 -89.5t-74 -115.5t-27.5 -141.5q0 -64 21.5 -111t58 -80.5t85 -55t103 -33.5t111.5 -16.5t110 -4.5q96 0 189 13.5t184 32.5q17 3 17 -10q0 -5 -4 -9q-114 -91 -236.5 -140t-267.5 -49q-95 0 -176.5 27t-141.5 79.5t-94 131t-34 181.5q0 121 39 219.5t108.5 174
t165 127.5t208.5 79v4q-32 13 -68.5 29.5t-75.5 31t-77.5 24.5t-72.5 10q-45 0 -93.5 -15t-105.5 -64q-5 -4 -10 -7.5t-11 -3.5q-5 0 -7.5 4t-2.5 9q0 8 4 16q24 55 50 94.5t56.5 65.5t67.5 38.5t83 12.5q62 0 128.5 -26.5t138.5 -59.5l76.5 -35t77.5 -30.5t78 -22t78 -8.5
q16 0 28.5 2.5t25.5 5.5z" />
    <glyph glyph-name="uniFEA7" unicode="&#x62e;" horiz-adv-x="1221" arabic-form="initial" 
d="M1151 571q-3 -77 -29 -149l-194.5 -25t-164.5 -19t-154.5 -13.5t-165 -8.5t-196 -4.5t-247.5 -1.5q-16 0 -26.5 3.5t-16.5 12t-8 22.5t-2 36q0 24 1.5 38.5t7 22t16 10t28.5 2.5q149 0 260 -0.5t201 2t167 9t158 20.5v10l-140.5 87t-98.5 51q-77 30 -148 30
q-45 0 -147 -47q-23 -10 -33 -10h-4l-2 2v4q79 184 244 184q33 0 66.5 -6.5t73 -21.5t88 -40t110.5 -63q80 -48 132.5 -76.5t78.5 -39.5q26 -13 65.5 -18.5t79.5 -2.5zM584 1118l-191 104q19 38 37 70l35 61q92 -45 184 -98q-12 -35 -28.5 -69t-36.5 -68z" />
    <glyph glyph-name="uniFEA8" unicode="&#x62e;" horiz-adv-x="1139" arabic-form="medial" 
d="M1139 498v-148q-54 -1 -120 -3t-137 -3.5l-145 -3t-146 -1.5q-48 0 -103.5 1l-113.5 2t-115.5 2.5t-108.5 2.5t-92.5 2t-67.5 1q-25 0 -34 15t-9 59q0 23 1.5 37.5t6.5 22.5t16 11t29 3q97 -3 188.5 -5.5t186 -4.5t195.5 -3.5t217 -1.5v11q-81 64 -141 106t-100 64
q-77 43 -146 43q-49 0 -149 -48q-24 -11 -31 -11q-4 0 -6 2.5t-1 4.5q80 185 244 185q66 0 139 -37q37 -18 86.5 -50.5t112.5 -80.5l133.5 -98t78.5 -50q54 -26 132 -26zM584 1118l-191 104q19 38 37 70l35 61q92 -45 184 -98q-12 -35 -28.5 -69t-36.5 -68z" />
    <glyph glyph-name="uniFEA6" unicode="&#x62e;" horiz-adv-x="1064" arabic-form="final" 
d="M978 778q3 0 6.5 -2t3.5 -8q0 -1 -4.5 -13t-12 -29t-17.5 -36.5t-21.5 -35.5t-24 -27t-23.5 -11h-28q-4 -4 -4 -14q0 -33 17 -53.5t42.5 -32t54.5 -15.5t54 -4h43v-147h-78q-103 0 -157 37t-54 119q0 44 18 106q-69 -1 -142.5 -14.5t-143.5 -39.5t-132.5 -64.5
t-109 -89.5t-74 -115.5t-27.5 -141.5q0 -64 21.5 -111t58 -80.5t85 -55t103 -33.5t111.5 -16.5t110 -4.5q96 0 189 13.5t184 32.5q17 3 17 -10q0 -5 -4 -9q-114 -91 -236.5 -140t-267.5 -49q-95 0 -176.5 27t-141.5 79.5t-94 131t-34 181.5q0 121 39 219.5t108.5 174
t165 127.5t208.5 79v4q-32 13 -68.5 29.5t-75.5 31t-77.5 24.5t-72.5 10q-45 0 -93.5 -15t-105.5 -64q-5 -4 -10 -7.5t-11 -3.5q-5 0 -7.5 4t-2.5 9q0 8 4 16q24 55 50 94.5t56.5 65.5t67.5 38.5t83 12.5q62 0 128.5 -26.5t138.5 -59.5l76.5 -35t77.5 -30.5t78 -22t78 -8.5
q16 0 28.5 2.5t25.5 5.5zM651 1118l-191 104q19 38 37 70l35 61q92 -45 184 -98q-12 -35 -28.5 -69t-36.5 -68z" />
    <glyph glyph-name="uniFEAA" unicode="&#x62f;" horiz-adv-x="686" arabic-form="final" 
d="M537 1057l20 -69t25 -79q52 -168 78 -275t26 -157q0 -101 -53 -127q-30 -15 -76.5 -25.5t-98 -17.5t-101 -10.5t-85.5 -3.5q-49 0 -83.5 8.5t-56 26.5t-31 46t-9.5 68q0 27 5 54.5t13.5 50.5t20 40t23.5 23h4l2 -2q2 -2 2 -16v-12q0 -6 -2 -17q-2 -9 -2 -17v-16
q0 -76 98 -76q118 0 201.5 14t134.5 40q-34 164 -141 358q12 47 33.5 94t52.5 97z" />
    <glyph glyph-name="uniFEAC" unicode="&#x630;" horiz-adv-x="686" arabic-form="final" 
d="M537 1057l20 -69t25 -79q52 -168 78 -275t26 -157q0 -101 -53 -127q-30 -15 -76.5 -25.5t-98 -17.5t-101 -10.5t-85.5 -3.5q-49 0 -83.5 8.5t-56 26.5t-31 46t-9.5 68q0 27 5 54.5t13.5 50.5t20 40t23.5 23h4l2 -2q2 -2 2 -16v-12q0 -6 -2 -17q-2 -9 -2 -17v-16
q0 -76 98 -76q118 0 201.5 14t134.5 40q-34 164 -141 358q12 47 33.5 94t52.5 97zM434 1183l-191 104q19 38 37 70l35 61q92 -45 184 -98q-12 -35 -28.5 -69t-36.5 -68z" />
    <glyph glyph-name="uniFEAE" unicode="&#x631;" horiz-adv-x="772" arabic-form="final" 
d="M530 633l66 143q176 -164 176 -338q0 -47 -13 -96t-37 -97t-58 -92.5t-76 -81.5q-68 -57 -134 -85.5t-132 -28.5q-54 0 -112.5 27t-123.5 81q-86 71 -86 105q0 10 8 10q24 0 55 -20q97 -56 199 -56q125 0 264 103q34 25 64.5 54t53.5 56.5t36.5 52t13.5 39.5
q0 54 -164 224z" />
    <glyph glyph-name="uniFEB0" unicode="&#x632;" horiz-adv-x="772" arabic-form="final" 
d="M530 633l66 143q176 -164 176 -338q0 -47 -13 -96t-37 -97t-58 -92.5t-76 -81.5q-68 -57 -134 -85.5t-132 -28.5q-54 0 -112.5 27t-123.5 81q-86 71 -86 105q0 10 8 10q24 0 55 -20q97 -56 199 -56q125 0 264 103q34 25 64.5 54t53.5 56.5t36.5 52t13.5 39.5
q0 54 -164 224zM561 973l-191 104q19 38 37 70l35 61q92 -45 184 -98q-12 -35 -28.5 -69t-36.5 -68z" />
    <glyph glyph-name="uniFEB3" unicode="&#x633;" horiz-adv-x="1307" arabic-form="initial" 
d="M147 497q47 0 82.5 0.5t62.5 2.5t46.5 7t33.5 14q20 13 34 56.5t21 112.5l69.5 47.5t76.5 47.5q-4 -38 -12.5 -77.5t-20.5 -76.5t-28 -68.5t-34 -53.5q7 -4 21.5 -6.5t33.5 -4t40.5 -2.5t43.5 -1q51 0 90 5t60 17q11 11 12.5 31t1.5 38t-3 50.5t-8 61.5q30 29 60 54.5
t62 48.5q6 -48 6 -100q0 -51 -7.5 -99t-27.5 -88q8 -3 25 -6.5t38.5 -6.5t46.5 -4.5t49 -1.5q26 0 48.5 2.5t39.5 7.5q6 2 10 8t4 18q0 17 -5 39t-13 46.5t-19 50t-24 49.5q27 35 54 64t51 52q29 -77 40 -149.5t11 -143.5q0 -23 -3.5 -48t-10 -48t-17 -41t-24.5 -26
q-10 -5 -22 -10t-31.5 -8.5t-48.5 -5.5t-72 -2q-31 0 -65 3.5t-64 10.5t-52.5 16.5t-30.5 20.5q-28 -29 -74 -40t-126 -11q-22 0 -49 2.5t-53.5 7.5t-48 14t-31.5 21q-29 -25 -80.5 -35t-132.5 -10h-193q-25 0 -34 15t-9 59q0 31 6 46t12 21q3 3 13 4.5t22 1.5h147z" />
    <glyph glyph-name="uniFEB4" unicode="&#x633;" horiz-adv-x="1219" arabic-form="medial" 
d="M147 497q47 0 82.5 0.5t62.5 2.5t46.5 7t33.5 14q20 13 34 56.5t21 112.5l69.5 47.5t76.5 47.5q-4 -38 -12.5 -77.5t-20.5 -76.5t-28 -68.5t-34 -53.5q7 -4 21.5 -6.5t33.5 -4t40.5 -2.5t43.5 -1q51 0 90 5t60 17q11 11 12.5 31t1.5 38t-3 50.5t-8 61.5q30 29 60 54.5
t62 48.5q6 -48 6 -100q0 -51 -7.5 -99t-27.5 -88q8 -3 25 -6.5t38.5 -6.5t46.5 -4.5t49 -1.5q26 0 48.5 2.5t39.5 7.5q6 2 10 8t4 18q0 17 -5 39t-13 46.5t-19 50t-24 49.5q27 35 54 64t51 52q29 -77 40 -149.5t11 -143.5q0 -23 -3.5 -48t-10 -48t-17 -41t-24.5 -26
q-10 -5 -22 -10t-31.5 -8.5t-48.5 -5.5t-72 -2q-31 0 -65 3.5t-64 10.5t-52.5 16.5t-30.5 20.5q-28 -29 -74 -40t-126 -11q-22 0 -49 2.5t-53.5 7.5t-48 14t-31.5 21q-29 -25 -80.5 -35t-132.5 -10h-193q-25 0 -34 15t-9 59q0 31 6 46t12 21q3 3 13 4.5t22 1.5h147z" />
    <glyph glyph-name="uniFEB2" unicode="&#x633;" horiz-adv-x="1661" arabic-form="final" 
d="M1503 716q27 36 54 64t54 52q13 -41 22.5 -79t15.5 -76t9 -77t3 -82q0 -54 -11 -89t-28 -49q-11 -10 -34 -16t-49.5 -9.5t-53.5 -4.5t-46 -1q-38 0 -68 2t-56 7t-51 14t-52 23q-27 -16 -54.5 -25t-57 -13.5t-60 -5.5t-63.5 -1q0 -79 -64 -225q-100 -93 -227.5 -141
t-269.5 -48q-79 0 -142 19t-107 54.5t-67.5 86.5t-23.5 115q0 100 33.5 194.5t98.5 174.5q27 35 41 35q12 0 12 -12q0 -8 -6.5 -25t-20.5 -43q-2 -2 -3.5 -7t-6.5 -13l-18 -37q-25 -51 -38.5 -98.5t-13.5 -82.5q0 -201 299 -201q64 0 125.5 11t117.5 31t104 48t84 63
q0 36 -6.5 82t-20.5 97.5t-36.5 107.5t-55.5 112l49 68t49 64q21 -42 36 -78t27 -70t22 -67l21 -68q75 0 134.5 4.5t91.5 12.5q9 33 9 86q0 15 -1.5 40.5t-3.5 51.5l115 112q5 -33 6 -56.5t1 -42.5q0 -42 -6.5 -92t-27.5 -99q39 -8 77 -13.5t81 -5.5q12 0 27.5 0.5t30 1.5
t27 3t20.5 5t11 11t3 15q0 32 -14.5 77t-46.5 108z" />
    <glyph glyph-name="uniFEB7" unicode="&#x634;" horiz-adv-x="1307" arabic-form="initial" 
d="M147 497q47 0 82.5 0.5t62.5 2.5t46.5 7t33.5 14q20 13 34 56.5t21 112.5l69.5 47.5t76.5 47.5q-4 -38 -12.5 -77.5t-20.5 -76.5t-28 -68.5t-34 -53.5q7 -4 21.5 -6.5t33.5 -4t40.5 -2.5t43.5 -1q51 0 90 5t60 17q11 11 12.5 31t1.5 38t-3 50.5t-8 61.5q30 29 60 54.5
t62 48.5q6 -48 6 -100q0 -51 -7.5 -99t-27.5 -88q8 -3 25 -6.5t38.5 -6.5t46.5 -4.5t49 -1.5q26 0 48.5 2.5t39.5 7.5q6 2 10 8t4 18q0 17 -5 39t-13 46.5t-19 50t-24 49.5q27 35 54 64t51 52q29 -77 40 -149.5t11 -143.5q0 -23 -3.5 -48t-10 -48t-17 -41t-24.5 -26
q-10 -5 -22 -10t-31.5 -8.5t-48.5 -5.5t-72 -2q-31 0 -65 3.5t-64 10.5t-52.5 16.5t-30.5 20.5q-28 -29 -74 -40t-126 -11q-22 0 -49 2.5t-53.5 7.5t-48 14t-31.5 21q-29 -25 -80.5 -35t-132.5 -10h-193q-25 0 -34 15t-9 59q0 31 6 46t12 21q3 3 13 4.5t22 1.5h147zM730 936
l-186 110q20 42 39 73t36 54l166 -94l58 94l20 -12l89.5 -54t70.5 -38q-14 -32 -31.5 -65t-40.5 -68l-160 96zM757 1175l-170 99l10 20q18 32 33.5 56.5t27.5 41.5l35 -18l68.5 -37l62.5 -35q-11 -26 -27.5 -58t-39.5 -69z" />
    <glyph glyph-name="uniFEB8" unicode="&#x634;" horiz-adv-x="1219" arabic-form="medial" 
d="M147 497q47 0 82.5 0.5t62.5 2.5t46.5 7t33.5 14q20 13 34 56.5t21 112.5l69.5 47.5t76.5 47.5q-4 -38 -12.5 -77.5t-20.5 -76.5t-28 -68.5t-34 -53.5q7 -4 21.5 -6.5t33.5 -4t40.5 -2.5t43.5 -1q51 0 90 5t60 17q11 11 12.5 31t1.5 38t-3 50.5t-8 61.5q30 29 60 54.5
t62 48.5q6 -48 6 -100q0 -51 -7.5 -99t-27.5 -88q8 -3 25 -6.5t38.5 -6.5t46.5 -4.5t49 -1.5q26 0 48.5 2.5t39.5 7.5q6 2 10 8t4 18q0 17 -5 39t-13 46.5t-19 50t-24 49.5q27 35 54 64t51 52q29 -77 40 -149.5t11 -143.5q0 -23 -3.5 -48t-10 -48t-17 -41t-24.5 -26
q-10 -5 -22 -10t-31.5 -8.5t-48.5 -5.5t-72 -2q-31 0 -65 3.5t-64 10.5t-52.5 16.5t-30.5 20.5q-28 -29 -74 -40t-126 -11q-22 0 -49 2.5t-53.5 7.5t-48 14t-31.5 21q-29 -25 -80.5 -35t-132.5 -10h-193q-25 0 -34 15t-9 59q0 31 6 46t12 21q3 3 13 4.5t22 1.5h147zM730 936
l-186 110q20 42 39 73t36 54l166 -94l58 94l20 -12l89.5 -54t70.5 -38q-14 -32 -31.5 -65t-40.5 -68l-160 96zM757 1175l-170 99l10 20q18 32 33.5 56.5t27.5 41.5l35 -18l68.5 -37l62.5 -35q-11 -26 -27.5 -58t-39.5 -69z" />
    <glyph glyph-name="uniFEB6" unicode="&#x634;" horiz-adv-x="1661" arabic-form="final" 
d="M1503 716q27 36 54 64t54 52q13 -41 22.5 -79t15.5 -76t9 -77t3 -82q0 -54 -11 -89t-28 -49q-11 -10 -34 -16t-49.5 -9.5t-53.5 -4.5t-46 -1q-38 0 -68 2t-56 7t-51 14t-52 23q-27 -16 -54.5 -25t-57 -13.5t-60 -5.5t-63.5 -1q0 -79 -64 -225q-100 -93 -227.5 -141
t-269.5 -48q-79 0 -142 19t-107 54.5t-67.5 86.5t-23.5 115q0 100 33.5 194.5t98.5 174.5q27 35 41 35q12 0 12 -12q0 -8 -6.5 -25t-20.5 -43q-2 -2 -3.5 -7t-6.5 -13l-18 -37q-25 -51 -38.5 -98.5t-13.5 -82.5q0 -201 299 -201q64 0 125.5 11t117.5 31t104 48t84 63
q0 36 -6.5 82t-20.5 97.5t-36.5 107.5t-55.5 112l49 68t49 64q21 -42 36 -78t27 -70t22 -67l21 -68q75 0 134.5 4.5t91.5 12.5q9 33 9 86q0 15 -1.5 40.5t-3.5 51.5l115 112q5 -33 6 -56.5t1 -42.5q0 -42 -6.5 -92t-27.5 -99q39 -8 77 -13.5t81 -5.5q12 0 27.5 0.5t30 1.5
t27 3t20.5 5t11 11t3 15q0 32 -14.5 77t-46.5 108zM1191 936l-186 110q20 42 39 73t36 54l166 -94l58 94l20 -12l89.5 -54t70.5 -38q-14 -32 -31.5 -65t-40.5 -68l-160 96zM1218 1175l-170 99l10 20q18 32 33.5 56.5t27.5 41.5l35 -18l68.5 -37l62.5 -35q-11 -26 -27.5 -58
t-39.5 -69z" />
    <glyph glyph-name="uniFEBB" unicode="&#x635;" horiz-adv-x="1650" arabic-form="initial" 
d="M786 491q99 -5 178 -6.5t146 -1.5q182 0 269 5.5t87 33.5q0 10 -11 29.5t-30.5 42.5t-47 47t-60 43.5t-70 32t-76.5 12.5q-31 0 -61 -9t-66 -30t-81.5 -55l-108.5 -84l-68 -54v-6zM479 805q3 -8 5 -20.5t3.5 -26.5t2.5 -28t1 -24q0 -42 -7 -88.5t-26 -105.5
q14 -7 31.5 -9.5t46.5 -2.5q42 0 69.5 5t49 16t43 29l53.5 44l155.5 127t119.5 89.5t98.5 52.5t93.5 17q42 0 100 -23t123 -83q44 -42 68 -79t35.5 -69.5t13.5 -59.5t2 -48q0 -57 -5 -89.5t-15 -49t-24.5 -23t-33.5 -10.5q-7 -2 -23 -3.5t-49 -3t-86 -2.5t-133 -1
q-137 0 -243 0.5t-186 2t-136.5 4t-93.5 5.5q-42 5 -75 16t-56 31q-10 -15 -27 -23.5t-46 -13.5t-72.5 -6.5t-104.5 -1.5h-151q-25 0 -34 15t-9 59q0 39 7 56t36 17h114q205 0 236 25q12 8 15 24.5t3 34.5q0 22 -2.5 46.5t-7.5 46.5l121 131v0z" />
    <glyph glyph-name="uniFEBC" unicode="&#x635;" horiz-adv-x="1560" arabic-form="medial" 
d="M786 491q99 -5 178 -6.5t146 -1.5q182 0 269 5.5t87 33.5q0 10 -11 29.5t-30.5 42.5t-47 47t-60 43.5t-70 32t-76.5 12.5q-31 0 -61 -9t-66 -30t-81.5 -55l-108.5 -84l-68 -54v-6zM479 805q3 -8 5 -20.5t3.5 -26.5t2.5 -28t1 -24q0 -42 -7 -88.5t-26 -105.5
q14 -7 31.5 -9.5t46.5 -2.5q42 0 69.5 5t49 16t43 29l53.5 44l155.5 127t119.5 89.5t98.5 52.5t93.5 17q42 0 100 -23t123 -83q44 -42 68 -79t35.5 -69.5t13.5 -59.5t2 -48q0 -57 -5 -89.5t-15 -49t-24.5 -23t-33.5 -10.5q-7 -2 -23 -3.5t-49 -3t-86 -2.5t-133 -1
q-137 0 -243 0.5t-186 2t-136.5 4t-93.5 5.5q-42 5 -75 16t-56 31q-10 -15 -27 -23.5t-46 -13.5t-72.5 -6.5t-104.5 -1.5h-151q-25 0 -34 15t-9 59q0 39 7 56t36 17h114q205 0 236 25q12 8 15 24.5t3 34.5q0 22 -2.5 46.5t-7.5 46.5l121 131v0z" />
    <glyph glyph-name="uniFEBA" unicode="&#x635;" horiz-adv-x="2017" arabic-form="final" 
d="M1243 491q99 -5 178 -6.5t146 -1.5q182 0 269 5.5t87 33.5q0 10 -11 29.5t-30.5 42.5t-47 47t-60 43.5t-70 32t-76.5 12.5q-31 0 -61 -9t-66 -30t-81.5 -55l-108.5 -84l-68 -54v-6zM856 735q42 -62 69.5 -117.5t40.5 -118.5q6 -1 12 -1h15q42 0 69.5 5t49 16.5t43 30
l53.5 44.5l155.5 127t119.5 89.5t98.5 52.5t93.5 17q42 0 100 -23t123 -83q44 -42 68 -79t35.5 -69.5t13.5 -59.5t2 -48q0 -57 -5 -89.5t-15 -49t-24.5 -23t-33.5 -10.5q-7 -2 -23 -3.5t-49 -3t-86 -2.5t-133 -1q-145 0 -255.5 1t-191.5 3.5t-136.5 5.5t-89.5 6
q-6 -94 -62 -227q-103 -91 -230.5 -140t-264.5 -49q-80 0 -143.5 19t-107.5 54.5t-67.5 86.5t-23.5 115q0 204 129 360q27 35 41 35q12 0 12 -12q0 -8 -6.5 -25t-20.5 -43q-2 -2 -3.5 -7t-6.5 -13l-18 -37q-49 -101 -49 -172q0 -199 299 -199q64 0 125.5 10.5t117 30
t103.5 47.5t84 62q0 85 -33.5 176t-89.5 176q16 23 24 37l33 47q8 9 17.5 21.5z" />
    <glyph glyph-name="uniFEBF" unicode="&#x636;" horiz-adv-x="1650" arabic-form="initial" 
d="M786 491q99 -5 178 -6.5t146 -1.5q182 0 269 5.5t87 33.5q0 10 -11 29.5t-30.5 42.5t-47 47t-60 43.5t-70 32t-76.5 12.5q-31 0 -61 -9t-66 -30t-81.5 -55l-108.5 -84l-68 -54v-6zM479 805q3 -8 5 -20.5t3.5 -26.5t2.5 -28t1 -24q0 -42 -7 -88.5t-26 -105.5
q14 -7 31.5 -9.5t46.5 -2.5q42 0 69.5 5t49 16t43 29l53.5 44l155.5 127t119.5 89.5t98.5 52.5t93.5 17q42 0 100 -23t123 -83q44 -42 68 -79t35.5 -69.5t13.5 -59.5t2 -48q0 -57 -5 -89.5t-15 -49t-24.5 -23t-33.5 -10.5q-7 -2 -23 -3.5t-49 -3t-86 -2.5t-133 -1
q-137 0 -243 0.5t-186 2t-136.5 4t-93.5 5.5q-42 5 -75 16t-56 31q-10 -15 -27 -23.5t-46 -13.5t-72.5 -6.5t-104.5 -1.5h-151q-25 0 -34 15t-9 59q0 39 7 56t36 17h114q205 0 236 25q12 8 15 24.5t3 34.5q0 22 -2.5 46.5t-7.5 46.5l121 131v0zM1286 1059l-191 104
q19 38 37 70l35 61q92 -45 184 -98q-12 -35 -28.5 -69t-36.5 -68z" />
    <glyph glyph-name="uniFEC0" unicode="&#x636;" horiz-adv-x="1560" arabic-form="medial" 
d="M786 491q99 -5 178 -6.5t146 -1.5q182 0 269 5.5t87 33.5q0 10 -11 29.5t-30.5 42.5t-47 47t-60 43.5t-70 32t-76.5 12.5q-31 0 -61 -9t-66 -30t-81.5 -55l-108.5 -84l-68 -54v-6zM479 805q3 -8 5 -20.5t3.5 -26.5t2.5 -28t1 -24q0 -42 -7 -88.5t-26 -105.5
q14 -7 31.5 -9.5t46.5 -2.5q42 0 69.5 5t49 16t43 29l53.5 44l155.5 127t119.5 89.5t98.5 52.5t93.5 17q42 0 100 -23t123 -83q44 -42 68 -79t35.5 -69.5t13.5 -59.5t2 -48q0 -57 -5 -89.5t-15 -49t-24.5 -23t-33.5 -10.5q-7 -2 -23 -3.5t-49 -3t-86 -2.5t-133 -1
q-137 0 -243 0.5t-186 2t-136.5 4t-93.5 5.5q-42 5 -75 16t-56 31q-10 -15 -27 -23.5t-46 -13.5t-72.5 -6.5t-104.5 -1.5h-151q-25 0 -34 15t-9 59q0 39 7 56t36 17h114q205 0 236 25q12 8 15 24.5t3 34.5q0 22 -2.5 46.5t-7.5 46.5l121 131v0zM1179 1059l-191 104
q19 38 37 70l35 61q92 -45 184 -98q-12 -35 -28.5 -69t-36.5 -68z" />
    <glyph glyph-name="uniFEBE" unicode="&#x636;" horiz-adv-x="2017" arabic-form="final" 
d="M1243 491q99 -5 178 -6.5t146 -1.5q182 0 269 5.5t87 33.5q0 10 -11 29.5t-30.5 42.5t-47 47t-60 43.5t-70 32t-76.5 12.5q-31 0 -61 -9t-66 -30t-81.5 -55l-108.5 -84l-68 -54v-6zM856 735q42 -62 69.5 -117.5t40.5 -118.5q6 -1 12 -1h15q42 0 69.5 5t49 16.5t43 30
l53.5 44.5l155.5 127t119.5 89.5t98.5 52.5t93.5 17q42 0 100 -23t123 -83q44 -42 68 -79t35.5 -69.5t13.5 -59.5t2 -48q0 -57 -5 -89.5t-15 -49t-24.5 -23t-33.5 -10.5q-7 -2 -23 -3.5t-49 -3t-86 -2.5t-133 -1q-145 0 -255.5 1t-191.5 3.5t-136.5 5.5t-89.5 6
q-6 -94 -62 -227q-103 -91 -230.5 -140t-264.5 -49q-80 0 -143.5 19t-107.5 54.5t-67.5 86.5t-23.5 115q0 204 129 360q27 35 41 35q12 0 12 -12q0 -8 -6.5 -25t-20.5 -43q-2 -2 -3.5 -7t-6.5 -13l-18 -37q-49 -101 -49 -172q0 -199 299 -199q64 0 125.5 10.5t117 30
t103.5 47.5t84 62q0 85 -33.5 176t-89.5 176q16 23 24 37l33 47q8 9 17.5 21.5zM1615 1059l-191 104q19 38 37 70l35 61q92 -45 184 -98q-12 -35 -28.5 -69t-36.5 -68z" />
    <glyph glyph-name="uniFEC3" unicode="&#x637;" horiz-adv-x="1267" arabic-form="initial" 
d="M419 483h287q79 0 149.5 0.5t123.5 3.5t84.5 9t31.5 18q0 5 -13 21.5t-35 37t-51.5 43.5t-61.5 42t-65.5 31.5t-64.5 12.5q-35 0 -70 -12.5t-79.5 -39t-101 -67l-134.5 -96.5v-4zM426 608l84.5 67.5l117.5 88.5l37 24t50.5 29t57.5 24.5t58 10.5q55 0 109.5 -28
t111.5 -76q48 -40 73.5 -70t37 -57.5t13.5 -56t2 -64.5q0 -35 -3 -59.5t-8.5 -41t-13 -27t-16.5 -16.5q-11 -8 -50 -12t-94.5 -5.5t-122 -2t-131.5 -0.5q-39 0 -99 1t-130 2.5t-145.5 3.5t-145.5 3.5t-129.5 2.5t-98.5 1q-25 0 -34 15t-9 59q0 54 12 63q4 3 15 6.5t26 3.5
h73q73 0 120 4.5t74.5 11t41 15t20.5 17.5q9 11 17.5 57.5t8.5 134.5q0 109 -18 260.5t-53 349.5q67 125 110 148h6q11 -6 11 -49q0 -120 80 -160h2l2 -4v-6q-2 -13 -14 -36t-34 -59q-2 -5 -5.5 -9.5t-8.5 -12.5q8 -69 11 -136t3 -132q0 -68 -5.5 -140t-16.5 -143z" />
    <glyph glyph-name="uniFEC4" unicode="&#x637;" horiz-adv-x="1178" arabic-form="medial" 
d="M419 483h287q79 0 149.5 0.5t123.5 3.5t84.5 9t31.5 18q0 5 -13 21.5t-35 37t-51.5 43.5t-61.5 42t-65.5 31.5t-64.5 12.5q-35 0 -70 -12.5t-79.5 -39t-101 -67l-134.5 -96.5v-4zM426 608l84.5 67.5l117.5 88.5l37 24t50.5 29t57.5 24.5t58 10.5q55 0 109.5 -28
t111.5 -76q48 -40 73.5 -70t37 -57.5t13.5 -56t2 -64.5q0 -35 -3 -59.5t-8.5 -41t-13 -27t-16.5 -16.5q-11 -8 -50 -12t-94.5 -5.5t-122 -2t-131.5 -0.5q-39 0 -99 1t-130 2.5t-145.5 3.5t-145.5 3.5t-129.5 2.5t-98.5 1q-25 0 -34 15t-9 59q0 54 12 63q4 3 15 6.5t26 3.5
h73q73 0 120 4.5t74.5 11t41 15t20.5 17.5q9 11 17.5 57.5t8.5 134.5q0 109 -18 260.5t-53 349.5q67 125 110 148h6q11 -6 11 -49q0 -120 80 -160h2l2 -4v-6q-2 -13 -14 -36t-34 -59q-2 -5 -5.5 -9.5t-8.5 -12.5q8 -69 11 -136t3 -132q0 -68 -5.5 -140t-16.5 -143z" />
    <glyph glyph-name="uniFEC2" unicode="&#x637;" horiz-adv-x="1238" arabic-form="final" 
d="M479 483h287q79 0 149.5 0.5t123.5 3.5t84.5 9t31.5 18q0 5 -13 21.5t-35 37t-51.5 43.5t-61.5 42t-65.5 31.5t-64.5 12.5q-35 0 -70 -12.5t-79.5 -39t-101 -67l-134.5 -96.5v-4zM485 608l84.5 67.5l117.5 88.5l37 24t50.5 29t57.5 24.5t58 10.5q55 0 109.5 -28
t111.5 -76q48 -40 73.5 -70t37 -57.5t13.5 -56t2 -64.5q0 -35 -3 -59.5t-8.5 -41t-13 -27t-16.5 -16.5q-11 -8 -50 -12t-94.5 -5.5t-122 -2t-131.5 -0.5q-33 0 -79.5 0.5t-101.5 1.5t-115.5 2.5l-122 3l-121.5 3t-113 3.5q-22 23 -38 62t-25 85q81 0 135.5 4.5t90 11.5
t54 15.5t27.5 16.5q11 11 18.5 57.5t7.5 134.5q0 109 -18 260.5t-53 349.5q67 125 110 148h6q11 -6 11 -49q0 -120 80 -160h2l2 -4v-6q-2 -13 -14 -36t-34 -59q-2 -5 -5.5 -9.5t-8.5 -12.5q8 -69 11 -136t3 -132q0 -68 -5.5 -140t-16.5 -143z" />
    <glyph glyph-name="uniFEC7" unicode="&#x638;" horiz-adv-x="1267" arabic-form="initial" 
d="M419 483h287q79 0 149.5 0.5t123.5 3.5t84.5 9t31.5 18q0 5 -13 21.5t-35 37t-51.5 43.5t-61.5 42t-65.5 31.5t-64.5 12.5q-35 0 -70 -12.5t-79.5 -39t-101 -67l-134.5 -96.5v-4zM426 608l84.5 67.5l117.5 88.5l37 24t50.5 29t57.5 24.5t58 10.5q55 0 109.5 -28
t111.5 -76q48 -40 73.5 -70t37 -57.5t13.5 -56t2 -64.5q0 -35 -3 -59.5t-8.5 -41t-13 -27t-16.5 -16.5q-11 -8 -50 -12t-94.5 -5.5t-122 -2t-131.5 -0.5q-39 0 -99 1t-130 2.5t-145.5 3.5t-145.5 3.5t-129.5 2.5t-98.5 1q-25 0 -34 15t-9 59q0 54 12 63q4 3 15 6.5t26 3.5
h73q73 0 120 4.5t74.5 11t41 15t20.5 17.5q9 11 17.5 57.5t8.5 134.5q0 109 -18 260.5t-53 349.5q67 125 110 148h6q11 -6 11 -49q0 -120 80 -160h2l2 -4v-6q-2 -13 -14 -36t-34 -59q-2 -5 -5.5 -9.5t-8.5 -12.5q8 -69 11 -136t3 -132q0 -68 -5.5 -140t-16.5 -143zM863 1026
l-191 104q19 38 37 70l35 61q92 -45 184 -98q-12 -35 -28.5 -69t-36.5 -68z" />
    <glyph glyph-name="uniFEC8" unicode="&#x638;" horiz-adv-x="1178" arabic-form="medial" 
d="M419 483h287q79 0 149.5 0.5t123.5 3.5t84.5 9t31.5 18q0 5 -13 21.5t-35 37t-51.5 43.5t-61.5 42t-65.5 31.5t-64.5 12.5q-35 0 -70 -12.5t-79.5 -39t-101 -67l-134.5 -96.5v-4zM426 608l84.5 67.5l117.5 88.5l37 24t50.5 29t57.5 24.5t58 10.5q55 0 109.5 -28
t111.5 -76q48 -40 73.5 -70t37 -57.5t13.5 -56t2 -64.5q0 -35 -3 -59.5t-8.5 -41t-13 -27t-16.5 -16.5q-11 -8 -50 -12t-94.5 -5.5t-122 -2t-131.5 -0.5q-39 0 -99 1t-130 2.5t-145.5 3.5t-145.5 3.5t-129.5 2.5t-98.5 1q-25 0 -34 15t-9 59q0 54 12 63q4 3 15 6.5t26 3.5
h73q73 0 120 4.5t74.5 11t41 15t20.5 17.5q9 11 17.5 57.5t8.5 134.5q0 109 -18 260.5t-53 349.5q67 125 110 148h6q11 -6 11 -49q0 -120 80 -160h2l2 -4v-6q-2 -13 -14 -36t-34 -59q-2 -5 -5.5 -9.5t-8.5 -12.5q8 -69 11 -136t3 -132q0 -68 -5.5 -140t-16.5 -143zM777 1026
l-191 104q19 38 37 70l35 61q92 -45 184 -98q-12 -35 -28.5 -69t-36.5 -68z" />
    <glyph glyph-name="uniFEC6" unicode="&#x638;" horiz-adv-x="1237" arabic-form="final" 
d="M479 483h287q79 0 149.5 0.5t123.5 3.5t84.5 9t31.5 18q0 5 -13 21.5t-35 37t-51.5 43.5t-61.5 42t-65.5 31.5t-64.5 12.5q-35 0 -70 -12.5t-79.5 -39t-101 -67l-134.5 -96.5v-4zM485 608l84.5 67.5l117.5 88.5l37 24t50.5 29t57.5 24.5t58 10.5q55 0 109.5 -28
t111.5 -76q48 -40 73.5 -70t37 -57.5t13.5 -56t2 -64.5q0 -35 -3 -59.5t-8.5 -41t-13 -27t-16.5 -16.5q-11 -8 -50 -12t-94.5 -5.5t-122 -2t-131.5 -0.5q-33 0 -79.5 0.5t-101.5 1.5t-115.5 2.5l-122 3l-121.5 3t-113 3.5q-22 23 -38 62t-25 85q81 0 135.5 4.5t90 11.5
t54 15.5t27.5 16.5q11 11 18.5 57.5t7.5 134.5q0 109 -18 260.5t-53 349.5q67 125 110 148h6q11 -6 11 -49q0 -120 80 -160h2l2 -4v-6q-2 -13 -14 -36t-34 -59q-2 -5 -5.5 -9.5t-8.5 -12.5q8 -69 11 -136t3 -132q0 -68 -5.5 -140t-16.5 -143zM923 1026l-191 104q19 38 37 70
l35 61q92 -45 184 -98q-12 -35 -28.5 -69t-36.5 -68z" />
    <glyph glyph-name="uniFECB" unicode="&#x639;" horiz-adv-x="932" arabic-form="initial" 
d="M243 500q-27 31 -42.5 53.5t-23 39t-9.5 30t-2 27.5q0 21 9.5 53t27 67.5t43 70.5t57.5 63.5t70.5 46t81.5 17.5q42 0 87 -19t82.5 -50t62 -70.5t24.5 -79.5q0 -12 -13 -12q-8 0 -18.5 5.5l-24.5 13.5q-45 25 -91 41t-95 16q-37 0 -66.5 -8t-50 -20t-31.5 -26.5
t-11 -28.5q0 -29 17 -65t46 -68t67 -53.5t80 -21.5q47 0 134 11t208 36q-11 -42 -21 -76.5t-28 -70.5q-107 -23 -216 -37t-214.5 -21.5t-203 -10.5t-179.5 -3q-34 0 -43.5 15.5t-9.5 58.5q0 44 8.5 58.5t34.5 14.5z" />
    <glyph glyph-name="uniFECC" unicode="&#x639;" horiz-adv-x="869" arabic-form="medial" 
d="M869 497v-147q-232 3 -295 115q-46 -31 -98 -53t-113 -36.5t-131.5 -21t-152.5 -6.5q-12 0 -24.5 0.5t-24.5 0.5q-11 0 -19 0.5t-11 0.5q-28 0 -38 15.5t-10 57.5q0 44 10 59t38 15h51q58 0 118 2t118 10.5t113.5 25t105.5 46.5q-5 22 -21 41.5t-37 34.5t-45 24t-45 9
q-10 0 -22 -0.5t-26 -5.5q-8 -3 -12.5 -4.5t-7.5 -1.5q-7 0 -7 8q0 10 3.5 24t9.5 30.5t14 34t17 32.5q29 52 70 77t113 25q49 0 94 -14t78.5 -38.5t53.5 -57t20 -68.5q0 -15 -3 -36t-11 -45.5t-22.5 -50.5t-37.5 -52q76 -47 187 -50z" />
    <glyph glyph-name="uniFECA" unicode="&#x639;" horiz-adv-x="886" arabic-form="final" 
d="M886 497v-147h-53q-54 0 -100.5 10t-88.5 30t-81 50.5t-78 71.5q-83 -32 -145.5 -78t-104.5 -99t-63 -110.5t-21 -112.5q0 -59 24 -112t72 -93t120.5 -63.5t170.5 -23.5q46 0 92.5 4t90.5 11t84 16.5t75 19.5q4 2 11 2q8 0 8 -10q0 -2 -0.5 -4t-3.5 -5
q-62 -60 -118.5 -98t-108.5 -59.5t-99 -30t-90 -8.5q-108 0 -185.5 32t-127 86.5t-72.5 126t-23 149.5t21.5 158.5t61.5 154.5t96.5 136.5t126.5 104.5q-28 23 -55 35t-58 12q-17 0 -35 -3t-35 -11q-6 -3 -12.5 2.5t-3.5 11.5q21 51 45.5 93t56 71t73 45t97.5 16
q39 0 79.5 -9.5t73.5 -30t54 -51t21 -72.5q0 -35 -18.5 -73.5t-55.5 -66.5q54 -43 113.5 -60.5t119.5 -17.5h49z" />
    <glyph glyph-name="uniFECF" unicode="&#x63a;" horiz-adv-x="932" arabic-form="initial" 
d="M243 500q-27 31 -42.5 53.5t-23 39t-9.5 30t-2 27.5q0 21 9.5 53t27 67.5t43 70.5t57.5 63.5t70.5 46t81.5 17.5q42 0 87 -19t82.5 -50t62 -70.5t24.5 -79.5q0 -12 -13 -12q-8 0 -18.5 5.5l-24.5 13.5q-45 25 -91 41t-95 16q-37 0 -66.5 -8t-50 -20t-31.5 -26.5
t-11 -28.5q0 -29 17 -65t46 -68t67 -53.5t80 -21.5q47 0 134 11t208 36q-11 -42 -21 -76.5t-28 -70.5q-107 -23 -216 -37t-214.5 -21.5t-203 -10.5t-179.5 -3q-34 0 -43.5 15.5t-9.5 58.5q0 44 8.5 58.5t34.5 14.5zM494 1163l-191 104q19 38 37 70l35 61q92 -45 184 -98
q-12 -35 -28.5 -69t-36.5 -68z" />
    <glyph glyph-name="uniFED0" unicode="&#x63a;" horiz-adv-x="869" arabic-form="medial" 
d="M869 497v-147q-232 3 -295 115q-46 -31 -98 -53t-113 -36.5t-131.5 -21t-152.5 -6.5q-12 0 -24.5 0.5t-24.5 0.5q-11 0 -19 0.5t-11 0.5q-28 0 -38 15.5t-10 57.5q0 44 10 59t38 15h51q58 0 118 2t118 10.5t113.5 25t105.5 46.5q-5 22 -21 41.5t-37 34.5t-45 24t-45 9
q-10 0 -22 -0.5t-26 -5.5q-8 -3 -12.5 -4.5t-7.5 -1.5q-7 0 -7 8q0 10 3.5 24t9.5 30.5t14 34t17 32.5q29 52 70 77t113 25q49 0 94 -14t78.5 -38.5t53.5 -57t20 -68.5q0 -15 -3 -36t-11 -45.5t-22.5 -50.5t-37.5 -52q76 -47 187 -50zM580 1100l-191 104q19 38 37 70l35 61
q92 -45 184 -98q-12 -35 -28.5 -69t-36.5 -68z" />
    <glyph glyph-name="uniFECE" unicode="&#x63a;" horiz-adv-x="886" arabic-form="final" 
d="M886 497v-147h-53q-54 0 -100.5 10t-88.5 30t-81 50.5t-78 71.5q-83 -32 -145.5 -78t-104.5 -99t-63 -110.5t-21 -112.5q0 -59 24 -112t72 -93t120.5 -63.5t170.5 -23.5q46 0 92.5 4t90.5 11t84 16.5t75 19.5q4 2 11 2q8 0 8 -10q0 -2 -0.5 -4t-3.5 -5
q-62 -60 -118.5 -98t-108.5 -59.5t-99 -30t-90 -8.5q-108 0 -185.5 32t-127 86.5t-72.5 126t-23 149.5t21.5 158.5t61.5 154.5t96.5 136.5t126.5 104.5q-28 23 -55 35t-58 12q-17 0 -35 -3t-35 -11q-6 -3 -12.5 2.5t-3.5 11.5q21 51 45.5 93t56 71t73 45t97.5 16
q39 0 79.5 -9.5t73.5 -30t54 -51t21 -72.5q0 -35 -18.5 -73.5t-55.5 -66.5q54 -43 113.5 -60.5t119.5 -17.5h49zM488 1086l-191 104q19 38 37 70l35 61q92 -45 184 -98q-12 -35 -28.5 -69t-36.5 -68z" />
    <glyph glyph-name="uniFED3" unicode="&#x641;" horiz-adv-x="766" arabic-form="initial" 
d="M601 609q-9 54 -24 98t-33 75.5t-38.5 48.5t-41.5 17q-36 0 -82 -37q-23 -18 -32.5 -34.5t-9.5 -30.5q0 -9 11.5 -22.5t41 -31t80 -38.5t128.5 -45zM511 497q-66 21 -114.5 41t-80 42.5t-46.5 49t-15 60.5q0 37 21.5 92.5t62.5 112.5q79 114 149 114q80 0 129 -137
q25 -69 38 -156.5t13 -193.5q0 -113 -37 -152q-39 -34 -154 -34q-100 0 -198 2.5t-195 7.5q-35 2 -58.5 3t-35.5 1q-25 0 -34 15t-9 59q0 24 1.5 38t7 22t16 10.5t28.5 2.5q46 0 108.5 -2.5t141.5 -7.5q38 -2 68.5 -3t50.5 -1q54 0 89.5 1.5t52.5 5.5v7zM512 1147l-191 104
q19 38 37 70l35 61q92 -45 184 -98q-12 -35 -28.5 -69t-36.5 -68z" />
    <glyph glyph-name="uniFED4" unicode="&#x641;" horiz-adv-x="756" arabic-form="medial" 
d="M574 560q25 11 35 29t10 34q0 22 -9 60.5t-27 75.5t-44.5 64.5t-60.5 27.5q-19 0 -40.5 -8t-40 -21t-31 -30t-12.5 -35q0 -20 11 -41.5t37 -46t68 -52t104 -57.5zM381 496q-36 16 -58.5 38t-35 45.5t-17.5 46.5t-5 41q0 64 26 126t65 110.5t85 78t87 29.5
q36 0 67.5 -28.5t55.5 -73t37.5 -98.5t13.5 -105q0 -24 -3 -51t-8 -52.5t-11.5 -47t-13.5 -36.5q16 -9 42 -15t48 -7v-147q-18 0 -35 1t-36 4.5t-42 11t-51 21.5q-22 -12 -54 -20t-69 -13t-74.5 -7.5t-70.5 -2.5q-42 0 -90 1t-94 1.5t-85.5 1.5t-64.5 1t-34 15t-9 59
q0 24 1.5 38t7 22t16 10.5t28.5 2.5q28 0 71.5 -1t95 -2.5t107 -2.5t107.5 -1v6v0zM554 1147l-191 104q19 38 37 70l35 61q92 -45 184 -98q-12 -35 -28.5 -69t-36.5 -68z" />
    <glyph glyph-name="uniFED2" unicode="&#x641;" horiz-adv-x="1464" arabic-form="final" 
d="M1397 609q-9 54 -24 98t-33 75.5t-38.5 48.5t-41.5 17q-36 0 -82 -37q-23 -18 -32.5 -34.5t-9.5 -30.5q0 -9 11.5 -22.5t41 -31t80 -38.5t128.5 -45zM1305 499q-66 21 -114 41t-79 42t-46 48t-15 60q0 37 21.5 92.5t62.5 112.5q79 114 149 114q80 0 129 -137
q25 -70 38 -157t13 -193q0 -131 -41 -160q-20 -12 -59 -16.5t-51 -5.5q-63 -6 -160 -13q-116 -8 -247 -12.5t-279 -4.5q-144 0 -245.5 13.5t-166 43.5t-94 78t-29.5 116q0 32 6 68.5t19 74.5q27 78 51 90h2q12 0 12 -24q0 -12 -6 -39q-6 -47 -6 -82q0 -50 22 -84t71.5 -54.5
t129 -29.5t195.5 -9q171 0 349 2.5t368 16.5v8v0zM1266 1147l-191 104q19 38 37 70l35 61q92 -45 184 -98q-12 -35 -28.5 -69t-36.5 -68z" />
    <glyph glyph-name="uniFED7" unicode="&#x642;" horiz-adv-x="766" arabic-form="initial" 
d="M601 609q-9 54 -24 98t-33 75.5t-38.5 48.5t-41.5 17q-36 0 -82 -37q-23 -18 -32.5 -34.5t-9.5 -30.5q0 -9 11.5 -22.5t41 -31t80 -38.5t128.5 -45zM511 497q-66 21 -114.5 41t-80 42.5t-46.5 49t-15 60.5q0 37 21.5 92.5t62.5 112.5q79 114 149 114q80 0 129 -137
q25 -69 38 -156.5t13 -193.5q0 -113 -37 -152q-39 -34 -154 -34q-100 0 -198 2.5t-195 7.5q-35 2 -58.5 3t-35.5 1q-25 0 -34 15t-9 59q0 24 1.5 38t7 22t16 10.5t28.5 2.5q46 0 108.5 -2.5t141.5 -7.5q38 -2 68.5 -3t50.5 -1q54 0 89.5 1.5t52.5 5.5v7zM393 1240l-55 -96
l-180 107q23 46 40.5 76t35.5 53l157 -93l57 94l100.5 -59.5t81.5 -43.5q-16 -37 -33 -70t-38 -67z" />
    <glyph glyph-name="uniFED8" unicode="&#x642;" horiz-adv-x="776" arabic-form="medial" 
d="M574 560q25 11 35 29t10 34q0 22 -9 60.5t-27 75.5t-44.5 64.5t-60.5 27.5q-19 0 -40.5 -8t-40 -21t-31 -30t-12.5 -35q0 -20 11 -41.5t37 -46t68 -52t104 -57.5zM381 496q-36 16 -58.5 38t-35 45.5t-17.5 46.5t-5 41q0 64 26 126t65 110.5t85 78t87 29.5
q36 0 67.5 -28.5t55.5 -73t37.5 -98.5t13.5 -105q0 -24 -3 -51t-8 -52.5t-11.5 -47t-13.5 -36.5q16 -9 42 -15t48 -7v-147q-18 0 -35 1t-36 4.5t-42 11t-51 21.5q-22 -12 -54 -20t-69 -13t-74.5 -7.5t-70.5 -2.5q-42 0 -90 1t-94 1.5t-85.5 1.5t-64.5 1t-34 15t-9 59
q0 24 1.5 38t7 22t16 10.5t28.5 2.5q28 0 71.5 -1t95 -2.5t107 -2.5t107.5 -1v6v0zM463 1240l-55 -96l-180 107q23 46 40.5 76t35.5 53l157 -93l57 94l100.5 -59.5t81.5 -43.5q-16 -37 -33 -70t-38 -67z" />
    <glyph glyph-name="uniFED6" unicode="&#x642;" horiz-adv-x="1022" arabic-form="final" 
d="M926 338q-32 -5 -57.5 -6.5t-45.5 -1.5q-49 0 -89.5 12.5t-70 35t-45.5 55t-16 71.5q0 120 64 221q65 102 139 102q84 0 149 -151q68 -153 68 -344q0 -60 -9.5 -107.5t-29.5 -81.5q-37 -69 -141 -143q-207 -142 -406 -142q-80 0 -145 24t-111.5 68.5t-72 106.5t-25.5 139
q0 109 31 230q30 123 57 123q12 0 12 -23v-11q0 -5 -2 -13l-12 -58q-21 -95 -21 -176q0 -119 74.5 -183.5t210.5 -64.5q72 0 136.5 12t126.5 38t123 67t126 98q-6 63 -18 103zM905 491q-9 36 -26.5 68t-39.5 55.5t-47 37t-49 13.5q-12 0 -23.5 -8t-20 -21t-14 -30t-5.5 -35
t12.5 -33.5t35 -27t53.5 -17.5t69 -6q8 0 21.5 1t33.5 3zM707 1095l-55 -96l-180 107q23 46 40.5 76t35.5 53l157 -93l57 94l100.5 -59.5t81.5 -43.5q-16 -37 -33 -70t-38 -67z" />
    <glyph glyph-name="uniFEDB" unicode="&#x643;" horiz-adv-x="889" arabic-form="initial" 
d="M784 514l-6 -82q-3 -50 -28 -64q-29 -17 -105.5 -24.5t-200.5 -7.5q-65 0 -131.5 2t-127.5 5t-111.5 5t-83.5 2q-25 0 -34 15t-9 59t9.5 58.5t35.5 14.5q37 0 86 -2t103 -5t110 -5t108 -2q42 0 73 1t56 2.5t44.5 4t39.5 5.5v6q-7 11 -30 37t-57.5 61l-79 77l-93.5 85
l-139 122l-32 -52q-46 41 -75.5 70.5t-46 52t-22.5 40t-6 35.5q0 24 6 47.5t16.5 44t24 35.5t28.5 22l680 316l-47 -178l-125 -47q-154 -57 -267 -103.5t-185 -81.5v-10l125 -111l201 -180z" />
    <glyph glyph-name="uniFEDC" unicode="&#x643;" horiz-adv-x="885" arabic-form="medial" 
d="M181 831q-46 41 -75.5 70.5t-46 52t-22.5 40.5t-6 36q0 24 6 47.5t16.5 44t24 35.5t28.5 22l680 316l-47 -178l-125 -47q-154 -57 -267 -103.5t-185 -81.5v-10l125 -111l180.5 -163l255.5 -231q35 -32 73 -52.5t89 -20.5v-147q-32 0 -58 2.5t-48.5 8.5t-43 17.5
t-41.5 29.5q-17 -26 -36 -40.5t-46.5 -21t-67.5 -7.5t-100 -1q-53 0 -110.5 1.5l-116.5 3t-117 3.5t-110 4q-25 0 -34 15t-9 59t9.5 58.5t35.5 14.5q37 0 90.5 -2l110 -4l110 -4t91.5 -2q60 0 96 0.5t55.5 3.5t25.5 10t6 19q0 8 -5.5 18.5t-14.5 22t-20 23.5l-21 23
q-31 34 -70 71.5t-95 86.5l-138 121z" />
    <glyph glyph-name="uniFEDA" unicode="&#x643;" horiz-adv-x="1018" arabic-form="final" 
d="M971 1454l10.5 -226t9.5 -159q14 -193 20.5 -347t6.5 -270q0 -64 -43 -92q-42 -29 -144.5 -43t-269.5 -14q-247 0 -344 47q-125 64 -125 193q0 73 41 169q40 99 72 99q10 0 10 -19q0 -21 -6 -61q-5 -32 -7.5 -58.5t-2.5 -48.5q0 -45 17 -76t52 -48t98.5 -25t157.5 -8
q125 0 236 12q115 12 141 31q10 10 10 24v15l-4 71q-2 51 -10.5 140t-22.5 219q-9 83 -16.5 168.5l-15.5 175.5q37 45 69 78t60 53zM406 710v11q84 30 215 98v12q-20 -2 -37 -3t-31 -1q-84 0 -84 43q0 93 92 182q27 27 39 27q2 0 4 -2h2v-2v-2q0 -5 -4 -13t-12 -22
q-41 -68 -41 -92q0 -18 57 -18h21q63 0 63 -23q0 -31 -9.5 -61t-26 -54t-38.5 -40.5t-47 -20.5l-51 -8q-28 -5 -55.5 -8t-56.5 -3z" />
    <glyph glyph-name="uniFEDF" unicode="&#x644;" horiz-adv-x="549" arabic-form="initial" 
d="M412 1507q0 -32 3 -122.5t11 -239.5q12 -232 18.5 -376t6.5 -204v-145q0 -25 -10 -40.5t-34.5 -24t-65 -11.5t-101.5 -3q-42 0 -80.5 1t-70.5 2.5t-55.5 3t-33.5 2.5q-25 2 -38 17t-13 59t12.5 57.5t38.5 13.5q10 0 32 -1.5t50 -3t59.5 -3t61.5 -1.5q29 0 67 0.5t86 8.5
q0 60 -12 172.5t-33 280.5q-30 243 -45 399q37 50 74 89.5t72 68.5z" />
    <glyph glyph-name="uniFEE0" unicode="&#x644;" horiz-adv-x="451" arabic-form="medial" 
d="M412 1507q0 -32 3 -122.5t11 -239.5q12 -232 18.5 -376t6.5 -204v-145q0 -25 -10 -40.5t-34.5 -24t-65 -11.5t-101.5 -3q-42 0 -80.5 1t-70.5 2.5t-55.5 3t-33.5 2.5q-25 2 -38 17t-13 59t12.5 57.5t38.5 13.5q10 0 32 -1.5t50 -3t59.5 -3t61.5 -1.5q29 0 67 0.5t86 8.5
q0 60 -12 172.5t-33 280.5q-30 243 -45 399q37 50 74 89.5t72 68.5z" />
    <glyph glyph-name="uniFEDE" unicode="&#x644;" horiz-adv-x="897" arabic-form="final" 
d="M730 1367l119 139l18 -386l12.5 -264.5l9.5 -198t6 -138t2 -84.5v-92q0 -72 -68 -146q-157 -172 -399 -172q-165 0 -254.5 88t-89.5 250q0 174 68 283q22 37 34 37q13 0 13 -19q0 -14 -8 -37q-29 -84 -29 -172q0 -130 65.5 -199t184.5 -69q139 0 264 61t125 129
q0 21 -1 43.5t-2 40.5q0 14 -2 39t-5.5 63.5l-8.5 91.5l-12 124q-8 71 -14 140t-11 140.5t-9 147.5t-8 160z" />
    <glyph glyph-name="uniFEE3" unicode="&#x645;" horiz-adv-x="885" arabic-form="initial" 
d="M349 463q-23 -42 -48 -65t-55 -34.5t-68 -13.5t-88 -2q-35 0 -57.5 0.5t-37 2t-21.5 3.5t-11 4q-16 10 -16 66q0 57 14 65q6 5 24.5 6.5t61.5 1.5h74q38 0 67.5 1.5t53 10t42 27t35.5 52.5q21 44 45 89.5t52 82.5t62.5 60.5t76.5 23.5q40 0 74 -19t61.5 -51t48.5 -73
t35 -84.5t21 -86t7 -77.5q0 -54 -21 -85t-79 -31q-38 0 -86 7t-96.5 22t-93.5 39t-77 58zM407 594q39 -42 87 -66.5t92.5 -36.5t78 -15t42.5 -3q6 0 6 6t-4.5 25t-14 43.5t-24 52t-33.5 50t-43 37.5t-53 15q-76 0 -134 -108z" />
    <glyph glyph-name="uniFEE4" unicode="&#x645;" horiz-adv-x="802" arabic-form="medial" 
d="M349 463q-23 -42 -48 -65t-55 -34.5t-68 -13.5t-88 -2q-35 0 -57.5 0.5t-37 2t-21.5 3.5t-11 4q-16 10 -16 66q0 57 14 65q6 5 24.5 6.5t61.5 1.5h74q38 0 67.5 1.5t53 10t42 27t35.5 52.5q21 44 45 89.5t52 82.5t62.5 60.5t76.5 23.5q40 0 74 -19t61.5 -51t48.5 -73
t35 -84.5t21 -86t7 -77.5q0 -54 -21 -85t-79 -31q-38 0 -86 7t-96.5 22t-93.5 39t-77 58zM407 594q39 -42 87 -66.5t92.5 -36.5t78 -15t42.5 -3q6 0 6 6t-4.5 25t-14 43.5t-24 52t-33.5 50t-43 37.5t-53 15q-76 0 -134 -108z" />
    <glyph glyph-name="uniFEE2" unicode="&#x645;" horiz-adv-x="770" arabic-form="final" 
d="M791 497q-5 -12 -7 -21t-4 -15q-27 -111 -59 -111q-65 0 -144.5 3.5l-154.5 6.5q-78 3 -132.5 5.5t-70.5 2.5q-11 0 -16.5 -4.5t-5.5 -19.5q0 -6 1 -18t2.5 -24.5l3 -24t3.5 -17.5q37 -172 56.5 -273.5t19.5 -148.5q0 -142 -62 -213q-11 78 -31 181t-49 233
q-55 239 -55 286q0 6 4.5 20t11.5 30l14.5 32l12.5 27q11 23 19.5 35.5t17.5 21.5q12 13 42 16t77 3q30 0 61.5 -1.5l62 -3t58 -2.5t49.5 -1v5q-14 22 -34.5 49t-41.5 50t-40.5 39t-30.5 16q-10 0 -22 -2t-31.5 -13.5t-49.5 -37t-76 -72.5q-5 -5 -12.5 -4.5t-7.5 8.5
q0 4 3 18.5t7.5 31.5t9 31.5t7.5 19.5q18 33 44 63.5t55 54.5t58.5 39t53.5 17q27 1 79 -39t123 -135q37 -50 64.5 -83t40.5 -42q12 -8 30 -13.5t46 -5.5z" />
    <glyph glyph-name="uniFEE7" unicode="&#x646;" horiz-adv-x="649" arabic-form="initial" 
d="M416 892q31 -49 58 -96.5t46.5 -97.5t31 -105.5t11.5 -119.5q0 -83 -51 -111q-51 -26 -205 -26q-96 0 -171.5 4.5t-145.5 9.5q-25 0 -34 15t-9 59t8.5 58.5t34.5 14.5q8 0 31.5 -1t54.5 -2.5t67 -3.5t69 -3.5t60.5 -2.5t42.5 -1q109 0 129 21q-3 27 -12.5 54.5
t-23.5 54.5t-31 54l-35 53q14 43 32.5 86t41.5 86zM357 1059l-191 104q19 38 37 70l35 61q92 -45 184 -98q-12 -35 -28.5 -69t-36.5 -68z" />
    <glyph glyph-name="uniFEE8" unicode="&#x646;" horiz-adv-x="563" arabic-form="medial" 
d="M416 892q31 -49 58 -96.5t46.5 -97.5t31 -105.5t11.5 -119.5q0 -83 -51 -111q-51 -26 -205 -26q-96 0 -171.5 4.5t-145.5 9.5q-25 0 -34 15t-9 59t8.5 58.5t34.5 14.5q8 0 31.5 -1t54.5 -2.5t67 -3.5t69 -3.5t60.5 -2.5t42.5 -1q109 0 129 21q-3 27 -12.5 54.5
t-23.5 54.5t-31 54l-35 53q14 43 32.5 86t41.5 86zM357 1059l-191 104q19 38 37 70l35 61q92 -45 184 -98q-12 -35 -28.5 -69t-36.5 -68z" />
    <glyph glyph-name="uniFEE6" unicode="&#x646;" horiz-adv-x="977" arabic-form="final" 
d="M866 721q32 -51 54.5 -92.5t33.5 -75.5q23 -69 23 -158q0 -65 -14 -128t-41 -126q-16 -35 -64.5 -70t-130.5 -67q-165 -68 -309 -68q-80 0 -143.5 19t-107.5 54.5t-67.5 86.5t-23.5 115q0 204 129 360q27 35 41 35q12 0 12 -12q0 -8 -6.5 -25t-20.5 -43q-2 -2 -3.5 -7
t-6.5 -13l-18 -37q-49 -101 -49 -172q0 -199 299 -199q64 0 125.5 10.5t117 30t103.5 47.5t84 62q0 145 -113 338q9 15 23 36t34 47q27 33 39 52zM559 927l-191 104q19 38 37 70l35 61q92 -45 184 -98q-12 -35 -28.5 -69t-36.5 -68z" />
    <glyph glyph-name="uniFEE9" unicode="&#x647;" horiz-adv-x="872" arabic-form="isolated" 
d="M491 496q19 -6 50.5 -14.5t64.5 -15.5t61.5 -12t41.5 -5q12 0 16 6.5t4 14.5q0 43 -38.5 105t-124.5 146q5 -57 -13 -114t-62 -111zM245 655q0 -17 5.5 -35.5t20 -35.5t39.5 -31.5t64 -22.5q59 20 84.5 49.5t25.5 79.5q0 20 -4.5 42.5t-13.5 41.5t-23.5 31.5t-35.5 12.5
q-29 0 -57.5 -11.5t-52 -30t-38 -42t-14.5 -48.5zM410 1057q7 -27 24.5 -51t42.5 -48t55 -49l62 -53l79 -73t70 -77.5t50 -85.5t19 -97q0 -38 -12.5 -75t-30 -66.5t-36.5 -47.5t-31 -18q-23 0 -59 5.5t-82 15l-99 21.5l-109 24q-66 -20 -151 -28t-188 -8l13.5 22.5t25.5 40
t32 44.5t31 36q13 -1 25.5 -1.5t24.5 -1.5q-9 21 -12.5 40.5t-3.5 39.5q0 39 12.5 81.5t36 84t56 79.5t71.5 67q-3 5 -7 17.5t-4 28.5q0 14 8 32t20.5 36t29 35.5t34.5 31.5z" />
    <glyph glyph-name="uniFEEB" unicode="&#x647;" horiz-adv-x="999" arabic-form="initial" 
d="M618 496q19 -6 50.5 -14.5t64.5 -15.5t61.5 -12t41.5 -5q12 0 16 6.5t4 14.5q0 43 -38.5 105t-124.5 146q5 -57 -13 -114t-62 -111zM372 655q0 -17 5.5 -35.5t20 -35.5t39.5 -31.5t64 -22.5q59 20 84.5 49.5t25.5 79.5q0 20 -4.5 42.5t-13.5 41.5t-23.5 31.5t-35.5 12.5
q-29 0 -57.5 -11.5t-52 -30t-38 -42t-14.5 -48.5zM537 1057q7 -27 24.5 -51t42.5 -48t55 -49l62 -53l79 -73t70 -77.5t50 -85.5t19 -97q0 -38 -12.5 -75t-30 -66.5t-36.5 -47.5t-31 -18q-23 0 -59 5.5t-82 15l-99 21.5l-109 24q-68 -20 -155.5 -28t-194.5 -8q-47 0 -78 1
t-52 3q-17 1 -27 4t-16 11.5t-8 22.5t-2 38t2 38t8 21.5t16.5 9.5t26.5 2q17 0 49 -0.5t72.5 -1.5t85 -3.5t86.5 -5.5q-9 21 -12.5 40.5t-3.5 39.5q0 39 12.5 81.5t36 84t56 79.5t71.5 67q-3 5 -7 17.5t-4 28.5q0 14 8 32t20.5 36t29 35.5t34.5 31.5z" />
    <glyph glyph-name="uniFEEC" unicode="&#x647;" horiz-adv-x="834" arabic-form="medial" 
d="M386 502q29 0 58.5 2t56.5 7t50.5 14t41.5 24q8 21 9 41.5t1 31.5q0 42 -6 73t-14.5 51.5t-17.5 31t-15 10.5q-16 0 -43.5 -24.5t-56.5 -65t-56 -92t-43 -104.5h35zM316 360q0 -48 22 -96t57.5 -86.5t81 -62t93.5 -23.5q29 0 41.5 7t12.5 24q0 49 -15 86t-40.5 63.5
t-57.5 43.5t-66.5 26.5t-68 13.5t-60.5 4zM834 350q-25 0 -46.5 0.5t-41.5 1.5t-40.5 2.5t-43.5 3.5q24 -40 36 -77.5t12 -82.5q0 -28 -10 -71.5t-30.5 -84.5t-51 -70.5t-70.5 -29.5q-59 0 -114 28t-98 78t-69 119t-26 152q0 5 0.5 12.5t2.5 24.5q-26 -2 -56 -3t-58.5 -1.5
l-54.5 -1t-44 -0.5q-22 0 -34.5 2.5t-19 10t-8.5 22t-2 39.5q0 44 8.5 58.5t34.5 14.5h263q13 52 36 106.5t51 105t60 95.5t63.5 78t61.5 52.5t54 19.5q16 0 29.5 -15t23.5 -38.5t17.5 -53t12 -58t7 -53.5t2.5 -40q0 -49 -17 -104t-52 -99l4 -4l58.5 3.5t48.5 2.5t47 1.5
t54 0.5v-147z" />
    <glyph glyph-name="uniFEEA" unicode="&#x647;" horiz-adv-x="678" arabic-form="final" 
d="M426 866q-48 -21 -92.5 -43t-78.5 -42.5t-54.5 -39.5t-20.5 -35q0 -17 14 -29t36 -20t48 -12t50 -4q43 0 73 5t39 17q-5 54 -8.5 103t-5.5 100zM678 350q-51 0 -89.5 7.5t-66 29.5t-44 63t-23.5 109l-41 -49q-6 -6 -35.5 -12.5t-71.5 -6.5q-32 0 -71.5 6t-74 20t-58 36.5
t-23.5 56.5q0 23 11 56t30 79q17 43 38.5 74t54.5 58t81.5 53.5t118.5 60.5l-2 72l104 106q-2 -32 -2 -63v-58q0 -21 1 -57t3.5 -79t5.5 -89.5t7 -88.5t9 -77t11 -55q11 -50 41 -77.5t86 -27.5v-147z" />
    <glyph glyph-name="uniFEEE" unicode="&#x648;" horiz-adv-x="805" arabic-form="final" 
d="M694 320q-149 10 -220.5 52.5t-71.5 134.5q0 57 18.5 114t48 102.5t67 74.5t76.5 29t73 -29.5t63 -85.5q27 -54 42 -115.5t15 -135.5q0 -138 -50.5 -248.5t-150.5 -198.5q-116 -100 -235 -100q-165 0 -297 170q-72 90 -72 127q0 10 6 10l2 2h2q6 -2 14 -8.5t19 -20.5
q22 -31 52.5 -55.5t66.5 -42t75.5 -26.5t79.5 -9q129 0 226 66.5t151 192.5zM715 466q1 15 -11.5 48.5t-34.5 68t-50.5 60.5t-57.5 26q-17 0 -31.5 -8t-25 -20.5t-16.5 -28t-6 -31.5q0 -20 13.5 -40.5t42 -37t72.5 -27t105 -10.5z" />
    <glyph glyph-name="uniFBE8" unicode="&#x649;" horiz-adv-x="649" arabic-form="initial" 
d="M416 892q31 -49 58 -96.5t46.5 -97.5t31 -105.5t11.5 -119.5q0 -83 -51 -111q-51 -26 -205 -26q-96 0 -171.5 4.5t-145.5 9.5q-25 0 -34 15t-9 59t8.5 58.5t34.5 14.5q8 0 31.5 -1t54.5 -2.5t67 -3.5t69 -3.5t60.5 -2.5t42.5 -1q109 0 129 21q-3 27 -12.5 54.5
t-23.5 54.5t-31 54l-35 53q14 43 32.5 86t41.5 86z" />
    <glyph glyph-name="uniFBE9" unicode="&#x649;" horiz-adv-x="563" arabic-form="medial" 
d="M416 892q31 -49 58 -96.5t46.5 -97.5t31 -105.5t11.5 -119.5q0 -83 -51 -111q-51 -26 -205 -26q-96 0 -171.5 4.5t-145.5 9.5q-25 0 -34 15t-9 59t8.5 58.5t34.5 14.5q8 0 31.5 -1t54.5 -2.5t67 -3.5t69 -3.5t60.5 -2.5t42.5 -1q109 0 129 21q-3 27 -12.5 54.5
t-23.5 54.5t-31 54l-35 53q14 43 32.5 86t41.5 86z" />
    <glyph glyph-name="uniFEF0" unicode="&#x649;" horiz-adv-x="1094" arabic-form="final" 
d="M1094 497v-147h-144q-46 0 -80.5 -7t-57 -16.5t-34 -19.5t-11.5 -16q0 -12 17.5 -21.5t48.5 -18t72.5 -16l89.5 -15.5q29 -5 37.5 -17t8.5 -22q0 -25 -4 -53.5t-11 -54.5t-15.5 -46.5t-18.5 -29.5q-51 -47 -117 -84.5t-137 -63.5t-141.5 -40t-130.5 -14q-86 0 -156 21.5
t-119 64.5t-75.5 108t-26.5 152q0 37 7.5 79.5t21 85.5t33 85t42.5 78q20 31 34 31q10 0 10 -13q0 -9 -11 -31q-36 -75 -48 -134.5t-12 -106.5q0 -69 25 -120t68 -84t100.5 -49.5t123.5 -16.5q55 0 111.5 11t112.5 30.5t111 45.5t108 56v8q-87 9 -140 22.5t-81.5 30
t-38.5 35t-10 36.5q0 12 6.5 37t21 55.5t39 63.5t60.5 59.5t84 44t110 17.5h117z" />
    <glyph glyph-name="uniFEF3" unicode="&#x64a;" horiz-adv-x="649" arabic-form="initial" 
d="M416 892q31 -49 58 -96.5t46.5 -97.5t31 -105.5t11.5 -119.5q0 -83 -51 -111q-51 -26 -205 -26q-96 0 -171.5 4.5t-145.5 9.5q-25 0 -34 15t-9 59t8.5 58.5t34.5 14.5q8 0 31.5 -1t54.5 -2.5t67 -3.5t69 -3.5t60.5 -2.5t42.5 -1q109 0 129 21q-3 27 -12.5 54.5
t-23.5 54.5t-31 54l-35 53q14 43 32.5 86t41.5 86zM243 -43l-55 -96l-180 107q23 46 40.5 76t35.5 53l157 -93l57 94l100.5 -59.5t81.5 -43.5q-16 -37 -33 -70t-38 -67z" />
    <glyph glyph-name="uniFEF4" unicode="&#x64a;" horiz-adv-x="563" arabic-form="medial" 
d="M416 892q31 -49 58 -96.5t46.5 -97.5t31 -105.5t11.5 -119.5q0 -83 -51 -111q-51 -26 -205 -26q-96 0 -171.5 4.5t-145.5 9.5q-25 0 -34 15t-9 59t8.5 58.5t34.5 14.5q8 0 31.5 -1t54.5 -2.5t67 -3.5t69 -3.5t60.5 -2.5t42.5 -1q109 0 129 21q-3 27 -12.5 54.5
t-23.5 54.5t-31 54l-35 53q14 43 32.5 86t41.5 86zM243 -43l-55 -96l-180 107q23 46 40.5 76t35.5 53l157 -93l57 94l100.5 -59.5t81.5 -43.5q-16 -37 -33 -70t-38 -67z" />
    <glyph glyph-name="uniFEF2" unicode="&#x64a;" horiz-adv-x="1094" arabic-form="final" 
d="M1094 497v-147h-144q-46 0 -80.5 -7t-57 -16.5t-34 -19.5t-11.5 -16q0 -12 17.5 -21.5t48.5 -18t72.5 -16l89.5 -15.5q29 -5 37.5 -17t8.5 -22q0 -25 -4 -53.5t-11 -54.5t-15.5 -46.5t-18.5 -29.5q-51 -47 -117 -84.5t-137 -63.5t-141.5 -40t-130.5 -14q-86 0 -156 21.5
t-119 64.5t-75.5 108t-26.5 152q0 37 7.5 79.5t21 85.5t33 85t42.5 78q20 31 34 31q10 0 10 -13q0 -9 -11 -31q-36 -75 -48 -134.5t-12 -106.5q0 -69 25 -120t68 -84t100.5 -49.5t123.5 -16.5q55 0 111.5 11t112.5 30.5t111 45.5t108 56v8q-87 9 -140 22.5t-81.5 30
t-38.5 35t-10 36.5q0 12 6.5 37t21 55.5t39 63.5t60.5 59.5t84 44t110 17.5h117zM479 -443l-55 -96l-180 107q23 46 40.5 76t35.5 53l157 -93l57 94l100.5 -59.5t81.5 -43.5q-16 -37 -33 -70t-38 -67z" />
    <glyph glyph-name="uniFB51" unicode="&#x671;" horiz-adv-x="408" arabic-form="final" 
d="M96 1364l133 143q0 -222 33 -778l8 -129q2 -34 9 -55.5t18 -30.5q11 -8 38.5 -12.5t72.5 -4.5v-147q-162 0 -201 41q-40 40 -55 225l-9 86q-3 38 -7.5 104.5l-10.5 161.5q-6 98 -13.5 197zM111 1686q36 -13 66 -18t71 -5q16 0 32 2.5t28.5 7t20 10.5t7.5 14q0 9 -6 22
t-17 25t-27 20t-37 8q-37 0 -69.5 -23.5t-68.5 -62.5zM-73 1567q5 40 16.5 68.5t25.5 46.5t29.5 26t29.5 8q11 0 21.5 -3.5t18.5 -5.5q42 49 72.5 79t55 46.5t44.5 22t40 5.5q15 0 33 -9t34 -27t27 -46t11 -67q0 -33 -7 -58.5t-23.5 -42t-45.5 -25t-72 -8.5q-50 0 -86.5 7.5
t-63.5 17t-46.5 17t-35.5 7.5q-14 0 -33 -13.5t-42 -46.5z" />
    <glyph glyph-name="uni0672.fina" unicode="&#x672;" horiz-adv-x="408" 
d="M96 1364l133 143q0 -222 33 -778l8 -129q2 -34 9 -55.5t18 -30.5q11 -8 38.5 -12.5t72.5 -4.5v-147q-162 0 -201 41q-40 40 -55 225l-9 86q-3 38 -7.5 104.5l-10.5 161.5q-6 98 -13.5 197zM339 1747q-3 -29 -9.5 -54t-15.5 -39q-55 -21 -90.5 -40t-59 -35.5t-38 -30
t-27 -23t-25.5 -14.5t-34 -5q-13 0 -24.5 2.5t-23.5 2.5q-18 0 -41 -13t-58 -56l-3 1q0 23 6.5 51t20 52.5t34 41t47.5 16.5q12 0 27 -2.5t32 -2.5q15 0 29.5 4t28.5 15q-49 23 -75.5 48.5t-26.5 64.5q0 21 12 49t34 53t52 42.5t66 17.5t65 -16t29 -48q0 -11 -4.5 -22
t-15.5 -18q-26 11 -46 17.5t-49 6.5q-30 0 -49.5 -13.5t-19.5 -32.5q0 -14 10 -27.5t25 -24.5t33 -18t33 -7q14 0 32.5 6t39 15l41 18.5z" />
    <glyph glyph-name="uni0673.fina" unicode="&#x673;" horiz-adv-x="492" 
d="M96 1364l133 143q0 -222 33 -778l8 -129q3 -73 37 -88t185 -15v-147q-222 0 -273 39q-52 40 -67 227l-9 86q-3 38 -7.5 104.5l-10.5 161.5q-6 98 -13.5 197zM474 117q-3 -29 -9.5 -54t-15.5 -39q-55 -21 -90.5 -40t-59 -35.5t-38 -30t-27 -23t-25.5 -14.5t-34 -5
q-13 0 -24.5 2.5t-23.5 2.5q-18 0 -41 -13t-58 -56l-3 1q0 23 6.5 51t20 52.5t34 41t47.5 16.5q12 0 27 -2.5t32 -2.5q15 0 29.5 4t28.5 15q-49 23 -75.5 48.5t-26.5 64.5q0 21 12 49t34 53t52 42.5t66 17.5t65 -16t29 -48q0 -11 -4.5 -22t-15.5 -18q-26 11 -46 17.5
t-49 6.5q-30 0 -49.5 -13.5t-19.5 -32.5q0 -14 10 -27.5t25 -24.5t33 -18t33 -7q14 0 32.5 6t39 15l41 18.5z" />
    <glyph glyph-name="uni0675.fina" unicode="&#x675;" horiz-adv-x="672" 
d="M96 1364l133 143q0 -222 33 -778l8 -129q3 -73 37 -88t185 -15h180v-147h-180q-222 0 -273 39q-52 40 -67 227l-9 86q-3 38 -7.5 104.5l-10.5 161.5q-6 98 -13.5 197zM673 1564q-8 -30 -16.5 -55.5l-13.5 -40.5l-116.5 -37.5t-84 -31.5t-66.5 -35.5t-63 -50.5
q-2 28 0 48.5t10 38.5q5 14 18 26.5t28 24.5q-33 21 -51.5 43.5t-18.5 59.5q0 26 13.5 56t38.5 55t60.5 41.5t79.5 16.5q35 0 61.5 -15.5t26.5 -44.5q0 -12 -9 -28t-26 -24q-19 14 -40 23t-47 9q-15 0 -29 -3t-25 -9t-17.5 -15.5t-6.5 -22.5q0 -17 11.5 -32.5t28 -27
t36 -18.5t36.5 -7q22 0 72 16t110 40z" />
    <glyph glyph-name="uni0676.fina" unicode="&#x676;" horiz-adv-x="1032" 
d="M694 320q-149 10 -220.5 52.5t-71.5 134.5q0 57 18.5 114t48 102.5t67 74.5t76.5 29t73 -29.5t63 -85.5q23 -47 37.5 -100t18.5 -115h228v-147h-236q-34 -196 -192 -336q-116 -100 -235 -100q-165 0 -297 170q-72 90 -72 127q0 10 6 10l2 2h2q6 -2 14 -8.5t19 -20.5
q22 -31 52.5 -55.5t66.5 -42t75.5 -26.5t79.5 -9q129 0 226 66.5t151 192.5zM715 466q1 15 -11.5 48.5t-34.5 68t-50.5 60.5t-57.5 26q-17 0 -31.5 -8t-25 -20.5t-16.5 -28t-6 -31.5q0 -20 13.5 -40.5t42 -37t72.5 -27t105 -10.5zM1032 1175q-8 -30 -16.5 -55.5l-13.5 -40.5
l-116.5 -37.5t-84 -31.5t-66.5 -35.5t-63 -50.5q-2 28 0 48.5t10 38.5q5 14 18 26.5t28 24.5q-33 21 -51.5 43.5t-18.5 59.5q0 26 13.5 56t38.5 55t60.5 41.5t79.5 16.5q35 0 61.5 -15.5t26.5 -44.5q0 -12 -9 -28t-26 -24q-19 14 -40 23t-47 9q-15 0 -29 -3t-25 -9
t-17.5 -15.5t-6.5 -22.5q0 -17 11.5 -32.5t28 -27t36 -18.5t36.5 -7q22 0 72 16t110 40z" />
    <glyph glyph-name="uni0677.fina" unicode="&#x677;" horiz-adv-x="1032" 
d="M694 320q-149 10 -220.5 52.5t-71.5 134.5q0 57 18.5 114t48 102.5t67 74.5t76.5 29t73 -29.5t63 -85.5q23 -47 37.5 -100t18.5 -115h228v-147h-236q-34 -196 -192 -336q-116 -100 -235 -100q-165 0 -297 170q-72 90 -72 127q0 10 6 10l2 2h2q6 -2 14 -8.5t19 -20.5
q22 -31 52.5 -55.5t66.5 -42t75.5 -26.5t79.5 -9q129 0 226 66.5t151 192.5zM715 466q1 15 -11.5 48.5t-34.5 68t-50.5 60.5t-57.5 26q-17 0 -31.5 -8t-25 -20.5t-16.5 -28t-6 -31.5q0 -20 13.5 -40.5t42 -37t72.5 -27t105 -10.5zM1032 1175q-8 -30 -16.5 -55.5l-13.5 -40.5
l-116.5 -37.5t-84 -31.5t-66.5 -35.5t-63 -50.5q-2 28 0 48.5t10 38.5q5 14 18 26.5t28 24.5q-33 21 -51.5 43.5t-18.5 59.5q0 26 13.5 56t38.5 55t60.5 41.5t79.5 16.5q35 0 61.5 -15.5t26.5 -44.5q0 -12 -9 -28t-26 -24q-19 14 -40 23t-47 9q-15 0 -29 -3t-25 -9
t-17.5 -15.5t-6.5 -22.5q0 -17 11.5 -32.5t28 -27t36 -18.5t36.5 -7q22 0 72 16t110 40zM394 1102q-51 13 -82 28t-47.5 30t-22 30.5t-5.5 31.5q0 28 13.5 59t35.5 57.5t49.5 43.5t55.5 17q19 0 36 -10.5t30 -33t21 -58.5t8 -86q0 -57 -20.5 -99.5t-52 -72.5t-68 -50
t-69 -31t-56 -15.5t-27.5 -4.5t-15.5 4t-25.5 10.5t-27.5 14t-21.5 14.5q48 10 93 22.5t83 27.5t67.5 33t47.5 38zM432 1181q2 5 2 11v11q0 23 -4.5 44t-13.5 36.5t-21.5 24.5t-28.5 9q-12 0 -25.5 -4t-24.5 -11t-18.5 -16t-7.5 -18q0 -7 4 -17t18.5 -21.5t43 -24
t76.5 -24.5z" />
    <glyph glyph-name="uni0678.init" unicode="&#x678;" horiz-adv-x="893" 
d="M416 892q31 -49 58 -96.5t46.5 -97.5t31 -105.5t11.5 -119.5q0 -83 -51 -111q-51 -26 -205 -26q-96 0 -171.5 4.5t-145.5 9.5q-25 0 -34 15t-9 59t8.5 58.5t34.5 14.5q8 0 31.5 -1t54.5 -2.5t67 -3.5t69 -3.5t60.5 -2.5t42.5 -1q109 0 129 21q-3 27 -12.5 54.5
t-23.5 54.5t-31 54l-35 53q14 43 32.5 86t41.5 86zM893 1176q-8 -30 -16.5 -55.5l-13.5 -40.5l-116.5 -37.5t-84 -31.5t-66.5 -35.5t-63 -50.5q-2 28 0 48.5t10 38.5q5 14 18 26.5t28 24.5q-33 21 -51.5 43.5t-18.5 59.5q0 26 13.5 56t38.5 55t60.5 41.5t79.5 16.5
q35 0 61.5 -15.5t26.5 -44.5q0 -12 -9 -28t-26 -24q-19 14 -40 23t-47 9q-15 0 -29 -3t-25 -9t-17.5 -15.5t-6.5 -22.5q0 -17 11.5 -32.5t28 -27t36 -18.5t36.5 -7q22 0 72 16t110 40z" />
    <glyph glyph-name="uni0678.medi" unicode="&#x678;" horiz-adv-x="873" 
d="M873 350h-324q-11 0 -21 2t-16 10q-51 -26 -205 -26q-96 0 -171.5 4.5t-145.5 9.5q-25 0 -34 15t-9 59t8.5 58.5t34.5 14.5q8 0 31.5 -1t54.5 -2.5t67 -3.5t69 -3.5t60.5 -2.5t42.5 -1q109 0 129 21q-3 27 -12.5 54.5t-23.5 54.5t-31 54l-35 53q14 43 32.5 86t41.5 86
q30 -47 55.5 -92t45 -92.5t31.5 -99t14 -111.5h311v-147zM873 1175q-8 -30 -16.5 -55.5l-13.5 -40.5l-116.5 -37.5t-84 -31.5t-66.5 -35.5t-63 -50.5q-2 28 0 48.5t10 38.5q5 14 18 26.5t28 24.5q-33 21 -51.5 43.5t-18.5 59.5q0 26 13.5 56t38.5 55t60.5 41.5t79.5 16.5
q35 0 61.5 -15.5t26.5 -44.5q0 -12 -9 -28t-26 -24q-19 14 -40 23t-47 9q-15 0 -29 -3t-25 -9t-17.5 -15.5t-6.5 -22.5q0 -17 11.5 -32.5t28 -27t36 -18.5t36.5 -7q22 0 72 16t110 40z" />
    <glyph glyph-name="uni0678.fina" unicode="&#x678;" horiz-adv-x="1316" 
d="M1316 497v-147h-366q-46 0 -80.5 -7t-57 -16.5t-34 -19.5t-11.5 -16q0 -12 17.5 -21.5t48.5 -18t72.5 -16l89.5 -15.5q29 -5 37.5 -17t8.5 -22q0 -25 -4 -53.5t-11 -54.5t-15.5 -46.5t-18.5 -29.5q-51 -47 -117 -84.5t-137 -63.5t-141.5 -40t-130.5 -14q-86 0 -156 21.5
t-119 64.5t-75.5 108t-26.5 152q0 37 7.5 79.5t21 85.5t33 85t42.5 78q20 31 34 31q10 0 10 -13q0 -9 -11 -31q-36 -75 -48 -134.5t-12 -106.5q0 -69 25 -120t68 -84t100.5 -49.5t123.5 -16.5q55 0 111.5 11t112.5 30.5t111 45.5t108 56v8q-87 9 -140 22.5t-81.5 30
t-38.5 35t-10 36.5q0 12 6.5 37t21 55.5t39 63.5t60.5 59.5t84 44t110 17.5h339zM1316 1175q-8 -30 -16.5 -55.5l-13.5 -40.5l-116.5 -37.5t-84 -31.5t-66.5 -35.5t-63 -50.5q-2 28 0 48.5t10 38.5q5 14 18 26.5t28 24.5q-33 21 -51.5 43.5t-18.5 59.5q0 26 13.5 56t38.5 55
t60.5 41.5t79.5 16.5q35 0 61.5 -15.5t26.5 -44.5q0 -12 -9 -28t-26 -24q-19 14 -40 23t-47 9q-15 0 -29 -3t-25 -9t-17.5 -15.5t-6.5 -22.5q0 -17 11.5 -32.5t28 -27t36 -18.5t36.5 -7q22 0 72 16t110 40z" />
    <glyph glyph-name="uniFB68" unicode="&#x679;" horiz-adv-x="649" arabic-form="initial" 
d="M416 892q31 -49 58 -96.5t46.5 -97.5t31 -105.5t11.5 -119.5q0 -83 -51 -111q-51 -26 -205 -26q-96 0 -171.5 4.5t-145.5 9.5q-25 0 -34 15t-9 59t8.5 58.5t34.5 14.5q8 0 31.5 -1t54.5 -2.5t67 -3.5t69 -3.5t60.5 -2.5t42.5 -1q109 0 129 21q-3 27 -12.5 54.5
t-23.5 54.5t-31 54l-35 53q14 43 32.5 86t41.5 86zM178 1138l42.5 -4t42.5 -2q39 0 73.5 1t61 4t41.5 8t15 13q0 11 -8.5 26t-23.5 29t-34.5 23.5t-41.5 9.5q-30 0 -73 -28t-97 -78zM208 1526q11 -54 14.5 -108t3.5 -103q0 -38 -11 -79l36.5 36t37.5 31.5t39 22t41 8.5
q22 0 44 -9.5t42 -29.5q33 -35 42.5 -69t9.5 -72q0 -42 -12 -62t-35 -29q-7 -3 -17.5 -6t-28 -5.5t-44 -4t-65.5 -1.5q-15 0 -36 0.5t-45 2t-49.5 3.5t-48.5 4q-32 17 -55.5 42.5t-40.5 60.5q39 -2 63.5 1.5t39 12.5t19.5 22t5 30q0 44 -6 97.5t-17 113.5z" />
    <glyph glyph-name="uniFB69" unicode="&#x679;" horiz-adv-x="563" arabic-form="medial" 
d="M416 892q31 -49 58 -96.5t46.5 -97.5t31 -105.5t11.5 -119.5q0 -83 -51 -111q-51 -26 -205 -26q-96 0 -171.5 4.5t-145.5 9.5q-25 0 -34 15t-9 59t8.5 58.5t34.5 14.5q8 0 31.5 -1t54.5 -2.5t67 -3.5t69 -3.5t60.5 -2.5t42.5 -1q109 0 129 21q-3 27 -12.5 54.5
t-23.5 54.5t-31 54l-35 53q14 43 32.5 86t41.5 86zM178 1138l42.5 -4t42.5 -2q39 0 73.5 1t61 4t41.5 8t15 13q0 11 -8.5 26t-23.5 29t-34.5 23.5t-41.5 9.5q-30 0 -73 -28t-97 -78zM208 1526q11 -54 14.5 -108t3.5 -103q0 -38 -11 -79l36.5 36t37.5 31.5t39 22t41 8.5
q22 0 44 -9.5t42 -29.5q33 -35 42.5 -69t9.5 -72q0 -42 -12 -62t-35 -29q-7 -3 -17.5 -6t-28 -5.5t-44 -4t-65.5 -1.5q-15 0 -36 0.5t-45 2t-49.5 3.5t-48.5 4q-32 17 -55.5 42.5t-40.5 60.5q39 -2 63.5 1.5t39 12.5t19.5 22t5 30q0 44 -6 97.5t-17 113.5z" />
    <glyph glyph-name="uniFB67" unicode="&#x679;" horiz-adv-x="1210" arabic-form="final" 
d="M1036 655q16 51 36.5 98t35.5 73q51 -71 76.5 -160t25.5 -177q0 -97 -49 -129q-25 -16 -69.5 -30t-101 -25.5t-121 -20.5t-128 -15t-122.5 -9.5t-105 -3.5q-99 0 -177.5 17t-132.5 48.5t-83 77.5t-29 105t31 137q33 83 61 92l2 2q2 0 4 -2h3l2 -2v-4q0 -15 -7 -35
q-18 -59 -18 -115q0 -43 20 -73t64 -49t113 -28t168 -9q98 0 194.5 6.5t178.5 17t141 23.5t82 26q-2 19 -11 41t-22 44t-29.5 42.5t-32.5 36.5zM528 863l42.5 -4t42.5 -2q39 0 73.5 1t61 4t41.5 8t15 13q0 11 -8.5 26t-23.5 29t-34.5 23.5t-41.5 9.5q-30 0 -73 -28t-97 -78z
M558 1251q11 -54 14.5 -108t3.5 -103q0 -38 -11 -79l36.5 36t37.5 31.5t39 22t41 8.5q22 0 44 -9.5t42 -29.5q33 -35 42.5 -69t9.5 -72q0 -42 -12 -62t-35 -29q-7 -3 -17.5 -6t-28 -5.5t-44 -4t-65.5 -1.5q-15 0 -36 0.5t-45 2t-49.5 3.5t-48.5 4q-32 17 -55.5 42.5
t-40.5 60.5q39 -2 63.5 1.5t39 12.5t19.5 22t5 30q0 44 -6 97.5t-17 113.5z" />
    <glyph glyph-name="uniFB60" unicode="&#x67a;" horiz-adv-x="649" arabic-form="initial" 
d="M416 892q31 -49 58 -96.5t46.5 -97.5t31 -105.5t11.5 -119.5q0 -83 -51 -111q-51 -26 -205 -26q-96 0 -171.5 4.5t-145.5 9.5q-25 0 -34 15t-9 59t8.5 58.5t34.5 14.5q8 0 31.5 -1t54.5 -2.5t67 -3.5t69 -3.5t60.5 -2.5t42.5 -1q109 0 129 21q-3 27 -12.5 54.5
t-23.5 54.5t-31 54l-35 53q14 43 32.5 86t41.5 86zM325 1013l-86 56l-86 53q20 36 39.5 66.5t41.5 56.5l85 -51.5l85 -54.5q-17 -35 -37.5 -66.5t-41.5 -59.5zM271 1276l-173 111q23 38 44.5 68.5l41.5 56.5l83 -54l83 -56q-17 -35 -37.5 -66.5t-41.5 -59.5z" />
    <glyph glyph-name="uniFB61" unicode="&#x67a;" horiz-adv-x="563" arabic-form="medial" 
d="M416 892q31 -49 58 -96.5t46.5 -97.5t31 -105.5t11.5 -119.5q0 -83 -51 -111q-51 -26 -205 -26q-96 0 -171.5 4.5t-145.5 9.5q-25 0 -34 15t-9 59t8.5 58.5t34.5 14.5q8 0 31.5 -1t54.5 -2.5t67 -3.5t69 -3.5t60.5 -2.5t42.5 -1q109 0 129 21q-3 27 -12.5 54.5
t-23.5 54.5t-31 54l-35 53q14 43 32.5 86t41.5 86zM325 1013l-86 56l-86 53q20 36 39.5 66.5t41.5 56.5l85 -51.5l85 -54.5q-17 -35 -37.5 -66.5t-41.5 -59.5zM271 1276l-173 111q23 38 44.5 68.5l41.5 56.5l83 -54l83 -56q-17 -35 -37.5 -66.5t-41.5 -59.5z" />
    <glyph glyph-name="uniFB5F" unicode="&#x67a;" horiz-adv-x="1210" arabic-form="final" 
d="M1036 655q16 51 36.5 98t35.5 73q51 -71 76.5 -160t25.5 -177q0 -97 -49 -129q-25 -16 -69.5 -30t-101 -25.5t-121 -20.5t-128 -15t-122.5 -9.5t-105 -3.5q-99 0 -177.5 17t-132.5 48.5t-83 77.5t-29 105t31 137q33 83 61 92l2 2q2 0 4 -2h3l2 -2v-4q0 -15 -7 -35
q-18 -59 -18 -115q0 -43 20 -73t64 -49t113 -28t168 -9q98 0 194.5 6.5t178.5 17t141 23.5t82 26q-2 19 -11 41t-22 44t-29.5 42.5t-32.5 36.5zM683 769l-86 56l-86 53q20 36 39.5 66.5t41.5 56.5l85 -51.5l85 -54.5q-17 -35 -37.5 -66.5t-41.5 -59.5zM629 1032l-173 111
q23 38 44.5 68.5l41.5 56.5l83 -54l83 -56q-17 -35 -37.5 -66.5t-41.5 -59.5z" />
    <glyph glyph-name="uniFB54" unicode="&#x67b;" horiz-adv-x="649" arabic-form="initial" 
d="M416 892q31 -49 58 -96.5t46.5 -97.5t31 -105.5t11.5 -119.5q0 -83 -51 -111q-51 -26 -205 -26q-96 0 -171.5 4.5t-145.5 9.5q-25 0 -34 15t-9 59t8.5 58.5t34.5 14.5q8 0 31.5 -1t54.5 -2.5t67 -3.5t69 -3.5t60.5 -2.5t42.5 -1q109 0 129 21q-3 27 -12.5 54.5
t-23.5 54.5t-31 54l-35 53q14 43 32.5 86t41.5 86zM397 -283l-86 56l-86 53q20 36 39.5 66.5t41.5 56.5l85 -51.5l85 -54.5q-17 -35 -37.5 -66.5t-41.5 -59.5zM343 -20l-173 111q23 38 44.5 68.5l41.5 56.5l83 -54l83 -56q-17 -35 -37.5 -66.5t-41.5 -59.5z" />
    <glyph glyph-name="uniFB55" unicode="&#x67b;" horiz-adv-x="563" arabic-form="medial" 
d="M416 892q31 -49 58 -96.5t46.5 -97.5t31 -105.5t11.5 -119.5q0 -83 -51 -111q-51 -26 -205 -26q-96 0 -171.5 4.5t-145.5 9.5q-25 0 -34 15t-9 59t8.5 58.5t34.5 14.5q8 0 31.5 -1t54.5 -2.5t67 -3.5t69 -3.5t60.5 -2.5t42.5 -1q109 0 129 21q-3 27 -12.5 54.5
t-23.5 54.5t-31 54l-35 53q14 43 32.5 86t41.5 86zM397 -283l-86 56l-86 53q20 36 39.5 66.5t41.5 56.5l85 -51.5l85 -54.5q-17 -35 -37.5 -66.5t-41.5 -59.5zM343 -20l-173 111q23 38 44.5 68.5l41.5 56.5l83 -54l83 -56q-17 -35 -37.5 -66.5t-41.5 -59.5z" />
    <glyph glyph-name="uniFB53" unicode="&#x67b;" horiz-adv-x="1210" arabic-form="final" 
d="M1036 655q16 51 36.5 98t35.5 73q51 -71 76.5 -160t25.5 -177q0 -97 -49 -129q-25 -16 -69.5 -30t-101 -25.5t-121 -20.5t-128 -15t-122.5 -9.5t-105 -3.5q-99 0 -177.5 17t-132.5 48.5t-83 77.5t-29 105t31 137q33 83 61 92l2 2q2 0 4 -2h3l2 -2v-4q0 -15 -7 -35
q-18 -59 -18 -115q0 -43 20 -73t64 -49t113 -28t168 -9q98 0 194.5 6.5t178.5 17t141 23.5t82 26q-2 19 -11 41t-22 44t-29.5 42.5t-32.5 36.5zM767 -363l-86 56l-86 53q20 36 39.5 66.5t41.5 56.5l85 -51.5l85 -54.5q-17 -35 -37.5 -66.5t-41.5 -59.5zM713 -100l-173 111
q23 38 44.5 68.5l41.5 56.5l83 -54l83 -56q-17 -35 -37.5 -66.5t-41.5 -59.5z" />
    <glyph glyph-name="uni067C.init" unicode="&#x67c;" horiz-adv-x="662" 
d="M279 1148l-55 -96l-180 107q23 46 40.5 76t35.5 53l157 -93l57 94l100.5 -59.5t81.5 -43.5q-16 -37 -33 -70t-38 -67zM196 201q0 39 12 73.5t33 62.5q-72 2 -133 5.5t-118 7.5q-25 0 -34 15t-9 59t8.5 58.5t34.5 14.5q8 0 31.5 -1t54.5 -2.5t67 -3.5t69 -3.5t60.5 -2.5
t42.5 -1q109 0 129 21q-3 27 -12.5 54.5t-23.5 54.5t-31 54l-35 53q14 43 32.5 86t41.5 86q31 -49 58 -96.5t46.5 -97.5t31 -105.5t11.5 -119.5q0 -83 -51 -111q-33 -17 -108 -23q27 -34 27 -82q0 -30 -7 -60t-22.5 -54t-40 -38.5t-60.5 -14.5q-49 0 -77 31t-28 80zM309 316
q-13 0 -26.5 -9t-24 -23t-17 -30t-6.5 -30q0 -27 20.5 -42.5t47.5 -15.5q32 0 57.5 12.5t25.5 43.5q0 12 -5.5 28t-15.5 31t-24.5 25t-31.5 10z" />
    <glyph glyph-name="uni067C.medi" unicode="&#x67c;" horiz-adv-x="563" 
d="M279 1148l-55 -96l-180 107q23 46 40.5 76t35.5 53l157 -93l57 94l100.5 -59.5t81.5 -43.5q-16 -37 -33 -70t-38 -67zM196 201q0 39 12 73.5t33 62.5q-72 2 -133 5.5t-118 7.5q-25 0 -34 15t-9 59t8.5 58.5t34.5 14.5q8 0 31.5 -1t54.5 -2.5t67 -3.5t69 -3.5t60.5 -2.5
t42.5 -1q109 0 129 21q-3 27 -12.5 54.5t-23.5 54.5t-31 54l-35 53q14 43 32.5 86t41.5 86q31 -49 58 -96.5t46.5 -97.5t31 -105.5t11.5 -119.5q0 -83 -51 -111q-33 -17 -108 -23q27 -34 27 -82q0 -30 -7 -60t-22.5 -54t-40 -38.5t-60.5 -14.5q-49 0 -77 31t-28 80zM309 316
q-13 0 -26.5 -9t-24 -23t-17 -30t-6.5 -30q0 -27 20.5 -42.5t47.5 -15.5q32 0 57.5 12.5t25.5 43.5q0 12 -5.5 28t-15.5 31t-24.5 25t-31.5 10z" />
    <glyph glyph-name="uni067C.fina" unicode="&#x67c;" horiz-adv-x="1210" 
d="M634 883l-55 -96l-180 107q23 46 40.5 76t35.5 53l157 -93l57 94l100.5 -59.5t81.5 -43.5q-16 -37 -33 -70t-38 -67zM1042 650l7 16q15 48 30 83.5t29 58.5q51 -71 76.5 -151t25.5 -168q0 -95 -49 -129q-52 -36 -260 -70q-39 -6 -76.5 -11t-74.5 -9q29 -38 29 -85
q0 -30 -7 -60t-22.5 -54t-40 -38.5t-60.5 -14.5q-49 0 -77 31t-28 80q0 36 10.5 68.5t28.5 59.5q-17 -1 -35 -1h-34q-99 0 -177.5 17t-132.5 48.5t-83 77.5t-29 105t31 137q33 83 61 92l2 2q2 0 4 -2h3l2 -2v-4q0 -15 -7 -35q-18 -59 -18 -115q0 -43 20 -73t64 -49t113 -28
t168 -9q81 0 172.5 5t193.5 18q102 14 158.5 26.5t70.5 23.5l3 2v4q-5 41 -32 81t-59 72zM657 244q-13 0 -26.5 -9t-24 -23t-17 -30t-6.5 -30q0 -27 20.5 -42.5t47.5 -15.5q32 0 57.5 12.5t25.5 43.5q0 12 -5.5 28t-15.5 31t-24.5 25t-31.5 10z" />
    <glyph glyph-name="uni067D.init" unicode="&#x67d;" horiz-adv-x="662" 
d="M416 892q31 -49 58 -96.5t46.5 -97.5t31 -105.5t11.5 -119.5q0 -83 -51 -111q-51 -26 -205 -26q-96 0 -171.5 4.5t-145.5 9.5q-25 0 -34 15t-9 59t8.5 58.5t34.5 14.5q8 0 31.5 -1t54.5 -2.5t67 -3.5t69 -3.5t60.5 -2.5t42.5 -1q109 0 129 21q-3 27 -12.5 54.5
t-23.5 54.5t-31 54l-35 53q14 43 32.5 86t41.5 86zM303 1490l186 -110q-20 -42 -39 -73t-36 -54l-166 94l-58 -94l-20 12l-89.5 54t-70.5 38q14 32 31.5 65t40.5 68l160 -96zM276 1251l170 -99l-10 -20q-18 -32 -33.5 -56.5t-27.5 -41.5l-35 18l-68.5 37l-62.5 35
q11 26 27.5 58t39.5 69z" />
    <glyph glyph-name="uni067D.medi" unicode="&#x67d;" horiz-adv-x="563" 
d="M416 892q31 -49 58 -96.5t46.5 -97.5t31 -105.5t11.5 -119.5q0 -83 -51 -111q-51 -26 -205 -26q-96 0 -171.5 4.5t-145.5 9.5q-25 0 -34 15t-9 59t8.5 58.5t34.5 14.5q8 0 31.5 -1t54.5 -2.5t67 -3.5t69 -3.5t60.5 -2.5t42.5 -1q109 0 129 21q-3 27 -12.5 54.5
t-23.5 54.5t-31 54l-35 53q14 43 32.5 86t41.5 86zM275 1490l186 -110q-20 -42 -39 -73t-36 -54l-166 94l-58 -94l-20 12l-89.5 54t-70.5 38q14 32 31.5 65t40.5 68l160 -96zM248 1251l170 -99l-10 -20q-18 -32 -33.5 -56.5t-27.5 -41.5l-35 18l-68.5 37l-62.5 35
q11 26 27.5 58t39.5 69z" />
    <glyph glyph-name="uni067D.fina" unicode="&#x67d;" horiz-adv-x="1210" 
d="M1036 655q16 51 36.5 98t35.5 73q51 -71 76.5 -160t25.5 -177q0 -97 -49 -129q-25 -16 -69.5 -30t-101 -25.5t-121 -20.5t-128 -15t-122.5 -9.5t-105 -3.5q-99 0 -177.5 17t-132.5 48.5t-83 77.5t-29 105t31 137q33 83 61 92l2 2q2 0 4 -2h3l2 -2v-4q0 -15 -7 -35
q-18 -59 -18 -115q0 -43 20 -73t64 -49t113 -28t168 -9q98 0 194.5 6.5t178.5 17t141 23.5t82 26q-2 19 -11 41t-22 44t-29.5 42.5t-32.5 36.5zM633 1246l186 -110q-20 -42 -39 -73t-36 -54l-166 94l-58 -94l-20 12l-89.5 54t-70.5 38q14 32 31.5 65t40.5 68l160 -96z
M606 1007l170 -99l-10 -20q-18 -32 -33.5 -56.5t-27.5 -41.5l-35 18l-68.5 37l-62.5 35q11 26 27.5 58t39.5 69z" />
    <glyph glyph-name="uniFB58" unicode="&#x67e;" horiz-adv-x="649" arabic-form="initial" 
d="M416 892q31 -49 58 -96.5t46.5 -97.5t31 -105.5t11.5 -119.5q0 -83 -51 -111q-51 -26 -205 -26q-96 0 -171.5 4.5t-145.5 9.5q-25 0 -34 15t-9 59t8.5 58.5t34.5 14.5q8 0 31.5 -1t54.5 -2.5t67 -3.5t69 -3.5t60.5 -2.5t42.5 -1q109 0 129 21q-3 27 -12.5 54.5
t-23.5 54.5t-31 54l-35 53q14 43 32.5 86t41.5 86zM296 194l186 -110q-20 -42 -39 -73t-36 -54l-166 94l-58 -94l-20 12l-89.5 54t-70.5 38q14 32 31.5 65t40.5 68l160 -96zM269 -45l170 -99l-10 -20q-18 -32 -33.5 -56.5t-27.5 -41.5l-35 18l-68.5 37l-62.5 35
q11 26 27.5 58t39.5 69z" />
    <glyph glyph-name="uniFB59" unicode="&#x67e;" horiz-adv-x="563" arabic-form="medial" 
d="M416 892q31 -49 58 -96.5t46.5 -97.5t31 -105.5t11.5 -119.5q0 -83 -51 -111q-51 -26 -205 -26q-96 0 -171.5 4.5t-145.5 9.5q-25 0 -34 15t-9 59t8.5 58.5t34.5 14.5q8 0 31.5 -1t54.5 -2.5t67 -3.5t69 -3.5t60.5 -2.5t42.5 -1q109 0 129 21q-3 27 -12.5 54.5
t-23.5 54.5t-31 54l-35 53q14 43 32.5 86t41.5 86zM296 194l186 -110q-20 -42 -39 -73t-36 -54l-166 94l-58 -94l-20 12l-89.5 54t-70.5 38q14 32 31.5 65t40.5 68l160 -96zM269 -45l170 -99l-10 -20q-18 -32 -33.5 -56.5t-27.5 -41.5l-35 18l-68.5 37l-62.5 35
q11 26 27.5 58t39.5 69z" />
    <glyph glyph-name="uniFB57" unicode="&#x67e;" horiz-adv-x="1210" arabic-form="final" 
d="M1036 655q16 51 36.5 98t35.5 73q51 -71 76.5 -160t25.5 -177q0 -97 -49 -129q-25 -16 -69.5 -30t-101 -25.5t-121 -20.5t-128 -15t-122.5 -9.5t-105 -3.5q-99 0 -177.5 17t-132.5 48.5t-83 77.5t-29 105t31 137q33 83 61 92l2 2q2 0 4 -2h3l2 -2v-4q0 -15 -7 -35
q-18 -59 -18 -115q0 -43 20 -73t64 -49t113 -28t168 -9q98 0 194.5 6.5t178.5 17t141 23.5t82 26q-2 19 -11 41t-22 44t-29.5 42.5t-32.5 36.5zM727 114l186 -110q-20 -42 -39 -73t-36 -54l-166 94l-58 -94l-20 12l-89.5 54t-70.5 38q14 32 31.5 65t40.5 68l160 -96z
M700 -125l170 -99l-10 -20q-18 -32 -33.5 -56.5t-27.5 -41.5l-35 18l-68.5 37l-62.5 35q11 26 27.5 58t39.5 69z" />
    <glyph glyph-name="uniFB64" unicode="&#x67f;" horiz-adv-x="662" arabic-form="initial" 
d="M416 892q31 -49 58 -96.5t46.5 -97.5t31 -105.5t11.5 -119.5q0 -83 -51 -111q-51 -26 -205 -26q-96 0 -171.5 4.5t-145.5 9.5q-25 0 -34 15t-9 59t8.5 58.5t34.5 14.5q8 0 31.5 -1t54.5 -2.5t67 -3.5t69 -3.5t60.5 -2.5t42.5 -1q109 0 129 21q-3 27 -12.5 54.5
t-23.5 54.5t-31 54l-35 53q14 43 32.5 86t41.5 86zM217 1377l-69 -108l-171 107q23 43 42.5 71.5t37.5 50.5l163 -108l75 109l89.5 -58.5l75.5 -49.5q-17 -33 -34.5 -63t-40.5 -61zM279 1135l-70 -110l-170 109q23 43 43.5 71t38.5 50l163 -108l73 110l91 -60l77 -51
l-76 -122z" />
    <glyph glyph-name="uniFB65" unicode="&#x67f;" horiz-adv-x="563" arabic-form="medial" 
d="M416 892q31 -49 58 -96.5t46.5 -97.5t31 -105.5t11.5 -119.5q0 -83 -51 -111q-51 -26 -205 -26q-96 0 -171.5 4.5t-145.5 9.5q-25 0 -34 15t-9 59t8.5 58.5t34.5 14.5q8 0 31.5 -1t54.5 -2.5t67 -3.5t69 -3.5t60.5 -2.5t42.5 -1q109 0 129 21q-3 27 -12.5 54.5
t-23.5 54.5t-31 54l-35 53q14 43 32.5 86t41.5 86zM217 1377l-69 -108l-171 107q23 43 42.5 71.5t37.5 50.5l163 -108l75 109l89.5 -58.5l75.5 -49.5q-17 -33 -34.5 -63t-40.5 -61zM279 1135l-70 -110l-170 109q23 43 43.5 71t38.5 50l163 -108l73 110l91 -60l77 -51
l-76 -122z" />
    <glyph glyph-name="uniFB63" unicode="&#x67f;" horiz-adv-x="1210" arabic-form="final" 
d="M1036 655q16 51 36.5 98t35.5 73q51 -71 76.5 -160t25.5 -177q0 -97 -49 -129q-25 -16 -69.5 -30t-101 -25.5t-121 -20.5t-128 -15t-122.5 -9.5t-105 -3.5q-99 0 -177.5 17t-132.5 48.5t-83 77.5t-29 105t31 137q33 83 61 92l2 2q2 0 4 -2h3l2 -2v-4q0 -15 -7 -35
q-18 -59 -18 -115q0 -43 20 -73t64 -49t113 -28t168 -9q98 0 194.5 6.5t178.5 17t141 23.5t82 26q-2 19 -11 41t-22 44t-29.5 42.5t-32.5 36.5zM575 1133l-69 -108l-171 107q23 43 42.5 71.5t37.5 50.5l163 -108l75 109l89.5 -58.5l75.5 -49.5q-17 -33 -34.5 -63t-40.5 -61z
M637 891l-70 -110l-170 109q23 43 43.5 71t38.5 50l163 -108l73 110l91 -60l77 -51l-76 -122z" />
    <glyph glyph-name="uniFB5C" unicode="&#x680;" horiz-adv-x="649" arabic-form="initial" 
d="M416 892q31 -49 58 -96.5t46.5 -97.5t31 -105.5t11.5 -119.5q0 -83 -51 -111q-51 -26 -205 -26q-96 0 -171.5 4.5t-145.5 9.5q-25 0 -34 15t-9 59t8.5 58.5t34.5 14.5q8 0 31.5 -1t54.5 -2.5t67 -3.5t69 -3.5t60.5 -2.5t42.5 -1q109 0 129 21q-3 27 -12.5 54.5
t-23.5 54.5t-31 54l-35 53q14 43 32.5 86t41.5 86zM246 81l-69 -108l-171 107q23 43 42.5 71.5t37.5 50.5l163 -108l75 109l89.5 -58.5l75.5 -49.5q-17 -33 -34.5 -63t-40.5 -61zM308 -161l-70 -110l-170 109q23 43 43.5 71t38.5 50l163 -108l73 110l91 -60l77 -51l-76 -122
z" />
    <glyph glyph-name="uniFB5D" unicode="&#x680;" horiz-adv-x="563" arabic-form="medial" 
d="M416 892q31 -49 58 -96.5t46.5 -97.5t31 -105.5t11.5 -119.5q0 -83 -51 -111q-51 -26 -205 -26q-96 0 -171.5 4.5t-145.5 9.5q-25 0 -34 15t-9 59t8.5 58.5t34.5 14.5q8 0 31.5 -1t54.5 -2.5t67 -3.5t69 -3.5t60.5 -2.5t42.5 -1q109 0 129 21q-3 27 -12.5 54.5
t-23.5 54.5t-31 54l-35 53q14 43 32.5 86t41.5 86zM246 81l-69 -108l-171 107q23 43 42.5 71.5t37.5 50.5l163 -108l75 109l89.5 -58.5l75.5 -49.5q-17 -33 -34.5 -63t-40.5 -61zM308 -161l-70 -110l-170 109q23 43 43.5 71t38.5 50l163 -108l73 110l91 -60l77 -51l-76 -122
z" />
    <glyph glyph-name="uniFB5B" unicode="&#x680;" horiz-adv-x="1210" arabic-form="final" 
d="M1036 655q16 51 36.5 98t35.5 73q51 -71 76.5 -160t25.5 -177q0 -97 -49 -129q-25 -16 -69.5 -30t-101 -25.5t-121 -20.5t-128 -15t-122.5 -9.5t-105 -3.5q-99 0 -177.5 17t-132.5 48.5t-83 77.5t-29 105t31 137q33 83 61 92l2 2q2 0 4 -2h3l2 -2v-4q0 -15 -7 -35
q-18 -59 -18 -115q0 -43 20 -73t64 -49t113 -28t168 -9q98 0 194.5 6.5t178.5 17t141 23.5t82 26q-2 19 -11 41t-22 44t-29.5 42.5t-32.5 36.5zM669 1l-69 -108l-171 107q23 43 42.5 71.5t37.5 50.5l163 -108l75 109l89.5 -58.5l75.5 -49.5q-17 -33 -34.5 -63t-40.5 -61z
M731 -241l-70 -110l-170 109q23 43 43.5 71t38.5 50l163 -108l73 110l91 -60l77 -51l-76 -122z" />
    <glyph glyph-name="uni0681.init" unicode="&#x681;" horiz-adv-x="1221" 
d="M1151 571q-3 -77 -29 -149l-194.5 -25t-164.5 -19t-154.5 -13.5t-165 -8.5t-196 -4.5t-247.5 -1.5q-16 0 -26.5 3.5t-16.5 12t-8 22.5t-2 36q0 24 1.5 38.5t7 22t16 10t28.5 2.5q149 0 260 -0.5t201 2t167 9t158 20.5v10l-140.5 87t-98.5 51q-77 30 -148 30
q-45 0 -147 -47q-23 -10 -33 -10h-4l-2 2v4q79 184 244 184q33 0 66.5 -6.5t73 -21.5t88 -40t110.5 -63q80 -48 132.5 -76.5t78.5 -39.5q26 -13 65.5 -18.5t79.5 -2.5zM735 1252q-8 -30 -15.5 -53.5t-14.5 -39.5l-118 -42t-86.5 -35.5t-66.5 -38t-56 -48.5v17q0 20 1.5 38.5
t8.5 33.5q5 14 17 26l26 25q-30 23 -48 47.5t-18 62.5q0 27 14.5 57.5t40 57t60 44t75.5 17.5q16 0 31.5 -4t28 -12.5t20 -20.5t7.5 -27q0 -13 -9.5 -28t-28.5 -25q-38 33 -87 33q-29 0 -51 -11t-22 -40q0 -17 10.5 -32.5t26 -28.5t34 -20.5t35.5 -7.5q11 0 33 5.5
t48.5 13.5t54 18z" />
    <glyph glyph-name="uni0681.medi" unicode="&#x681;" horiz-adv-x="1139" 
d="M1139 498v-148q-54 -1 -120 -3t-137 -3.5l-145 -3t-146 -1.5q-48 0 -103.5 1l-113.5 2t-115.5 2.5t-108.5 2.5t-92.5 2t-67.5 1q-25 0 -34 15t-9 59q0 23 1.5 37.5t6.5 22.5t16 11t29 3q97 -3 188.5 -5.5t186 -4.5t195.5 -3.5t217 -1.5v11q-81 64 -141 106t-100 64
q-77 43 -146 43q-49 0 -149 -48q-24 -11 -31 -11q-4 0 -6 2.5t-1 4.5q80 185 244 185q66 0 139 -37q37 -18 86.5 -50.5t112.5 -80.5l133.5 -98t78.5 -50q54 -26 132 -26zM735 1252q-8 -30 -15.5 -53.5t-14.5 -39.5l-118 -42t-86.5 -35.5t-66.5 -38t-56 -48.5v17
q0 20 1.5 38.5t8.5 33.5q5 14 17 26l26 25q-30 23 -48 47.5t-18 62.5q0 27 14.5 57.5t40 57t60 44t75.5 17.5q16 0 31.5 -4t28 -12.5t20 -20.5t7.5 -27q0 -13 -9.5 -28t-28.5 -25q-38 33 -87 33q-29 0 -51 -11t-22 -40q0 -17 10.5 -32.5t26 -28.5t34 -20.5t35.5 -7.5
q11 0 33 5.5t48.5 13.5t54 18z" />
    <glyph glyph-name="uni0681.fina" unicode="&#x681;" horiz-adv-x="1064" 
d="M978 778q3 0 6.5 -2t3.5 -8q0 -1 -4.5 -13t-12 -29t-17.5 -36.5t-21.5 -35.5t-24 -27t-23.5 -11h-28q-4 -4 -4 -14q0 -33 17 -53.5t42.5 -32t54.5 -15.5t54 -4h43v-147h-78q-103 0 -157 37t-54 119q0 44 18 106q-69 -1 -142.5 -14.5t-143.5 -39.5t-132.5 -64.5
t-109 -89.5t-74 -115.5t-27.5 -141.5q0 -64 21.5 -111t58 -80.5t85 -55t103 -33.5t111.5 -16.5t110 -4.5q96 0 189 13.5t184 32.5q17 3 17 -10q0 -5 -4 -9q-114 -91 -236.5 -140t-267.5 -49q-95 0 -176.5 27t-141.5 79.5t-94 131t-34 181.5q0 121 39 219.5t108.5 174
t165 127.5t208.5 79v4q-32 13 -68.5 29.5t-75.5 31t-77.5 24.5t-72.5 10q-45 0 -93.5 -15t-105.5 -64q-5 -4 -10 -7.5t-11 -3.5q-5 0 -7.5 4t-2.5 9q0 8 4 16q24 55 50 94.5t56.5 65.5t67.5 38.5t83 12.5q62 0 128.5 -26.5t138.5 -59.5l76.5 -35t77.5 -30.5t78 -22t78 -8.5
q16 0 28.5 2.5t25.5 5.5zM765 1307q-8 -30 -15.5 -53.5t-14.5 -39.5l-118 -42t-86.5 -35.5t-66.5 -38t-56 -48.5v17q0 20 1.5 38.5t8.5 33.5q5 14 17 26l26 25q-30 23 -48 47.5t-18 62.5q0 27 14.5 57.5t40 57t60 44t75.5 17.5q16 0 31.5 -4t28 -12.5t20 -20.5t7.5 -27
q0 -13 -9.5 -28t-28.5 -25q-38 33 -87 33q-29 0 -51 -11t-22 -40q0 -17 10.5 -32.5t26 -28.5t34 -20.5t35.5 -7.5q11 0 33 5.5t48.5 13.5t54 18z" />
    <glyph glyph-name="uni0682.init" unicode="&#x682;" horiz-adv-x="1221" 
d="M1151 571q-3 -77 -29 -149l-194.5 -25t-164.5 -19t-154.5 -13.5t-165 -8.5t-196 -4.5t-247.5 -1.5q-16 0 -26.5 3.5t-16.5 12t-8 22.5t-2 36q0 24 1.5 38.5t7 22t16 10t28.5 2.5q149 0 260 -0.5t201 2t167 9t158 20.5v10l-140.5 87t-98.5 51q-77 30 -148 30
q-45 0 -147 -47q-23 -10 -33 -10h-4l-2 2v4q79 184 244 184q33 0 66.5 -6.5t73 -21.5t88 -40t110.5 -63q80 -48 132.5 -76.5t78.5 -39.5q26 -13 65.5 -18.5t79.5 -2.5zM571 1041l-86 56l-86 53q20 36 39.5 66.5t41.5 56.5l85 -51.5l85 -54.5q-17 -35 -37.5 -66.5
t-41.5 -59.5zM517 1304l-173 111q23 38 44.5 68.5l41.5 56.5l83 -54l83 -56q-17 -35 -37.5 -66.5t-41.5 -59.5z" />
    <glyph glyph-name="uni0682.medi" unicode="&#x682;" horiz-adv-x="1139" 
d="M1139 498v-148q-54 -1 -120 -3t-137 -3.5l-145 -3t-146 -1.5q-48 0 -103.5 1l-113.5 2t-115.5 2.5t-108.5 2.5t-92.5 2t-67.5 1q-25 0 -34 15t-9 59q0 23 1.5 37.5t6.5 22.5t16 11t29 3q97 -3 188.5 -5.5t186 -4.5t195.5 -3.5t217 -1.5v11q-81 64 -141 106t-100 64
q-77 43 -146 43q-49 0 -149 -48q-24 -11 -31 -11q-4 0 -6 2.5t-1 4.5q80 185 244 185q66 0 139 -37q37 -18 86.5 -50.5t112.5 -80.5l133.5 -98t78.5 -50q54 -26 132 -26zM571 1041l-86 56l-86 53q20 36 39.5 66.5t41.5 56.5l85 -51.5l85 -54.5q-17 -35 -37.5 -66.5
t-41.5 -59.5zM517 1304l-173 111q23 38 44.5 68.5l41.5 56.5l83 -54l83 -56q-17 -35 -37.5 -66.5t-41.5 -59.5z" />
    <glyph glyph-name="uni0682.fina" unicode="&#x682;" horiz-adv-x="1064" 
d="M978 778q3 0 6.5 -2t3.5 -8q0 -1 -4.5 -13t-12 -29t-17.5 -36.5t-21.5 -35.5t-24 -27t-23.5 -11h-28q-4 -4 -4 -14q0 -33 17 -53.5t42.5 -32t54.5 -15.5t54 -4h43v-147h-78q-103 0 -157 37t-54 119q0 44 18 106q-69 -1 -142.5 -14.5t-143.5 -39.5t-132.5 -64.5
t-109 -89.5t-74 -115.5t-27.5 -141.5q0 -64 21.5 -111t58 -80.5t85 -55t103 -33.5t111.5 -16.5t110 -4.5q96 0 189 13.5t184 32.5q17 3 17 -10q0 -5 -4 -9q-114 -91 -236.5 -140t-267.5 -49q-95 0 -176.5 27t-141.5 79.5t-94 131t-34 181.5q0 121 39 219.5t108.5 174
t165 127.5t208.5 79v4q-32 13 -68.5 29.5t-75.5 31t-77.5 24.5t-72.5 10q-45 0 -93.5 -15t-105.5 -64q-5 -4 -10 -7.5t-11 -3.5q-5 0 -7.5 4t-2.5 9q0 8 4 16q24 55 50 94.5t56.5 65.5t67.5 38.5t83 12.5q62 0 128.5 -26.5t138.5 -59.5l76.5 -35t77.5 -30.5t78 -22t78 -8.5
q16 0 28.5 2.5t25.5 5.5zM638 1062l-86 56l-86 53q20 36 39.5 66.5t41.5 56.5l85 -51.5l85 -54.5q-17 -35 -37.5 -66.5t-41.5 -59.5zM584 1325l-173 111q23 38 44.5 68.5l41.5 56.5l83 -54l83 -56q-17 -35 -37.5 -66.5t-41.5 -59.5z" />
    <glyph glyph-name="uniFB78" unicode="&#x683;" horiz-adv-x="1221" arabic-form="initial" 
d="M1151 571q-3 -77 -29 -149l-194.5 -25t-164.5 -19t-154.5 -13.5t-165 -8.5t-196 -4.5t-247.5 -1.5q-16 0 -26.5 3.5t-16.5 12t-8 22.5t-2 36q0 24 1.5 38.5t7 22t16 10t28.5 2.5q149 0 260 -0.5t201 2t167 9t158 20.5v10l-140.5 87t-98.5 51q-77 30 -148 30
q-45 0 -147 -47q-23 -10 -33 -10h-4l-2 2v4q79 184 244 184q33 0 66.5 -6.5t73 -21.5t88 -40t110.5 -63q80 -48 132.5 -76.5t78.5 -39.5q26 -13 65.5 -18.5t79.5 -2.5zM524 -32l-55 -96l-180 107q23 46 40.5 76t35.5 53l157 -93l57 94l100.5 -59.5t81.5 -43.5
q-16 -37 -33 -70t-38 -67z" />
    <glyph glyph-name="uniFB79" unicode="&#x683;" horiz-adv-x="1139" arabic-form="medial" 
d="M1139 498v-148q-54 -1 -120 -3t-137 -3.5l-145 -3t-146 -1.5q-48 0 -103.5 1l-113.5 2t-115.5 2.5t-108.5 2.5t-92.5 2t-67.5 1q-25 0 -34 15t-9 59q0 23 1.5 37.5t6.5 22.5t16 11t29 3q97 -3 188.5 -5.5t186 -4.5t195.5 -3.5t217 -1.5v11q-81 64 -141 106t-100 64
q-77 43 -146 43q-49 0 -149 -48q-24 -11 -31 -11q-4 0 -6 2.5t-1 4.5q80 185 244 185q66 0 139 -37q37 -18 86.5 -50.5t112.5 -80.5l133.5 -98t78.5 -50q54 -26 132 -26zM524 -42l-55 -96l-180 107q23 46 40.5 76t35.5 53l157 -93l57 94l100.5 -59.5t81.5 -43.5
q-16 -37 -33 -70t-38 -67z" />
    <glyph glyph-name="uniFB77" unicode="&#x683;" horiz-adv-x="1064" arabic-form="final" 
d="M978 778q3 0 6.5 -2t3.5 -8q0 -1 -4.5 -13t-12 -29t-17.5 -36.5t-21.5 -35.5t-24 -27t-23.5 -11h-28q-4 -4 -4 -14q0 -33 17 -53.5t42.5 -32t54.5 -15.5t54 -4h43v-147h-78q-103 0 -157 37t-54 119q0 44 18 106q-69 -1 -142.5 -14.5t-143.5 -39.5t-132.5 -64.5
t-109 -89.5t-74 -115.5t-27.5 -141.5q0 -64 21.5 -111t58 -80.5t85 -55t103 -33.5t111.5 -16.5t110 -4.5q96 0 189 13.5t184 32.5q17 3 17 -10q0 -5 -4 -9q-114 -91 -236.5 -140t-267.5 -49q-95 0 -176.5 27t-141.5 79.5t-94 131t-34 181.5q0 121 39 219.5t108.5 174
t165 127.5t208.5 79v4q-32 13 -68.5 29.5t-75.5 31t-77.5 24.5t-72.5 10q-45 0 -93.5 -15t-105.5 -64q-5 -4 -10 -7.5t-11 -3.5q-5 0 -7.5 4t-2.5 9q0 8 4 16q24 55 50 94.5t56.5 65.5t67.5 38.5t83 12.5q62 0 128.5 -26.5t138.5 -59.5l76.5 -35t77.5 -30.5t78 -22t78 -8.5
q16 0 28.5 2.5t25.5 5.5zM575 185l-55 -96l-180 107q23 46 40.5 76t35.5 53l157 -93l57 94l100.5 -59.5t81.5 -43.5q-16 -37 -33 -70t-38 -67z" />
    <glyph glyph-name="uniFB74" unicode="&#x684;" horiz-adv-x="1221" arabic-form="initial" 
d="M1151 571q-3 -77 -29 -149l-194.5 -25t-164.5 -19t-154.5 -13.5t-165 -8.5t-196 -4.5t-247.5 -1.5q-16 0 -26.5 3.5t-16.5 12t-8 22.5t-2 36q0 24 1.5 38.5t7 22t16 10t28.5 2.5q149 0 260 -0.5t201 2t167 9t158 20.5v10l-140.5 87t-98.5 51q-77 30 -148 30
q-45 0 -147 -47q-23 -10 -33 -10h-4l-2 2v4q79 184 244 184q33 0 66.5 -6.5t73 -21.5t88 -40t110.5 -63q80 -48 132.5 -76.5t78.5 -39.5q26 -13 65.5 -18.5t79.5 -2.5zM594 -306l-86 56l-86 53q20 36 39.5 66.5t41.5 56.5l85 -51.5l85 -54.5q-17 -35 -37.5 -66.5
t-41.5 -59.5zM540 -43l-173 111q23 38 44.5 68.5l41.5 56.5l83 -54l83 -56q-17 -35 -37.5 -66.5t-41.5 -59.5z" />
    <glyph glyph-name="uniFB75" unicode="&#x684;" horiz-adv-x="1139" arabic-form="medial" 
d="M1139 498v-148q-54 -1 -120 -3t-137 -3.5l-145 -3t-146 -1.5q-48 0 -103.5 1l-113.5 2t-115.5 2.5t-108.5 2.5t-92.5 2t-67.5 1q-25 0 -34 15t-9 59q0 23 1.5 37.5t6.5 22.5t16 11t29 3q97 -3 188.5 -5.5t186 -4.5t195.5 -3.5t217 -1.5v11q-81 64 -141 106t-100 64
q-77 43 -146 43q-49 0 -149 -48q-24 -11 -31 -11q-4 0 -6 2.5t-1 4.5q80 185 244 185q66 0 139 -37q37 -18 86.5 -50.5t112.5 -80.5l133.5 -98t78.5 -50q54 -26 132 -26zM594 -306l-86 56l-86 53q20 36 39.5 66.5t41.5 56.5l85 -51.5l85 -54.5q-17 -35 -37.5 -66.5
t-41.5 -59.5zM540 -43l-173 111q23 38 44.5 68.5l41.5 56.5l83 -54l83 -56q-17 -35 -37.5 -66.5t-41.5 -59.5z" />
    <glyph glyph-name="uniFB73" unicode="&#x684;" horiz-adv-x="1064" arabic-form="final" 
d="M978 778q3 0 6.5 -2t3.5 -8q0 -1 -4.5 -13t-12 -29t-17.5 -36.5t-21.5 -35.5t-24 -27t-23.5 -11h-28q-4 -4 -4 -14q0 -33 17 -53.5t42.5 -32t54.5 -15.5t54 -4h43v-147h-78q-103 0 -157 37t-54 119q0 44 18 106q-69 -1 -142.5 -14.5t-143.5 -39.5t-132.5 -64.5
t-109 -89.5t-74 -115.5t-27.5 -141.5q0 -64 21.5 -111t58 -80.5t85 -55t103 -33.5t111.5 -16.5t110 -4.5q96 0 189 13.5t184 32.5q17 3 17 -10q0 -5 -4 -9q-114 -91 -236.5 -140t-267.5 -49q-95 0 -176.5 27t-141.5 79.5t-94 131t-34 181.5q0 121 39 219.5t108.5 174
t165 127.5t208.5 79v4q-32 13 -68.5 29.5t-75.5 31t-77.5 24.5t-72.5 10q-45 0 -93.5 -15t-105.5 -64q-5 -4 -10 -7.5t-11 -3.5q-5 0 -7.5 4t-2.5 9q0 8 4 16q24 55 50 94.5t56.5 65.5t67.5 38.5t83 12.5q62 0 128.5 -26.5t138.5 -59.5l76.5 -35t77.5 -30.5t78 -22t78 -8.5
q16 0 28.5 2.5t25.5 5.5zM654 -36l-86 56l-86 53q20 36 39.5 66.5t41.5 56.5l85 -51.5l85 -54.5q-17 -35 -37.5 -66.5t-41.5 -59.5zM600 227l-173 111q23 38 44.5 68.5l41.5 56.5l83 -54l83 -56q-17 -35 -37.5 -66.5t-41.5 -59.5z" />
    <glyph glyph-name="uni0685.init" unicode="&#x685;" horiz-adv-x="1221" 
d="M1151 571q-3 -77 -29 -149l-194.5 -25t-164.5 -19t-154.5 -13.5t-165 -8.5t-196 -4.5t-247.5 -1.5q-16 0 -26.5 3.5t-16.5 12t-8 22.5t-2 36q0 24 1.5 38.5t7 22t16 10t28.5 2.5q149 0 260 -0.5t201 2t167 9t158 20.5v10l-140.5 87t-98.5 51q-77 30 -148 30
q-45 0 -147 -47q-23 -10 -33 -10h-4l-2 2v4q79 184 244 184q33 0 66.5 -6.5t73 -21.5t88 -40t110.5 -63q80 -48 132.5 -76.5t78.5 -39.5q26 -13 65.5 -18.5t79.5 -2.5zM467 1062l-186 110q20 42 39 73t36 54l166 -94l58 94l20 -12l89.5 -54t70.5 -38q-14 -32 -31.5 -65
t-40.5 -68l-160 96zM494 1301l-170 99l10 20q18 32 33.5 56.5t27.5 41.5l35 -18l68.5 -37l62.5 -35q-11 -26 -27.5 -58t-39.5 -69z" />
    <glyph glyph-name="uni0685.medi" unicode="&#x685;" horiz-adv-x="1139" 
d="M1139 498v-148q-54 -1 -120 -3t-137 -3.5l-145 -3t-146 -1.5q-48 0 -103.5 1l-113.5 2t-115.5 2.5t-108.5 2.5t-92.5 2t-67.5 1q-25 0 -34 15t-9 59q0 23 1.5 37.5t6.5 22.5t16 11t29 3q97 -3 188.5 -5.5t186 -4.5t195.5 -3.5t217 -1.5v11q-81 64 -141 106t-100 64
q-77 43 -146 43q-49 0 -149 -48q-24 -11 -31 -11q-4 0 -6 2.5t-1 4.5q80 185 244 185q66 0 139 -37q37 -18 86.5 -50.5t112.5 -80.5l133.5 -98t78.5 -50q54 -26 132 -26zM467 1062l-186 110q20 42 39 73t36 54l166 -94l58 94l20 -12l89.5 -54t70.5 -38q-14 -32 -31.5 -65
t-40.5 -68l-160 96zM494 1301l-170 99l10 20q18 32 33.5 56.5t27.5 41.5l35 -18l68.5 -37l62.5 -35q-11 -26 -27.5 -58t-39.5 -69z" />
    <glyph glyph-name="uni0685.fina" unicode="&#x685;" horiz-adv-x="1064" 
d="M978 778q3 0 6.5 -2t3.5 -8q0 -1 -4.5 -13t-12 -29t-17.5 -36.5t-21.5 -35.5t-24 -27t-23.5 -11h-28q-4 -4 -4 -14q0 -33 17 -53.5t42.5 -32t54.5 -15.5t54 -4h43v-147h-78q-103 0 -157 37t-54 119q0 44 18 106q-69 -1 -142.5 -14.5t-143.5 -39.5t-132.5 -64.5
t-109 -89.5t-74 -115.5t-27.5 -141.5q0 -64 21.5 -111t58 -80.5t85 -55t103 -33.5t111.5 -16.5t110 -4.5q96 0 189 13.5t184 32.5q17 3 17 -10q0 -5 -4 -9q-114 -91 -236.5 -140t-267.5 -49q-95 0 -176.5 27t-141.5 79.5t-94 131t-34 181.5q0 121 39 219.5t108.5 174
t165 127.5t208.5 79v4q-32 13 -68.5 29.5t-75.5 31t-77.5 24.5t-72.5 10q-45 0 -93.5 -15t-105.5 -64q-5 -4 -10 -7.5t-11 -3.5q-5 0 -7.5 4t-2.5 9q0 8 4 16q24 55 50 94.5t56.5 65.5t67.5 38.5t83 12.5q62 0 128.5 -26.5t138.5 -59.5l76.5 -35t77.5 -30.5t78 -22t78 -8.5
q16 0 28.5 2.5t25.5 5.5zM511 1088l-186 110q20 42 39 73t36 54l166 -94l58 94l20 -12l89.5 -54t70.5 -38q-14 -32 -31.5 -65t-40.5 -68l-160 96zM538 1327l-170 99l10 20q18 32 33.5 56.5t27.5 41.5l35 -18l68.5 -37l62.5 -35q-11 -26 -27.5 -58t-39.5 -69z" />
    <glyph glyph-name="uniFB7C" unicode="&#x686;" horiz-adv-x="1221" arabic-form="initial" 
d="M1151 571q-3 -77 -29 -149l-194.5 -25t-164.5 -19t-154.5 -13.5t-165 -8.5t-196 -4.5t-247.5 -1.5q-16 0 -26.5 3.5t-16.5 12t-8 22.5t-2 36q0 24 1.5 38.5t7 22t16 10t28.5 2.5q149 0 260 -0.5t201 2t167 9t158 20.5v10l-140.5 87t-98.5 51q-77 30 -148 30
q-45 0 -147 -47q-23 -10 -33 -10h-4l-2 2v4q79 184 244 184q33 0 66.5 -6.5t73 -21.5t88 -40t110.5 -63q80 -48 132.5 -76.5t78.5 -39.5q26 -13 65.5 -18.5t79.5 -2.5zM582 209l186 -110q-20 -42 -39 -73t-36 -54l-166 94l-58 -94l-20 12l-89.5 54t-70.5 38q14 32 31.5 65
t40.5 68l160 -96zM555 -30l170 -99l-10 -20q-18 -32 -33.5 -56.5t-27.5 -41.5l-35 18l-68.5 37l-62.5 35q11 26 27.5 58t39.5 69z" />
    <glyph glyph-name="uniFB7D" unicode="&#x686;" horiz-adv-x="1139" arabic-form="medial" 
d="M1139 498v-148q-54 -1 -120 -3t-137 -3.5l-145 -3t-146 -1.5q-48 0 -103.5 1l-113.5 2t-115.5 2.5t-108.5 2.5t-92.5 2t-67.5 1q-25 0 -34 15t-9 59q0 23 1.5 37.5t6.5 22.5t16 11t29 3q97 -3 188.5 -5.5t186 -4.5t195.5 -3.5t217 -1.5v11q-81 64 -141 106t-100 64
q-77 43 -146 43q-49 0 -149 -48q-24 -11 -31 -11q-4 0 -6 2.5t-1 4.5q80 185 244 185q66 0 139 -37q37 -18 86.5 -50.5t112.5 -80.5l133.5 -98t78.5 -50q54 -26 132 -26zM582 199l186 -110q-20 -42 -39 -73t-36 -54l-166 94l-58 -94l-20 12l-89.5 54t-70.5 38q14 32 31.5 65
t40.5 68l160 -96zM555 -40l170 -99l-10 -20q-18 -32 -33.5 -56.5t-27.5 -41.5l-35 18l-68.5 37l-62.5 35q11 26 27.5 58t39.5 69z" />
    <glyph glyph-name="uniFB7B" unicode="&#x686;" horiz-adv-x="1064" arabic-form="final" 
d="M978 778q3 0 6.5 -2t3.5 -8q0 -1 -4.5 -13t-12 -29t-17.5 -36.5t-21.5 -35.5t-24 -27t-23.5 -11h-28q-4 -4 -4 -14q0 -33 17 -53.5t42.5 -32t54.5 -15.5t54 -4h43v-147h-78q-103 0 -157 37t-54 119q0 44 18 106q-69 -1 -142.5 -14.5t-143.5 -39.5t-132.5 -64.5
t-109 -89.5t-74 -115.5t-27.5 -141.5q0 -64 21.5 -111t58 -80.5t85 -55t103 -33.5t111.5 -16.5t110 -4.5q96 0 189 13.5t184 32.5q17 3 17 -10q0 -5 -4 -9q-114 -91 -236.5 -140t-267.5 -49q-95 0 -176.5 27t-141.5 79.5t-94 131t-34 181.5q0 121 39 219.5t108.5 174
t165 127.5t208.5 79v4q-32 13 -68.5 29.5t-75.5 31t-77.5 24.5t-72.5 10q-45 0 -93.5 -15t-105.5 -64q-5 -4 -10 -7.5t-11 -3.5q-5 0 -7.5 4t-2.5 9q0 8 4 16q24 55 50 94.5t56.5 65.5t67.5 38.5t83 12.5q62 0 128.5 -26.5t138.5 -59.5l76.5 -35t77.5 -30.5t78 -22t78 -8.5
q16 0 28.5 2.5t25.5 5.5zM606 379l174 -103q-18 -40 -36.5 -69.5t-33.5 -49.5l-156 88l-54 -88l-19 11l-84 50.5t-66 35.5q14 31 29.5 61.5t37.5 63.5l151 -91zM580 151l160 -93l-10 -19l-31 -53.5t-26 -38.5l-32 17l-65 34.5l-59 32.5q11 24 26.5 54.5t36.5 65.5z" />
    <glyph glyph-name="uniFB80" unicode="&#x687;" horiz-adv-x="1221" arabic-form="initial" 
d="M1151 571q-3 -77 -29 -149l-194.5 -25t-164.5 -19t-154.5 -13.5t-165 -8.5t-196 -4.5t-247.5 -1.5q-16 0 -26.5 3.5t-16.5 12t-8 22.5t-2 36q0 24 1.5 38.5t7 22t16 10t28.5 2.5q149 0 260 -0.5t201 2t167 9t158 20.5v10l-140.5 87t-98.5 51q-77 30 -148 30
q-45 0 -147 -47q-23 -10 -33 -10h-4l-2 2v4q79 184 244 184q33 0 66.5 -6.5t73 -21.5t88 -40t110.5 -63q80 -48 132.5 -76.5t78.5 -39.5q26 -13 65.5 -18.5t79.5 -2.5zM524 88l-69 -108l-171 107q23 43 42.5 71.5t37.5 50.5l163 -108l75 109l89.5 -58.5l75.5 -49.5
q-17 -33 -34.5 -63t-40.5 -61zM586 -154l-70 -110l-170 109q23 43 43.5 71t38.5 50l163 -108l73 110l91 -60l77 -51l-76 -122z" />
    <glyph glyph-name="uniFB81" unicode="&#x687;" horiz-adv-x="1139" arabic-form="medial" 
d="M1139 498v-148q-54 -1 -120 -3t-137 -3.5l-145 -3t-146 -1.5q-48 0 -103.5 1l-113.5 2t-115.5 2.5t-108.5 2.5t-92.5 2t-67.5 1q-25 0 -34 15t-9 59q0 23 1.5 37.5t6.5 22.5t16 11t29 3q97 -3 188.5 -5.5t186 -4.5t195.5 -3.5t217 -1.5v11q-81 64 -141 106t-100 64
q-77 43 -146 43q-49 0 -149 -48q-24 -11 -31 -11q-4 0 -6 2.5t-1 4.5q80 185 244 185q66 0 139 -37q37 -18 86.5 -50.5t112.5 -80.5l133.5 -98t78.5 -50q54 -26 132 -26zM524 78l-69 -108l-171 107q23 43 42.5 71.5t37.5 50.5l163 -108l75 109l89.5 -58.5l75.5 -49.5
q-17 -33 -34.5 -63t-40.5 -61zM586 -164l-70 -110l-170 109q23 43 43.5 71t38.5 50l163 -108l73 110l91 -60l77 -51l-76 -122z" />
    <glyph glyph-name="uniFB7F" unicode="&#x687;" horiz-adv-x="1064" arabic-form="final" 
d="M978 778q3 0 6.5 -2t3.5 -8q0 -1 -4.5 -13t-12 -29t-17.5 -36.5t-21.5 -35.5t-24 -27t-23.5 -11h-28q-4 -4 -4 -14q0 -33 17 -53.5t42.5 -32t54.5 -15.5t54 -4h43v-147h-78q-103 0 -157 37t-54 119q0 44 18 106q-69 -1 -142.5 -14.5t-143.5 -39.5t-132.5 -64.5
t-109 -89.5t-74 -115.5t-27.5 -141.5q0 -64 21.5 -111t58 -80.5t85 -55t103 -33.5t111.5 -16.5t110 -4.5q96 0 189 13.5t184 32.5q17 3 17 -10q0 -5 -4 -9q-114 -91 -236.5 -140t-267.5 -49q-95 0 -176.5 27t-141.5 79.5t-94 131t-34 181.5q0 121 39 219.5t108.5 174
t165 127.5t208.5 79v4q-32 13 -68.5 29.5t-75.5 31t-77.5 24.5t-72.5 10q-45 0 -93.5 -15t-105.5 -64q-5 -4 -10 -7.5t-11 -3.5q-5 0 -7.5 4t-2.5 9q0 8 4 16q24 55 50 94.5t56.5 65.5t67.5 38.5t83 12.5q62 0 128.5 -26.5t138.5 -59.5l76.5 -35t77.5 -30.5t78 -22t78 -8.5
q16 0 28.5 2.5t25.5 5.5zM560 283l-64 -100l-157 99q21 39 39 65.5t35 46.5l149 -99l69 100l83 -54l69 -45q-15 -31 -31.5 -58.5t-37.5 -55.5zM617 56l-65 -101l-156 100q21 40 39.5 66t35.5 46l150 -100l68 101l83.5 -54.5l70.5 -47.5l-70 -112z" />
    <glyph glyph-name="uniFB89" unicode="&#x688;" horiz-adv-x="686" arabic-form="final" 
d="M537 1057l20 -69t25 -79q52 -168 78 -275t26 -157q0 -101 -53 -127q-30 -15 -76.5 -25.5t-98 -17.5t-101 -10.5t-85.5 -3.5q-49 0 -83.5 8.5t-56 26.5t-31 46t-9.5 68q0 27 5 54.5t13.5 50.5t20 40t23.5 23h4l2 -2q2 -2 2 -16v-12q0 -6 -2 -17q-2 -9 -2 -17v-16
q0 -76 98 -76q118 0 201.5 14t134.5 40q-34 164 -141 358q12 47 33.5 94t52.5 97zM313 1304l42.5 -4t42.5 -2q39 0 73.5 1t61 4t41.5 8t15 13q0 11 -8.5 26t-23.5 29t-34.5 23.5t-41.5 9.5q-30 0 -73 -28t-97 -78zM343 1692q11 -54 14.5 -108t3.5 -103q0 -38 -11 -79
l36.5 36t37.5 31.5t39 22t41 8.5q22 0 44 -9.5t42 -29.5q33 -35 42.5 -69t9.5 -72q0 -42 -12 -62t-35 -29q-7 -3 -17.5 -6t-28 -5.5t-44 -4t-65.5 -1.5q-15 0 -36 0.5t-45 2t-49.5 3.5t-48.5 4q-32 17 -55.5 42.5t-40.5 60.5q39 -2 63.5 1.5t39 12.5t19.5 22t5 30
q0 44 -6 97.5t-17 113.5z" />
    <glyph glyph-name="uni0689.fina" unicode="&#x689;" horiz-adv-x="686" 
d="M338 175q0 35 9.5 66t26.5 57q-26 -2 -51.5 -3.5t-50.5 -1.5q-49 0 -83.5 8.5t-56 26.5t-31 46t-9.5 68q0 27 5 54.5t13.5 50.5t20 40t23.5 23h4l2 -2q2 -2 2 -16v-12q0 -6 -2 -17q-2 -9 -2 -17v-16q0 -76 98 -76q118 0 201.5 14t134.5 40q-34 164 -141 358
q12 47 33.5 94t52.5 97l20 -69t25 -79q52 -168 78 -275t26 -157q0 -100 -53 -127q-32 -16 -93 -29q33 -39 33 -90q0 -30 -7 -60t-22.5 -54t-40 -38.5t-60.5 -14.5q-49 0 -77 31t-28 80zM451 290q-13 0 -26.5 -9t-24 -23t-17 -30t-6.5 -30q0 -27 20.5 -42.5t47.5 -15.5
q32 0 57.5 12.5t25.5 43.5q0 12 -5.5 28t-15.5 31t-24.5 25t-31.5 10z" />
    <glyph glyph-name="uni068A.fina" unicode="&#x68a;" horiz-adv-x="686" 
d="M537 1057l20 -69t25 -79q52 -168 78 -275t26 -157q0 -101 -53 -127q-30 -15 -76.5 -25.5t-98 -17.5t-101 -10.5t-85.5 -3.5q-49 0 -83.5 8.5t-56 26.5t-31 46t-9.5 68q0 27 5 54.5t13.5 50.5t20 40t23.5 23h4l2 -2q2 -2 2 -16v-12q0 -6 -2 -17q-2 -9 -2 -17v-16
q0 -76 98 -76q118 0 201.5 14t134.5 40q-34 164 -141 358q12 47 33.5 94t52.5 97zM487 -162l-191 104q19 38 37 70l35 61q92 -45 184 -98q-12 -35 -28.5 -69t-36.5 -68z" />
    <glyph glyph-name="uni068B.fina" unicode="&#x68b;" horiz-adv-x="686" 
d="M537 1057l20 -69t25 -79q52 -168 78 -275t26 -157q0 -101 -53 -127q-30 -15 -76.5 -25.5t-98 -17.5t-101 -10.5t-85.5 -3.5q-49 0 -83.5 8.5t-56 26.5t-31 46t-9.5 68q0 27 5 54.5t13.5 50.5t20 40t23.5 23h4l2 -2q2 -2 2 -16v-12q0 -6 -2 -17q-2 -9 -2 -17v-16
q0 -76 98 -76q118 0 201.5 14t134.5 40q-34 164 -141 358q12 47 33.5 94t52.5 97zM313 1304l42.5 -4t42.5 -2q39 0 73.5 1t61 4t41.5 8t15 13q0 11 -8.5 26t-23.5 29t-34.5 23.5t-41.5 9.5q-30 0 -73 -28t-97 -78zM343 1692q11 -54 14.5 -108t3.5 -103q0 -38 -11 -79
l36.5 36t37.5 31.5t39 22t41 8.5q22 0 44 -9.5t42 -29.5q33 -35 42.5 -69t9.5 -72q0 -42 -12 -62t-35 -29q-7 -3 -17.5 -6t-28 -5.5t-44 -4t-65.5 -1.5q-15 0 -36 0.5t-45 2t-49.5 3.5t-48.5 4q-32 17 -55.5 42.5t-40.5 60.5q39 -2 63.5 1.5t39 12.5t19.5 22t5 30
q0 44 -6 97.5t-17 113.5zM487 -162l-191 104q19 38 37 70l35 61q92 -45 184 -98q-12 -35 -28.5 -69t-36.5 -68z" />
    <glyph glyph-name="uniFB85" unicode="&#x68c;" horiz-adv-x="686" arabic-form="final" 
d="M537 1057l20 -69t25 -79q52 -168 78 -275t26 -157q0 -101 -53 -127q-30 -15 -76.5 -25.5t-98 -17.5t-101 -10.5t-85.5 -3.5q-49 0 -83.5 8.5t-56 26.5t-31 46t-9.5 68q0 27 5 54.5t13.5 50.5t20 40t23.5 23h4l2 -2q2 -2 2 -16v-12q0 -6 -2 -17q-2 -9 -2 -17v-16
q0 -76 98 -76q118 0 201.5 14t134.5 40q-34 164 -141 358q12 47 33.5 94t52.5 97zM390 1290l-55 -96l-180 107q23 46 40.5 76t35.5 53l157 -93l57 94l100.5 -59.5t81.5 -43.5q-16 -37 -33 -70t-38 -67z" />
    <glyph glyph-name="uniFB83" unicode="&#x68d;" horiz-adv-x="686" arabic-form="final" 
d="M537 1057l20 -69t25 -79q52 -168 78 -275t26 -157q0 -101 -53 -127q-30 -15 -76.5 -25.5t-98 -17.5t-101 -10.5t-85.5 -3.5q-49 0 -83.5 8.5t-56 26.5t-31 46t-9.5 68q0 27 5 54.5t13.5 50.5t20 40t23.5 23h4l2 -2q2 -2 2 -16v-12q0 -6 -2 -17q-2 -9 -2 -17v-16
q0 -76 98 -76q118 0 201.5 14t134.5 40q-34 164 -141 358q12 47 33.5 94t52.5 97zM423 -65l-55 -96l-180 107q23 46 40.5 76t35.5 53l157 -93l57 94l100.5 -59.5t81.5 -43.5q-16 -37 -33 -70t-38 -67z" />
    <glyph glyph-name="uniFB87" unicode="&#x68e;" horiz-adv-x="686" arabic-form="final" 
d="M537 1057l20 -69t25 -79q52 -168 78 -275t26 -157q0 -101 -53 -127q-30 -15 -76.5 -25.5t-98 -17.5t-101 -10.5t-85.5 -3.5q-49 0 -83.5 8.5t-56 26.5t-31 46t-9.5 68q0 27 5 54.5t13.5 50.5t20 40t23.5 23h4l2 -2q2 -2 2 -16v-12q0 -6 -2 -17q-2 -9 -2 -17v-16
q0 -76 98 -76q118 0 201.5 14t134.5 40q-34 164 -141 358q12 47 33.5 94t52.5 97zM337 1192l-186 110q20 42 39 73t36 54l166 -94l58 94l20 -12l89.5 -54t70.5 -38q-14 -32 -31.5 -65t-40.5 -68l-160 96zM364 1431l-170 99l10 20q18 32 33.5 56.5t27.5 41.5l35 -18l68.5 -37
l62.5 -35q-11 -26 -27.5 -58t-39.5 -69z" />
    <glyph glyph-name="uni068F.fina" unicode="&#x68f;" horiz-adv-x="686" 
d="M537 1057l20 -69t25 -79q52 -168 78 -275t26 -157q0 -101 -53 -127q-30 -15 -76.5 -25.5t-98 -17.5t-101 -10.5t-85.5 -3.5q-49 0 -83.5 8.5t-56 26.5t-31 46t-9.5 68q0 27 5 54.5t13.5 50.5t20 40t23.5 23h4l2 -2q2 -2 2 -16v-12q0 -6 -2 -17q-2 -9 -2 -17v-16
q0 -76 98 -76q118 0 201.5 14t134.5 40q-34 164 -141 358q12 47 33.5 94t52.5 97zM377 1643l186 -110q-20 -42 -39 -73t-36 -54l-166 94l-58 -94l-20 12l-89.5 54t-70.5 38q14 32 31.5 65t40.5 68l160 -96zM350 1404l170 -99l-10 -20q-18 -32 -33.5 -56.5t-27.5 -41.5
l-35 18l-68.5 37l-62.5 35q11 26 27.5 58t39.5 69z" />
    <glyph glyph-name="uni0690.fina" unicode="&#x690;" horiz-adv-x="686" 
d="M537 1057l20 -69t25 -79q52 -168 78 -275t26 -157q0 -101 -53 -127q-30 -15 -76.5 -25.5t-98 -17.5t-101 -10.5t-85.5 -3.5q-49 0 -83.5 8.5t-56 26.5t-31 46t-9.5 68q0 27 5 54.5t13.5 50.5t20 40t23.5 23h4l2 -2q2 -2 2 -16v-12q0 -6 -2 -17q-2 -9 -2 -17v-16
q0 -76 98 -76q118 0 201.5 14t134.5 40q-34 164 -141 358q12 47 33.5 94t52.5 97zM319 1525l-69 -108l-171 107q23 43 42.5 71.5t37.5 50.5l163 -108l75 109l89.5 -58.5l75.5 -49.5q-17 -33 -34.5 -63t-40.5 -61zM381 1283l-70 -110l-170 109q23 43 43.5 71t38.5 50
l163 -108l73 110l91 -60l77 -51l-76 -122z" />
    <glyph glyph-name="uni06EE.fina" unicode="&#x6ee;" horiz-adv-x="686" 
d="M537 1057l20 -69t25 -79q52 -168 78 -275t26 -157q0 -101 -53 -127q-30 -15 -76.5 -25.5t-98 -17.5t-101 -10.5t-85.5 -3.5q-49 0 -83.5 8.5t-56 26.5t-31 46t-9.5 68q0 27 5 54.5t13.5 50.5t20 40t23.5 23h4l2 -2q2 -2 2 -16v-12q0 -6 -2 -17q-2 -9 -2 -17v-16
q0 -76 98 -76q118 0 201.5 14t134.5 40q-34 164 -141 358q12 47 33.5 94t52.5 97zM474 1540q41 -72 90 -142.5t106 -139.5q5 -7 3.5 -17t-8 -22t-16.5 -26l-20 -27q-20 17 -43 46t-45.5 62.5l-43 67t-35.5 60.5q-37 -60 -76.5 -118t-85.5 -118q-13 17 -23.5 33t-15.5 33
l107 149t103 159h3z" />
    <glyph glyph-name="uniFB8D" unicode="&#x691;" horiz-adv-x="772" arabic-form="final" 
d="M530 633l66 143q176 -164 176 -338q0 -47 -13 -96t-37 -97t-58 -92.5t-76 -81.5q-68 -57 -134 -85.5t-132 -28.5q-54 0 -112.5 27t-123.5 81q-86 71 -86 105q0 10 8 10q24 0 55 -20q97 -56 199 -56q125 0 264 103q34 25 64.5 54t53.5 56.5t36.5 52t13.5 39.5
q0 54 -164 224zM381 1105l42.5 -4t42.5 -2q39 0 73.5 1t61 4t41.5 8t15 13q0 11 -8.5 26t-23.5 29t-34.5 23.5t-41.5 9.5q-30 0 -73 -28t-97 -78zM411 1493q11 -54 14.5 -108t3.5 -103q0 -38 -11 -79l36.5 36t37.5 31.5t39 22t41 8.5q22 0 44 -9.5t42 -29.5q33 -35 42.5 -69
t9.5 -72q0 -42 -12 -62t-35 -29q-7 -3 -17.5 -6t-28 -5.5t-44 -4t-65.5 -1.5q-15 0 -36 0.5t-45 2t-49.5 3.5t-48.5 4q-32 17 -55.5 42.5t-40.5 60.5q39 -2 63.5 1.5t39 12.5t19.5 22t5 30q0 44 -6 97.5t-17 113.5z" />
    <glyph glyph-name="uni0692.fina" unicode="&#x692;" horiz-adv-x="772" 
d="M530 633l66 143q176 -164 176 -338q0 -47 -13 -96t-37 -97t-58 -92.5t-76 -81.5q-68 -57 -134 -85.5t-132 -28.5q-54 0 -112.5 27t-123.5 81q-86 71 -86 105q0 10 8 10q24 0 55 -20q97 -56 199 -56q125 0 264 103q34 25 64.5 54t53.5 56.5t36.5 52t13.5 39.5
q0 54 -164 224zM539 998q-41 72 -90 142.5t-106 139.5q-5 7 -3.5 17t8 22t16 25.5t20.5 27.5q20 -17 43 -46t45.5 -62.5l43 -67t35.5 -60.5q37 60 76.5 118t85.5 118q13 -17 23.5 -33t15.5 -33l-107 -149t-103 -159h-3z" />
    <glyph glyph-name="uni0693.fina" unicode="&#x693;" horiz-adv-x="772" 
d="M459 -72q0 33 9 65q-74 -36 -146 -36q-54 0 -112.5 27t-123.5 81q-86 71 -86 105q0 10 8 10q24 0 55 -20q97 -56 199 -56q125 0 264 103q34 25 64.5 54t53.5 56.5t36.5 52t13.5 39.5q0 54 -164 224l66 143q176 -164 176 -338q0 -42 -10.5 -85.5t-29.5 -86.5t-47 -84
t-62 -77q11 -6 19 -12q28 -24 40 -50.5t12 -58.5q0 -30 -7 -60t-22.5 -54t-40 -38.5t-60.5 -14.5q-49 0 -77 31t-28 80zM572 43q-13 0 -26.5 -9t-24 -23t-17 -30t-6.5 -30q0 -27 20.5 -42.5t47.5 -15.5q32 0 57.5 12.5t25.5 43.5q0 12 -5.5 28t-15.5 31t-24.5 25t-31.5 10z
" />
    <glyph glyph-name="uni0694.fina" unicode="&#x694;" horiz-adv-x="772" 
d="M530 633l66 143q176 -164 176 -338q0 -47 -13 -96t-37 -97t-58 -92.5t-76 -81.5q-68 -57 -134 -85.5t-132 -28.5q-54 0 -112.5 27t-123.5 81q-86 71 -86 105q0 10 8 10q24 0 55 -20q97 -56 199 -56q125 0 264 103q34 25 64.5 54t53.5 56.5t36.5 52t13.5 39.5
q0 54 -164 224zM713 -347l-191 104q19 38 37 70l35 61q92 -45 184 -98q-12 -35 -28.5 -69t-36.5 -68z" />
    <glyph glyph-name="uni0695.fina" unicode="&#x695;" horiz-adv-x="772" 
d="M530 633l66 143q176 -164 176 -338q0 -47 -13 -96t-37 -97t-58 -92.5t-76 -81.5q-68 -57 -134 -85.5t-132 -28.5q-54 0 -112.5 27t-123.5 81q-86 71 -86 105q0 10 8 10q24 0 55 -20q97 -56 199 -56q125 0 264 103q34 25 64.5 54t53.5 56.5t36.5 52t13.5 39.5
q0 54 -164 224zM457 -514q-41 72 -90 142.5t-106 139.5q-5 7 -3.5 17t8 22t16 25.5t20.5 27.5q20 -17 43 -46t45.5 -62.5l43 -67t35.5 -60.5q37 60 76.5 118t85.5 118q13 -17 23.5 -33t15.5 -33l-107 -149t-103 -159h-3z" />
    <glyph glyph-name="uni0696.fina" unicode="&#x696;" horiz-adv-x="772" 
d="M530 633l66 143q176 -164 176 -338q0 -47 -13 -96t-37 -97t-58 -92.5t-76 -81.5q-68 -57 -134 -85.5t-132 -28.5q-54 0 -112.5 27t-123.5 81q-86 71 -86 105q0 10 8 10q24 0 55 -20q97 -56 199 -56q125 0 264 103q34 25 64.5 54t53.5 56.5t36.5 52t13.5 39.5
q0 54 -164 224zM715 -347l-191 104q19 38 37 70l35 61q92 -45 184 -98q-12 -35 -28.5 -69t-36.5 -68zM376 297l-191 104q19 38 37 70l35 61q92 -45 184 -98q-12 -35 -28.5 -69t-36.5 -68z" />
    <glyph glyph-name="uni0697.fina" unicode="&#x697;" horiz-adv-x="772" 
d="M530 633l66 143q176 -164 176 -338q0 -47 -13 -96t-37 -97t-58 -92.5t-76 -81.5q-68 -57 -134 -85.5t-132 -28.5q-54 0 -112.5 27t-123.5 81q-86 71 -86 105q0 10 8 10q24 0 55 -20q97 -56 199 -56q125 0 264 103q34 25 64.5 54t53.5 56.5t36.5 52t13.5 39.5
q0 54 -164 224zM432 1131l-55 -96l-180 107q23 46 40.5 76t35.5 53l157 -93l57 94l100.5 -59.5t81.5 -43.5q-16 -37 -33 -70t-38 -67z" />
    <glyph glyph-name="uni06EF.fina" unicode="&#x6ef;" horiz-adv-x="772" 
d="M530 633l66 143q176 -164 176 -338q0 -47 -13 -96t-37 -97t-58 -92.5t-76 -81.5q-68 -57 -134 -85.5t-132 -28.5q-54 0 -112.5 27t-123.5 81q-86 71 -86 105q0 10 8 10q24 0 55 -20q97 -56 199 -56q125 0 264 103q34 25 64.5 54t53.5 56.5t36.5 52t13.5 39.5
q0 54 -164 224zM564 1270q41 -72 90 -142.5t106 -139.5q5 -7 3.5 -17t-8 -22t-16.5 -26l-20 -27q-20 17 -43 46t-45.5 62.5l-43 67t-35.5 60.5q-37 -60 -76.5 -118t-85.5 -118q-13 17 -23.5 33t-15.5 33l107 149t103 159h3z" />
    <glyph glyph-name="uniFB8B" unicode="&#x698;" horiz-adv-x="772" arabic-form="final" 
d="M530 633l66 143q176 -164 176 -338q0 -47 -13 -96t-37 -97t-58 -92.5t-76 -81.5q-68 -57 -134 -85.5t-132 -28.5q-54 0 -112.5 27t-123.5 81q-86 71 -86 105q0 10 8 10q24 0 55 -20q97 -56 199 -56q125 0 264 103q34 25 64.5 54t53.5 56.5t36.5 52t13.5 39.5
q0 54 -164 224zM381 997l-186 110q20 42 39 73t36 54l166 -94l58 94l20 -12l89.5 -54t70.5 -38q-14 -32 -31.5 -65t-40.5 -68l-160 96zM408 1236l-170 99l10 20q18 32 33.5 56.5t27.5 41.5l35 -18l68.5 -37l62.5 -35q-11 -26 -27.5 -58t-39.5 -69z" />
    <glyph glyph-name="uni0699.fina" unicode="&#x699;" horiz-adv-x="772" 
d="M530 633l66 143q176 -164 176 -338q0 -47 -13 -96t-37 -97t-58 -92.5t-76 -81.5q-68 -57 -134 -85.5t-132 -28.5q-54 0 -112.5 27t-123.5 81q-86 71 -86 105q0 10 8 10q24 0 55 -20q97 -56 199 -56q125 0 264 103q34 25 64.5 54t53.5 56.5t36.5 52t13.5 39.5
q0 54 -164 224zM366 1345l-69 -108l-171 107q23 43 42.5 71.5t37.5 50.5l163 -108l75 109l89.5 -58.5l75.5 -49.5q-17 -33 -34.5 -63t-40.5 -61zM428 1103l-70 -110l-170 109q23 43 43.5 71t38.5 50l163 -108l73 110l91 -60l77 -51l-76 -122z" />
    <glyph glyph-name="uni069A.init" unicode="&#x69a;" horiz-adv-x="1307" 
d="M844 1014l-191 104q19 38 37 70l35 61q92 -45 184 -98q-12 -35 -28.5 -69t-36.5 -68zM906 -138l-191 104q19 38 37 70l35 61q92 -45 184 -98q-12 -35 -28.5 -69t-36.5 -68zM147 497q47 0 82.5 0.5t62.5 2.5t46.5 7t33.5 14q20 13 34 56.5t21 112.5l69.5 47.5t76.5 47.5
q-4 -38 -12.5 -77.5t-20.5 -76.5t-28 -68.5t-34 -53.5q7 -4 21.5 -6.5t33.5 -4t40.5 -2.5t43.5 -1q51 0 90 5t60 17q11 11 12.5 31t1.5 38t-3 50.5t-8 61.5q30 29 60 54.5t62 48.5q6 -48 6 -100q0 -51 -7.5 -99t-27.5 -88q8 -3 25 -6.5t38.5 -6.5t46.5 -4.5t49 -1.5
q26 0 48.5 2.5t39.5 7.5q6 2 10 8t4 18q0 17 -5 39t-13 46.5t-19 50t-24 49.5q27 35 54 64t51 52q29 -77 40 -149.5t11 -143.5q0 -23 -3.5 -48t-10 -48t-17 -41t-24.5 -26q-10 -5 -22 -10t-31.5 -8.5t-48.5 -5.5t-72 -2q-31 0 -65 3.5t-64 10.5t-52.5 16.5t-30.5 20.5
q-28 -29 -74 -40t-126 -11q-22 0 -49 2.5t-53.5 7.5t-48 14t-31.5 21q-29 -25 -80.5 -35t-132.5 -10h-193q-25 0 -34 15t-9 59q0 31 6 46t12 21q3 3 13 4.5t22 1.5h147z" />
    <glyph glyph-name="uni069A.medi" unicode="&#x69a;" horiz-adv-x="1219" 
d="M844 1014l-191 104q19 38 37 70l35 61q92 -45 184 -98q-12 -35 -28.5 -69t-36.5 -68zM906 -138l-191 104q19 38 37 70l35 61q92 -45 184 -98q-12 -35 -28.5 -69t-36.5 -68zM147 497q47 0 82.5 0.5t62.5 2.5t46.5 7t33.5 14q20 13 34 56.5t21 112.5l69.5 47.5t76.5 47.5
q-4 -38 -12.5 -77.5t-20.5 -76.5t-28 -68.5t-34 -53.5q7 -4 21.5 -6.5t33.5 -4t40.5 -2.5t43.5 -1q51 0 90 5t60 17q11 11 12.5 31t1.5 38t-3 50.5t-8 61.5q30 29 60 54.5t62 48.5q6 -48 6 -100q0 -51 -7.5 -99t-27.5 -88q8 -3 25 -6.5t38.5 -6.5t46.5 -4.5t49 -1.5
q26 0 48.5 2.5t39.5 7.5q6 2 10 8t4 18q0 17 -5 39t-13 46.5t-19 50t-24 49.5q27 35 54 64t51 52q29 -77 40 -149.5t11 -143.5q0 -23 -3.5 -48t-10 -48t-17 -41t-24.5 -26q-10 -5 -22 -10t-31.5 -8.5t-48.5 -5.5t-72 -2q-31 0 -65 3.5t-64 10.5t-52.5 16.5t-30.5 20.5
q-28 -29 -74 -40t-126 -11q-22 0 -49 2.5t-53.5 7.5t-48 14t-31.5 21q-29 -25 -80.5 -35t-132.5 -10h-193q-25 0 -34 15t-9 59q0 31 6 46t12 21q3 3 13 4.5t22 1.5h147z" />
    <glyph glyph-name="uni069A.fina" unicode="&#x69a;" horiz-adv-x="1661" 
d="M1503 716q27 36 54 64t54 52q13 -41 22.5 -79t15.5 -76t9 -77t3 -82q0 -54 -11 -89t-28 -49q-11 -10 -34 -16t-49.5 -9.5t-53.5 -4.5t-46 -1q-38 0 -68 2t-56 7t-51 14t-52 23q-27 -16 -54.5 -25t-57 -13.5t-60 -5.5t-63.5 -1q0 -79 -64 -225q-100 -93 -227.5 -141
t-269.5 -48q-79 0 -142 19t-107 54.5t-67.5 86.5t-23.5 115q0 100 33.5 194.5t98.5 174.5q27 35 41 35q12 0 12 -12q0 -8 -6.5 -25t-20.5 -43q-2 -2 -3.5 -7t-6.5 -13l-18 -37q-25 -51 -38.5 -98.5t-13.5 -82.5q0 -201 299 -201q64 0 125.5 11t117.5 31t104 48t84 63
q0 36 -6.5 82t-20.5 97.5t-36.5 107.5t-55.5 112l49 68t49 64q21 -42 36 -78t27 -70t22 -67l21 -68q75 0 134.5 4.5t91.5 12.5q9 33 9 86q0 15 -1.5 40.5t-3.5 51.5l115 112q5 -33 6 -56.5t1 -42.5q0 -42 -6.5 -92t-27.5 -99q39 -8 77 -13.5t81 -5.5q12 0 27.5 0.5t30 1.5
t27 3t20.5 5t11 11t3 15q0 32 -14.5 77t-46.5 108zM1282 1014l-191 104q19 38 37 70l35 61q92 -45 184 -98q-12 -35 -28.5 -69t-36.5 -68zM1376 -138l-191 104q19 38 37 70l35 61q92 -45 184 -98q-12 -35 -28.5 -69t-36.5 -68z" />
    <glyph glyph-name="uni069B.init" unicode="&#x69b;" horiz-adv-x="1307" 
d="M882 194l186 -110q-20 -42 -39 -73t-36 -54l-166 94l-58 -94l-20 12l-89.5 54t-70.5 38q14 32 31.5 65t40.5 68l160 -96zM855 -45l170 -99l-10 -20q-18 -32 -33.5 -56.5t-27.5 -41.5l-35 18l-68.5 37l-62.5 35q11 26 27.5 58t39.5 69zM147 497q47 0 82.5 0.5t62.5 2.5
t46.5 7t33.5 14q20 13 34 56.5t21 112.5l69.5 47.5t76.5 47.5q-4 -38 -12.5 -77.5t-20.5 -76.5t-28 -68.5t-34 -53.5q7 -4 21.5 -6.5t33.5 -4t40.5 -2.5t43.5 -1q51 0 90 5t60 17q11 11 12.5 31t1.5 38t-3 50.5t-8 61.5q30 29 60 54.5t62 48.5q6 -48 6 -100q0 -51 -7.5 -99
t-27.5 -88q8 -3 25 -6.5t38.5 -6.5t46.5 -4.5t49 -1.5q26 0 48.5 2.5t39.5 7.5q6 2 10 8t4 18q0 17 -5 39t-13 46.5t-19 50t-24 49.5q27 35 54 64t51 52q29 -77 40 -149.5t11 -143.5q0 -23 -3.5 -48t-10 -48t-17 -41t-24.5 -26q-10 -5 -22 -10t-31.5 -8.5t-48.5 -5.5t-72 -2
q-31 0 -65 3.5t-64 10.5t-52.5 16.5t-30.5 20.5q-28 -29 -74 -40t-126 -11q-22 0 -49 2.5t-53.5 7.5t-48 14t-31.5 21q-29 -25 -80.5 -35t-132.5 -10h-193q-25 0 -34 15t-9 59q0 31 6 46t12 21q3 3 13 4.5t22 1.5h147z" />
    <glyph glyph-name="uni069B.medi" unicode="&#x69b;" horiz-adv-x="1219" 
d="M882 194l186 -110q-20 -42 -39 -73t-36 -54l-166 94l-58 -94l-20 12l-89.5 54t-70.5 38q14 32 31.5 65t40.5 68l160 -96zM855 -45l170 -99l-10 -20q-18 -32 -33.5 -56.5t-27.5 -41.5l-35 18l-68.5 37l-62.5 35q11 26 27.5 58t39.5 69zM147 497q47 0 82.5 0.5t62.5 2.5
t46.5 7t33.5 14q20 13 34 56.5t21 112.5l69.5 47.5t76.5 47.5q-4 -38 -12.5 -77.5t-20.5 -76.5t-28 -68.5t-34 -53.5q7 -4 21.5 -6.5t33.5 -4t40.5 -2.5t43.5 -1q51 0 90 5t60 17q11 11 12.5 31t1.5 38t-3 50.5t-8 61.5q30 29 60 54.5t62 48.5q6 -48 6 -100q0 -51 -7.5 -99
t-27.5 -88q8 -3 25 -6.5t38.5 -6.5t46.5 -4.5t49 -1.5q26 0 48.5 2.5t39.5 7.5q6 2 10 8t4 18q0 17 -5 39t-13 46.5t-19 50t-24 49.5q27 35 54 64t51 52q29 -77 40 -149.5t11 -143.5q0 -23 -3.5 -48t-10 -48t-17 -41t-24.5 -26q-10 -5 -22 -10t-31.5 -8.5t-48.5 -5.5t-72 -2
q-31 0 -65 3.5t-64 10.5t-52.5 16.5t-30.5 20.5q-28 -29 -74 -40t-126 -11q-22 0 -49 2.5t-53.5 7.5t-48 14t-31.5 21q-29 -25 -80.5 -35t-132.5 -10h-193q-25 0 -34 15t-9 59q0 31 6 46t12 21q3 3 13 4.5t22 1.5h147z" />
    <glyph glyph-name="uni069B.fina" unicode="&#x69b;" horiz-adv-x="1661" 
d="M1503 716q27 36 54 64t54 52q13 -41 22.5 -79t15.5 -76t9 -77t3 -82q0 -54 -11 -89t-28 -49q-11 -10 -34 -16t-49.5 -9.5t-53.5 -4.5t-46 -1q-38 0 -68 2t-56 7t-51 14t-52 23q-27 -16 -54.5 -25t-57 -13.5t-60 -5.5t-63.5 -1q0 -79 -64 -225q-100 -93 -227.5 -141
t-269.5 -48q-79 0 -142 19t-107 54.5t-67.5 86.5t-23.5 115q0 100 33.5 194.5t98.5 174.5q27 35 41 35q12 0 12 -12q0 -8 -6.5 -25t-20.5 -43q-2 -2 -3.5 -7t-6.5 -13l-18 -37q-25 -51 -38.5 -98.5t-13.5 -82.5q0 -201 299 -201q64 0 125.5 11t117.5 31t104 48t84 63
q0 36 -6.5 82t-20.5 97.5t-36.5 107.5t-55.5 112l49 68t49 64q21 -42 36 -78t27 -70t22 -67l21 -68q75 0 134.5 4.5t91.5 12.5q9 33 9 86q0 15 -1.5 40.5t-3.5 51.5l115 112q5 -33 6 -56.5t1 -42.5q0 -42 -6.5 -92t-27.5 -99q39 -8 77 -13.5t81 -5.5q12 0 27.5 0.5t30 1.5
t27 3t20.5 5t11 11t3 15q0 32 -14.5 77t-46.5 108zM1377 194l186 -110q-20 -42 -39 -73t-36 -54l-166 94l-58 -94l-20 12l-89.5 54t-70.5 38q14 32 31.5 65t40.5 68l160 -96zM1350 -45l170 -99l-10 -20q-18 -32 -33.5 -56.5t-27.5 -41.5l-35 18l-68.5 37l-62.5 35
q11 26 27.5 58t39.5 69z" />
    <glyph glyph-name="uni069C.init" unicode="&#x69c;" horiz-adv-x="1307" 
d="M730 936l-186 110q20 42 39 73t36 54l166 -94l58 94l20 -12l89.5 -54t70.5 -38q-14 -32 -31.5 -65t-40.5 -68l-160 96zM757 1175l-170 99l10 20q18 32 33.5 56.5t27.5 41.5l35 -18l68.5 -37l62.5 -35q-11 -26 -27.5 -58t-39.5 -69zM882 194l186 -110q-20 -42 -39 -73
t-36 -54l-166 94l-58 -94l-20 12l-89.5 54t-70.5 38q14 32 31.5 65t40.5 68l160 -96zM855 -45l170 -99l-10 -20q-18 -32 -33.5 -56.5t-27.5 -41.5l-35 18l-68.5 37l-62.5 35q11 26 27.5 58t39.5 69zM147 497q47 0 82.5 0.5t62.5 2.5t46.5 7t33.5 14q20 13 34 56.5t21 112.5
l69.5 47.5t76.5 47.5q-4 -38 -12.5 -77.5t-20.5 -76.5t-28 -68.5t-34 -53.5q7 -4 21.5 -6.5t33.5 -4t40.5 -2.5t43.5 -1q51 0 90 5t60 17q11 11 12.5 31t1.5 38t-3 50.5t-8 61.5q30 29 60 54.5t62 48.5q6 -48 6 -100q0 -51 -7.5 -99t-27.5 -88q8 -3 25 -6.5t38.5 -6.5
t46.5 -4.5t49 -1.5q26 0 48.5 2.5t39.5 7.5q6 2 10 8t4 18q0 17 -5 39t-13 46.5t-19 50t-24 49.5q27 35 54 64t51 52q29 -77 40 -149.5t11 -143.5q0 -23 -3.5 -48t-10 -48t-17 -41t-24.5 -26q-10 -5 -22 -10t-31.5 -8.5t-48.5 -5.5t-72 -2q-31 0 -65 3.5t-64 10.5
t-52.5 16.5t-30.5 20.5q-28 -29 -74 -40t-126 -11q-22 0 -49 2.5t-53.5 7.5t-48 14t-31.5 21q-29 -25 -80.5 -35t-132.5 -10h-193q-25 0 -34 15t-9 59q0 31 6 46t12 21q3 3 13 4.5t22 1.5h147z" />
    <glyph glyph-name="uni069C.medi" unicode="&#x69c;" horiz-adv-x="1219" 
d="M730 936l-186 110q20 42 39 73t36 54l166 -94l58 94l20 -12l89.5 -54t70.5 -38q-14 -32 -31.5 -65t-40.5 -68l-160 96zM757 1175l-170 99l10 20q18 32 33.5 56.5t27.5 41.5l35 -18l68.5 -37l62.5 -35q-11 -26 -27.5 -58t-39.5 -69zM882 194l186 -110q-20 -42 -39 -73
t-36 -54l-166 94l-58 -94l-20 12l-89.5 54t-70.5 38q14 32 31.5 65t40.5 68l160 -96zM855 -45l170 -99l-10 -20q-18 -32 -33.5 -56.5t-27.5 -41.5l-35 18l-68.5 37l-62.5 35q11 26 27.5 58t39.5 69zM147 497q47 0 82.5 0.5t62.5 2.5t46.5 7t33.5 14q20 13 34 56.5t21 112.5
l69.5 47.5t76.5 47.5q-4 -38 -12.5 -77.5t-20.5 -76.5t-28 -68.5t-34 -53.5q7 -4 21.5 -6.5t33.5 -4t40.5 -2.5t43.5 -1q51 0 90 5t60 17q11 11 12.5 31t1.5 38t-3 50.5t-8 61.5q30 29 60 54.5t62 48.5q6 -48 6 -100q0 -51 -7.5 -99t-27.5 -88q8 -3 25 -6.5t38.5 -6.5
t46.5 -4.5t49 -1.5q26 0 48.5 2.5t39.5 7.5q6 2 10 8t4 18q0 17 -5 39t-13 46.5t-19 50t-24 49.5q27 35 54 64t51 52q29 -77 40 -149.5t11 -143.5q0 -23 -3.5 -48t-10 -48t-17 -41t-24.5 -26q-10 -5 -22 -10t-31.5 -8.5t-48.5 -5.5t-72 -2q-31 0 -65 3.5t-64 10.5
t-52.5 16.5t-30.5 20.5q-28 -29 -74 -40t-126 -11q-22 0 -49 2.5t-53.5 7.5t-48 14t-31.5 21q-29 -25 -80.5 -35t-132.5 -10h-193q-25 0 -34 15t-9 59q0 31 6 46t12 21q3 3 13 4.5t22 1.5h147z" />
    <glyph glyph-name="uni069C.fina" unicode="&#x69c;" horiz-adv-x="1661" 
d="M1503 716q27 36 54 64t54 52q13 -41 22.5 -79t15.5 -76t9 -77t3 -82q0 -54 -11 -89t-28 -49q-11 -10 -34 -16t-49.5 -9.5t-53.5 -4.5t-46 -1q-38 0 -68 2t-56 7t-51 14t-52 23q-27 -16 -54.5 -25t-57 -13.5t-60 -5.5t-63.5 -1q0 -79 -64 -225q-100 -93 -227.5 -141
t-269.5 -48q-79 0 -142 19t-107 54.5t-67.5 86.5t-23.5 115q0 100 33.5 194.5t98.5 174.5q27 35 41 35q12 0 12 -12q0 -8 -6.5 -25t-20.5 -43q-2 -2 -3.5 -7t-6.5 -13l-18 -37q-25 -51 -38.5 -98.5t-13.5 -82.5q0 -201 299 -201q64 0 125.5 11t117.5 31t104 48t84 63
q0 36 -6.5 82t-20.5 97.5t-36.5 107.5t-55.5 112l49 68t49 64q21 -42 36 -78t27 -70t22 -67l21 -68q75 0 134.5 4.5t91.5 12.5q9 33 9 86q0 15 -1.5 40.5t-3.5 51.5l115 112q5 -33 6 -56.5t1 -42.5q0 -42 -6.5 -92t-27.5 -99q39 -8 77 -13.5t81 -5.5q12 0 27.5 0.5t30 1.5
t27 3t20.5 5t11 11t3 15q0 32 -14.5 77t-46.5 108zM1191 936l-186 110q20 42 39 73t36 54l166 -94l58 94l20 -12l89.5 -54t70.5 -38q-14 -32 -31.5 -65t-40.5 -68l-160 96zM1218 1175l-170 99l10 20q18 32 33.5 56.5t27.5 41.5l35 -18l68.5 -37l62.5 -35q-11 -26 -27.5 -58
t-39.5 -69zM1377 194l186 -110q-20 -42 -39 -73t-36 -54l-166 94l-58 -94l-20 12l-89.5 54t-70.5 38q14 32 31.5 65t40.5 68l160 -96zM1350 -45l170 -99l-10 -20q-18 -32 -33.5 -56.5t-27.5 -41.5l-35 18l-68.5 37l-62.5 35q11 26 27.5 58t39.5 69z" />
    <glyph glyph-name="uni06FA.init" unicode="&#x6fa;" horiz-adv-x="1307" 
d="M730 936l-186 110q20 42 39 73t36 54l166 -94l58 94l20 -12l89.5 -54t70.5 -38q-14 -32 -31.5 -65t-40.5 -68l-160 96zM757 1175l-170 99l10 20q18 32 33.5 56.5t27.5 41.5l35 -18l68.5 -37l62.5 -35q-11 -26 -27.5 -58t-39.5 -69zM906 -138l-191 104q19 38 37 70l35 61
q92 -45 184 -98q-12 -35 -28.5 -69t-36.5 -68zM147 497q47 0 82.5 0.5t62.5 2.5t46.5 7t33.5 14q20 13 34 56.5t21 112.5l69.5 47.5t76.5 47.5q-4 -38 -12.5 -77.5t-20.5 -76.5t-28 -68.5t-34 -53.5q7 -4 21.5 -6.5t33.5 -4t40.5 -2.5t43.5 -1q51 0 90 5t60 17
q11 11 12.5 31t1.5 38t-3 50.5t-8 61.5q30 29 60 54.5t62 48.5q6 -48 6 -100q0 -51 -7.5 -99t-27.5 -88q8 -3 25 -6.5t38.5 -6.5t46.5 -4.5t49 -1.5q26 0 48.5 2.5t39.5 7.5q6 2 10 8t4 18q0 17 -5 39t-13 46.5t-19 50t-24 49.5q27 35 54 64t51 52q29 -77 40 -149.5
t11 -143.5q0 -23 -3.5 -48t-10 -48t-17 -41t-24.5 -26q-10 -5 -22 -10t-31.5 -8.5t-48.5 -5.5t-72 -2q-31 0 -65 3.5t-64 10.5t-52.5 16.5t-30.5 20.5q-28 -29 -74 -40t-126 -11q-22 0 -49 2.5t-53.5 7.5t-48 14t-31.5 21q-29 -25 -80.5 -35t-132.5 -10h-193q-25 0 -34 15
t-9 59q0 31 6 46t12 21q3 3 13 4.5t22 1.5h147z" />
    <glyph glyph-name="uni06FA.medi" unicode="&#x6fa;" horiz-adv-x="1219" 
d="M730 936l-186 110q20 42 39 73t36 54l166 -94l58 94l20 -12l89.5 -54t70.5 -38q-14 -32 -31.5 -65t-40.5 -68l-160 96zM757 1175l-170 99l10 20q18 32 33.5 56.5t27.5 41.5l35 -18l68.5 -37l62.5 -35q-11 -26 -27.5 -58t-39.5 -69zM906 -138l-191 104q19 38 37 70l35 61
q92 -45 184 -98q-12 -35 -28.5 -69t-36.5 -68zM147 497q47 0 82.5 0.5t62.5 2.5t46.5 7t33.5 14q20 13 34 56.5t21 112.5l69.5 47.5t76.5 47.5q-4 -38 -12.5 -77.5t-20.5 -76.5t-28 -68.5t-34 -53.5q7 -4 21.5 -6.5t33.5 -4t40.5 -2.5t43.5 -1q51 0 90 5t60 17
q11 11 12.5 31t1.5 38t-3 50.5t-8 61.5q30 29 60 54.5t62 48.5q6 -48 6 -100q0 -51 -7.5 -99t-27.5 -88q8 -3 25 -6.5t38.5 -6.5t46.5 -4.5t49 -1.5q26 0 48.5 2.5t39.5 7.5q6 2 10 8t4 18q0 17 -5 39t-13 46.5t-19 50t-24 49.5q27 35 54 64t51 52q29 -77 40 -149.5
t11 -143.5q0 -23 -3.5 -48t-10 -48t-17 -41t-24.5 -26q-10 -5 -22 -10t-31.5 -8.5t-48.5 -5.5t-72 -2q-31 0 -65 3.5t-64 10.5t-52.5 16.5t-30.5 20.5q-28 -29 -74 -40t-126 -11q-22 0 -49 2.5t-53.5 7.5t-48 14t-31.5 21q-29 -25 -80.5 -35t-132.5 -10h-193q-25 0 -34 15
t-9 59q0 31 6 46t12 21q3 3 13 4.5t22 1.5h147z" />
    <glyph glyph-name="uni06FA.fina" unicode="&#x6fa;" horiz-adv-x="1661" 
d="M1503 716q27 36 54 64t54 52q13 -41 22.5 -79t15.5 -76t9 -77t3 -82q0 -54 -11 -89t-28 -49q-11 -10 -34 -16t-49.5 -9.5t-53.5 -4.5t-46 -1q-38 0 -68 2t-56 7t-51 14t-52 23q-27 -16 -54.5 -25t-57 -13.5t-60 -5.5t-63.5 -1q0 -79 -64 -225q-100 -93 -227.5 -141
t-269.5 -48q-79 0 -142 19t-107 54.5t-67.5 86.5t-23.5 115q0 100 33.5 194.5t98.5 174.5q27 35 41 35q12 0 12 -12q0 -8 -6.5 -25t-20.5 -43q-2 -2 -3.5 -7t-6.5 -13l-18 -37q-25 -51 -38.5 -98.5t-13.5 -82.5q0 -201 299 -201q64 0 125.5 11t117.5 31t104 48t84 63
q0 36 -6.5 82t-20.5 97.5t-36.5 107.5t-55.5 112l49 68t49 64q21 -42 36 -78t27 -70t22 -67l21 -68q75 0 134.5 4.5t91.5 12.5q9 33 9 86q0 15 -1.5 40.5t-3.5 51.5l115 112q5 -33 6 -56.5t1 -42.5q0 -42 -6.5 -92t-27.5 -99q39 -8 77 -13.5t81 -5.5q12 0 27.5 0.5t30 1.5
t27 3t20.5 5t11 11t3 15q0 32 -14.5 77t-46.5 108zM1191 936l-186 110q20 42 39 73t36 54l166 -94l58 94l20 -12l89.5 -54t70.5 -38q-14 -32 -31.5 -65t-40.5 -68l-160 96zM1218 1175l-170 99l10 20q18 32 33.5 56.5t27.5 41.5l35 -18l68.5 -37l62.5 -35q-11 -26 -27.5 -58
t-39.5 -69zM1376 -138l-191 104q19 38 37 70l35 61q92 -45 184 -98q-12 -35 -28.5 -69t-36.5 -68z" />
    <glyph glyph-name="uni069D.init" unicode="&#x69d;" horiz-adv-x="1650" 
d="M786 491q99 -5 178 -6.5t146 -1.5q182 0 269 5.5t87 33.5q0 10 -11 29.5t-30.5 42.5t-47 47t-60 43.5t-70 32t-76.5 12.5q-31 0 -61 -9t-66 -30t-81.5 -55l-108.5 -84l-68 -54v-6zM479 805q3 -8 5 -20.5t3.5 -26.5t2.5 -28t1 -24q0 -42 -7 -88.5t-26 -105.5
q14 -7 31.5 -9.5t46.5 -2.5q42 0 69.5 5t49 16t43 29l53.5 44l155.5 127t119.5 89.5t98.5 52.5t93.5 17q42 0 100 -23t123 -83q44 -42 68 -79t35.5 -69.5t13.5 -59.5t2 -48q0 -57 -5 -89.5t-15 -49t-24.5 -23t-33.5 -10.5q-7 -2 -23 -3.5t-49 -3t-86 -2.5t-133 -1
q-137 0 -243 0.5t-186 2t-136.5 4t-93.5 5.5q-42 5 -75 16t-56 31q-10 -15 -27 -23.5t-46 -13.5t-72.5 -6.5t-104.5 -1.5h-151q-25 0 -34 15t-9 59q0 39 7 56t36 17h114q205 0 236 25q12 8 15 24.5t3 34.5q0 22 -2.5 46.5t-7.5 46.5l121 131v0zM1045 -43l-55 -96l-180 107
q23 46 40.5 76t35.5 53l157 -93l57 94l100.5 -59.5t81.5 -43.5q-16 -37 -33 -70t-38 -67z" />
    <glyph glyph-name="uni069D.medi" unicode="&#x69d;" horiz-adv-x="1560" 
d="M786 491q99 -5 178 -6.5t146 -1.5q182 0 269 5.5t87 33.5q0 10 -11 29.5t-30.5 42.5t-47 47t-60 43.5t-70 32t-76.5 12.5q-31 0 -61 -9t-66 -30t-81.5 -55l-108.5 -84l-68 -54v-6zM479 805q3 -8 5 -20.5t3.5 -26.5t2.5 -28t1 -24q0 -42 -7 -88.5t-26 -105.5
q14 -7 31.5 -9.5t46.5 -2.5q42 0 69.5 5t49 16t43 29l53.5 44l155.5 127t119.5 89.5t98.5 52.5t93.5 17q42 0 100 -23t123 -83q44 -42 68 -79t35.5 -69.5t13.5 -59.5t2 -48q0 -57 -5 -89.5t-15 -49t-24.5 -23t-33.5 -10.5q-7 -2 -23 -3.5t-49 -3t-86 -2.5t-133 -1
q-137 0 -243 0.5t-186 2t-136.5 4t-93.5 5.5q-42 5 -75 16t-56 31q-10 -15 -27 -23.5t-46 -13.5t-72.5 -6.5t-104.5 -1.5h-151q-25 0 -34 15t-9 59q0 39 7 56t36 17h114q205 0 236 25q12 8 15 24.5t3 34.5q0 22 -2.5 46.5t-7.5 46.5l121 131v0zM1045 -43l-55 -96l-180 107
q23 46 40.5 76t35.5 53l157 -93l57 94l100.5 -59.5t81.5 -43.5q-16 -37 -33 -70t-38 -67z" />
    <glyph glyph-name="uni069D.fina" unicode="&#x69d;" horiz-adv-x="2017" 
d="M1243 491q99 -5 178 -6.5t146 -1.5q182 0 269 5.5t87 33.5q0 10 -11 29.5t-30.5 42.5t-47 47t-60 43.5t-70 32t-76.5 12.5q-31 0 -61 -9t-66 -30t-81.5 -55l-108.5 -84l-68 -54v-6zM856 735q42 -62 69.5 -117.5t40.5 -118.5q6 -1 12 -1h15q42 0 69.5 5t49 16.5t43 30
l53.5 44.5l155.5 127t119.5 89.5t98.5 52.5t93.5 17q42 0 100 -23t123 -83q44 -42 68 -79t35.5 -69.5t13.5 -59.5t2 -48q0 -57 -5 -89.5t-15 -49t-24.5 -23t-33.5 -10.5q-7 -2 -23 -3.5t-49 -3t-86 -2.5t-133 -1q-145 0 -255.5 1t-191.5 3.5t-136.5 5.5t-89.5 6
q-6 -94 -62 -227q-103 -91 -230.5 -140t-264.5 -49q-80 0 -143.5 19t-107.5 54.5t-67.5 86.5t-23.5 115q0 204 129 360q27 35 41 35q12 0 12 -12q0 -8 -6.5 -25t-20.5 -43q-2 -2 -3.5 -7t-6.5 -13l-18 -37q-49 -101 -49 -172q0 -199 299 -199q64 0 125.5 10.5t117 30
t103.5 47.5t84 62q0 85 -33.5 176t-89.5 176q16 23 24 37l33 47q8 9 17.5 21.5zM1502 -43l-55 -96l-180 107q23 46 40.5 76t35.5 53l157 -93l57 94l100.5 -59.5t81.5 -43.5q-16 -37 -33 -70t-38 -67z" />
    <glyph glyph-name="uni069E.init" unicode="&#x69e;" horiz-adv-x="1650" 
d="M786 491q99 -5 178 -6.5t146 -1.5q182 0 269 5.5t87 33.5q0 10 -11 29.5t-30.5 42.5t-47 47t-60 43.5t-70 32t-76.5 12.5q-31 0 -61 -9t-66 -30t-81.5 -55l-108.5 -84l-68 -54v-6zM479 805q3 -8 5 -20.5t3.5 -26.5t2.5 -28t1 -24q0 -42 -7 -88.5t-26 -105.5
q14 -7 31.5 -9.5t46.5 -2.5q42 0 69.5 5t49 16t43 29l53.5 44l155.5 127t119.5 89.5t98.5 52.5t93.5 17q42 0 100 -23t123 -83q44 -42 68 -79t35.5 -69.5t13.5 -59.5t2 -48q0 -57 -5 -89.5t-15 -49t-24.5 -23t-33.5 -10.5q-7 -2 -23 -3.5t-49 -3t-86 -2.5t-133 -1
q-137 0 -243 0.5t-186 2t-136.5 4t-93.5 5.5q-42 5 -75 16t-56 31q-10 -15 -27 -23.5t-46 -13.5t-72.5 -6.5t-104.5 -1.5h-151q-25 0 -34 15t-9 59q0 39 7 56t36 17h114q205 0 236 25q12 8 15 24.5t3 34.5q0 22 -2.5 46.5t-7.5 46.5l121 131v0zM1050 1052l-186 110
q20 42 39 73t36 54l166 -94l58 94l20 -12l89.5 -54t70.5 -38q-14 -32 -31.5 -65t-40.5 -68l-160 96zM1077 1291l-170 99l10 20q18 32 33.5 56.5t27.5 41.5l35 -18l68.5 -37l62.5 -35q-11 -26 -27.5 -58t-39.5 -69z" />
    <glyph glyph-name="uni069E.medi" unicode="&#x69e;" horiz-adv-x="1560" 
d="M786 491q99 -5 178 -6.5t146 -1.5q182 0 269 5.5t87 33.5q0 10 -11 29.5t-30.5 42.5t-47 47t-60 43.5t-70 32t-76.5 12.5q-31 0 -61 -9t-66 -30t-81.5 -55l-108.5 -84l-68 -54v-6zM479 805q3 -8 5 -20.5t3.5 -26.5t2.5 -28t1 -24q0 -42 -7 -88.5t-26 -105.5
q14 -7 31.5 -9.5t46.5 -2.5q42 0 69.5 5t49 16t43 29l53.5 44l155.5 127t119.5 89.5t98.5 52.5t93.5 17q42 0 100 -23t123 -83q44 -42 68 -79t35.5 -69.5t13.5 -59.5t2 -48q0 -57 -5 -89.5t-15 -49t-24.5 -23t-33.5 -10.5q-7 -2 -23 -3.5t-49 -3t-86 -2.5t-133 -1
q-137 0 -243 0.5t-186 2t-136.5 4t-93.5 5.5q-42 5 -75 16t-56 31q-10 -15 -27 -23.5t-46 -13.5t-72.5 -6.5t-104.5 -1.5h-151q-25 0 -34 15t-9 59q0 39 7 56t36 17h114q205 0 236 25q12 8 15 24.5t3 34.5q0 22 -2.5 46.5t-7.5 46.5l121 131v0zM1050 1052l-186 110
q20 42 39 73t36 54l166 -94l58 94l20 -12l89.5 -54t70.5 -38q-14 -32 -31.5 -65t-40.5 -68l-160 96zM1077 1291l-170 99l10 20q18 32 33.5 56.5t27.5 41.5l35 -18l68.5 -37l62.5 -35q-11 -26 -27.5 -58t-39.5 -69z" />
    <glyph glyph-name="uni069E.fina" unicode="&#x69e;" horiz-adv-x="2017" 
d="M1243 491q99 -5 178 -6.5t146 -1.5q182 0 269 5.5t87 33.5q0 10 -11 29.5t-30.5 42.5t-47 47t-60 43.5t-70 32t-76.5 12.5q-31 0 -61 -9t-66 -30t-81.5 -55l-108.5 -84l-68 -54v-6zM856 735q42 -62 69.5 -117.5t40.5 -118.5q6 -1 12 -1h15q42 0 69.5 5t49 16.5t43 30
l53.5 44.5l155.5 127t119.5 89.5t98.5 52.5t93.5 17q42 0 100 -23t123 -83q44 -42 68 -79t35.5 -69.5t13.5 -59.5t2 -48q0 -57 -5 -89.5t-15 -49t-24.5 -23t-33.5 -10.5q-7 -2 -23 -3.5t-49 -3t-86 -2.5t-133 -1q-145 0 -255.5 1t-191.5 3.5t-136.5 5.5t-89.5 6
q-6 -94 -62 -227q-103 -91 -230.5 -140t-264.5 -49q-80 0 -143.5 19t-107.5 54.5t-67.5 86.5t-23.5 115q0 204 129 360q27 35 41 35q12 0 12 -12q0 -8 -6.5 -25t-20.5 -43q-2 -2 -3.5 -7t-6.5 -13l-18 -37q-49 -101 -49 -172q0 -199 299 -199q64 0 125.5 10.5t117 30
t103.5 47.5t84 62q0 85 -33.5 176t-89.5 176q16 23 24 37l33 47q8 9 17.5 21.5zM1507 1052l-186 110q20 42 39 73t36 54l166 -94l58 94l20 -12l89.5 -54t70.5 -38q-14 -32 -31.5 -65t-40.5 -68l-160 96zM1534 1291l-170 99l10 20q18 32 33.5 56.5t27.5 41.5l35 -18l68.5 -37
l62.5 -35q-11 -26 -27.5 -58t-39.5 -69z" />
    <glyph glyph-name="uni06FB.init" unicode="&#x6fb;" horiz-adv-x="1650" 
d="M786 491q99 -5 178 -6.5t146 -1.5q182 0 269 5.5t87 33.5q0 10 -11 29.5t-30.5 42.5t-47 47t-60 43.5t-70 32t-76.5 12.5q-31 0 -61 -9t-66 -30t-81.5 -55l-108.5 -84l-68 -54v-6zM479 805q3 -8 5 -20.5t3.5 -26.5t2.5 -28t1 -24q0 -42 -7 -88.5t-26 -105.5
q14 -7 31.5 -9.5t46.5 -2.5q42 0 69.5 5t49 16t43 29l53.5 44l155.5 127t119.5 89.5t98.5 52.5t93.5 17q42 0 100 -23t123 -83q44 -42 68 -79t35.5 -69.5t13.5 -59.5t2 -48q0 -57 -5 -89.5t-15 -49t-24.5 -23t-33.5 -10.5q-7 -2 -23 -3.5t-49 -3t-86 -2.5t-133 -1
q-137 0 -243 0.5t-186 2t-136.5 4t-93.5 5.5q-42 5 -75 16t-56 31q-10 -15 -27 -23.5t-46 -13.5t-72.5 -6.5t-104.5 -1.5h-151q-25 0 -34 15t-9 59q0 39 7 56t36 17h114q205 0 236 25q12 8 15 24.5t3 34.5q0 22 -2.5 46.5t-7.5 46.5l121 131v0zM1286 1059l-191 104
q19 38 37 70l35 61q92 -45 184 -98q-12 -35 -28.5 -69t-36.5 -68zM1236 -138l-191 104q19 38 37 70l35 61q92 -45 184 -98q-12 -35 -28.5 -69t-36.5 -68z" />
    <glyph glyph-name="uni06FB.medi" unicode="&#x6fb;" horiz-adv-x="1560" 
d="M786 491q99 -5 178 -6.5t146 -1.5q182 0 269 5.5t87 33.5q0 10 -11 29.5t-30.5 42.5t-47 47t-60 43.5t-70 32t-76.5 12.5q-31 0 -61 -9t-66 -30t-81.5 -55l-108.5 -84l-68 -54v-6zM479 805q3 -8 5 -20.5t3.5 -26.5t2.5 -28t1 -24q0 -42 -7 -88.5t-26 -105.5
q14 -7 31.5 -9.5t46.5 -2.5q42 0 69.5 5t49 16t43 29l53.5 44l155.5 127t119.5 89.5t98.5 52.5t93.5 17q42 0 100 -23t123 -83q44 -42 68 -79t35.5 -69.5t13.5 -59.5t2 -48q0 -57 -5 -89.5t-15 -49t-24.5 -23t-33.5 -10.5q-7 -2 -23 -3.5t-49 -3t-86 -2.5t-133 -1
q-137 0 -243 0.5t-186 2t-136.5 4t-93.5 5.5q-42 5 -75 16t-56 31q-10 -15 -27 -23.5t-46 -13.5t-72.5 -6.5t-104.5 -1.5h-151q-25 0 -34 15t-9 59q0 39 7 56t36 17h114q205 0 236 25q12 8 15 24.5t3 34.5q0 22 -2.5 46.5t-7.5 46.5l121 131v0zM1286 1059l-191 104
q19 38 37 70l35 61q92 -45 184 -98q-12 -35 -28.5 -69t-36.5 -68zM1236 -138l-191 104q19 38 37 70l35 61q92 -45 184 -98q-12 -35 -28.5 -69t-36.5 -68z" />
    <glyph glyph-name="uni06FB.fina" unicode="&#x6fb;" horiz-adv-x="2017" 
d="M1243 491q99 -5 178 -6.5t146 -1.5q182 0 269 5.5t87 33.5q0 10 -11 29.5t-30.5 42.5t-47 47t-60 43.5t-70 32t-76.5 12.5q-31 0 -61 -9t-66 -30t-81.5 -55l-108.5 -84l-68 -54v-6zM856 735q42 -62 69.5 -117.5t40.5 -118.5q6 -1 12 -1h15q42 0 69.5 5t49 16.5t43 30
l53.5 44.5l155.5 127t119.5 89.5t98.5 52.5t93.5 17q42 0 100 -23t123 -83q44 -42 68 -79t35.5 -69.5t13.5 -59.5t2 -48q0 -57 -5 -89.5t-15 -49t-24.5 -23t-33.5 -10.5q-7 -2 -23 -3.5t-49 -3t-86 -2.5t-133 -1q-145 0 -255.5 1t-191.5 3.5t-136.5 5.5t-89.5 6
q-6 -94 -62 -227q-103 -91 -230.5 -140t-264.5 -49q-80 0 -143.5 19t-107.5 54.5t-67.5 86.5t-23.5 115q0 204 129 360q27 35 41 35q12 0 12 -12q0 -8 -6.5 -25t-20.5 -43q-2 -2 -3.5 -7t-6.5 -13l-18 -37q-49 -101 -49 -172q0 -199 299 -199q64 0 125.5 10.5t117 30
t103.5 47.5t84 62q0 85 -33.5 176t-89.5 176q16 23 24 37l33 47q8 9 17.5 21.5zM1615 1059l-191 104q19 38 37 70l35 61q92 -45 184 -98q-12 -35 -28.5 -69t-36.5 -68zM1566 -138l-191 104q19 38 37 70l35 61q92 -45 184 -98q-12 -35 -28.5 -69t-36.5 -68z" />
    <glyph glyph-name="uni069F.init" unicode="&#x69f;" horiz-adv-x="1267" 
d="M419 483h287q79 0 149.5 0.5t123.5 3.5t84.5 9t31.5 18q0 5 -13 21.5t-35 37t-51.5 43.5t-61.5 42t-65.5 31.5t-64.5 12.5q-35 0 -70 -12.5t-79.5 -39t-101 -67l-134.5 -96.5v-4zM426 608l84.5 67.5l117.5 88.5l37 24t50.5 29t57.5 24.5t58 10.5q55 0 109.5 -28
t111.5 -76q48 -40 73.5 -70t37 -57.5t13.5 -56t2 -64.5q0 -35 -3 -59.5t-8.5 -41t-13 -27t-16.5 -16.5q-11 -8 -50 -12t-94.5 -5.5t-122 -2t-131.5 -0.5q-39 0 -99 1t-130 2.5t-145.5 3.5t-145.5 3.5t-129.5 2.5t-98.5 1q-25 0 -34 15t-9 59q0 54 12 63q4 3 15 6.5t26 3.5
h73q73 0 120 4.5t74.5 11t41 15t20.5 17.5q9 11 17.5 57.5t8.5 134.5q0 109 -18 260.5t-53 349.5q67 125 110 148h6q11 -6 11 -49q0 -120 80 -160h2l2 -4v-6q-2 -13 -14 -36t-34 -59q-2 -5 -5.5 -9.5t-8.5 -12.5q8 -69 11 -136t3 -132q0 -68 -5.5 -140t-16.5 -143zM778 992
l-186 110q20 42 39 73t36 54l166 -94l58 94l20 -12l89.5 -54t70.5 -38q-14 -32 -31.5 -65t-40.5 -68l-160 96zM805 1231l-170 99l10 20q18 32 33.5 56.5t27.5 41.5l35 -18l68.5 -37l62.5 -35q-11 -26 -27.5 -58t-39.5 -69z" />
    <glyph glyph-name="uni069F.medi" unicode="&#x69f;" horiz-adv-x="1178" 
d="M419 483h287q79 0 149.5 0.5t123.5 3.5t84.5 9t31.5 18q0 5 -13 21.5t-35 37t-51.5 43.5t-61.5 42t-65.5 31.5t-64.5 12.5q-35 0 -70 -12.5t-79.5 -39t-101 -67l-134.5 -96.5v-4zM426 608l84.5 67.5l117.5 88.5l37 24t50.5 29t57.5 24.5t58 10.5q55 0 109.5 -28
t111.5 -76q48 -40 73.5 -70t37 -57.5t13.5 -56t2 -64.5q0 -35 -3 -59.5t-8.5 -41t-13 -27t-16.5 -16.5q-11 -8 -50 -12t-94.5 -5.5t-122 -2t-131.5 -0.5q-39 0 -99 1t-130 2.5t-145.5 3.5t-145.5 3.5t-129.5 2.5t-98.5 1q-25 0 -34 15t-9 59q0 54 12 63q4 3 15 6.5t26 3.5
h73q73 0 120 4.5t74.5 11t41 15t20.5 17.5q9 11 17.5 57.5t8.5 134.5q0 109 -18 260.5t-53 349.5q67 125 110 148h6q11 -6 11 -49q0 -120 80 -160h2l2 -4v-6q-2 -13 -14 -36t-34 -59q-2 -5 -5.5 -9.5t-8.5 -12.5q8 -69 11 -136t3 -132q0 -68 -5.5 -140t-16.5 -143zM778 992
l-186 110q20 42 39 73t36 54l166 -94l58 94l20 -12l89.5 -54t70.5 -38q-14 -32 -31.5 -65t-40.5 -68l-160 96zM805 1231l-170 99l10 20q18 32 33.5 56.5t27.5 41.5l35 -18l68.5 -37l62.5 -35q-11 -26 -27.5 -58t-39.5 -69z" />
    <glyph glyph-name="uni069F.fina" unicode="&#x69f;" horiz-adv-x="1237" 
d="M479 483h287q79 0 149.5 0.5t123.5 3.5t84.5 9t31.5 18q0 5 -13 21.5t-35 37t-51.5 43.5t-61.5 42t-65.5 31.5t-64.5 12.5q-35 0 -70 -12.5t-79.5 -39t-101 -67l-134.5 -96.5v-4zM485 608l84.5 67.5l117.5 88.5l37 24t50.5 29t57.5 24.5t58 10.5q55 0 109.5 -28
t111.5 -76q48 -40 73.5 -70t37 -57.5t13.5 -56t2 -64.5q0 -35 -3 -59.5t-8.5 -41t-13 -27t-16.5 -16.5q-11 -8 -50 -12t-94.5 -5.5t-122 -2t-131.5 -0.5q-33 0 -79.5 0.5t-101.5 1.5t-115.5 2.5l-122 3l-121.5 3t-113 3.5q-22 23 -38 62t-25 85q81 0 135.5 4.5t90 11.5
t54 15.5t27.5 16.5q11 11 18.5 57.5t7.5 134.5q0 109 -18 260.5t-53 349.5q67 125 110 148h6q11 -6 11 -49q0 -120 80 -160h2l2 -4v-6q-2 -13 -14 -36t-34 -59q-2 -5 -5.5 -9.5t-8.5 -12.5q8 -69 11 -136t3 -132q0 -68 -5.5 -140t-16.5 -143zM837 992l-186 110q20 42 39 73
t36 54l166 -94l58 94l20 -12l89.5 -54t70.5 -38q-14 -32 -31.5 -65t-40.5 -68l-160 96zM864 1231l-170 99l10 20q18 32 33.5 56.5t27.5 41.5l35 -18l68.5 -37l62.5 -35q-11 -26 -27.5 -58t-39.5 -69z" />
    <glyph glyph-name="uni06A0.init" unicode="&#x6a0;" horiz-adv-x="932" 
d="M243 500q-27 31 -42.5 53.5t-23 39t-9.5 30t-2 27.5q0 21 9.5 53t27 67.5t43 70.5t57.5 63.5t70.5 46t81.5 17.5q42 0 87 -19t82.5 -50t62 -70.5t24.5 -79.5q0 -12 -13 -12q-8 0 -18.5 5.5l-24.5 13.5q-45 25 -91 41t-95 16q-37 0 -66.5 -8t-50 -20t-31.5 -26.5
t-11 -28.5q0 -29 17 -65t46 -68t67 -53.5t80 -21.5q47 0 134 11t208 36q-11 -42 -21 -76.5t-28 -70.5q-107 -23 -216 -37t-214.5 -21.5t-203 -10.5t-179.5 -3q-34 0 -43.5 15.5t-9.5 58.5q0 44 8.5 58.5t34.5 14.5zM377 1142l-186 110q20 42 39 73t36 54l166 -94l58 94
l20 -12l89.5 -54t70.5 -38q-14 -32 -31.5 -65t-40.5 -68l-160 96zM404 1381l-170 99l10 20q18 32 33.5 56.5t27.5 41.5l35 -18l68.5 -37l62.5 -35q-11 -26 -27.5 -58t-39.5 -69z" />
    <glyph glyph-name="uni06A0.medi" unicode="&#x6a0;" horiz-adv-x="869" 
d="M869 497v-147q-232 3 -295 115q-46 -31 -98 -53t-113 -36.5t-131.5 -21t-152.5 -6.5q-12 0 -24.5 0.5t-24.5 0.5q-11 0 -19 0.5t-11 0.5q-28 0 -38 15.5t-10 57.5q0 44 10 59t38 15h51q58 0 118 2t118 10.5t113.5 25t105.5 46.5q-5 22 -21 41.5t-37 34.5t-45 24t-45 9
q-10 0 -22 -0.5t-26 -5.5q-8 -3 -12.5 -4.5t-7.5 -1.5q-7 0 -7 8q0 10 3.5 24t9.5 30.5t14 34t17 32.5q29 52 70 77t113 25q49 0 94 -14t78.5 -38.5t53.5 -57t20 -68.5q0 -15 -3 -36t-11 -45.5t-22.5 -50.5t-37.5 -52q76 -47 187 -50zM459 1088l-186 110q20 42 39 73t36 54
l166 -94l58 94l20 -12l89.5 -54t70.5 -38q-14 -32 -31.5 -65t-40.5 -68l-160 96zM486 1327l-170 99l10 20q18 32 33.5 56.5t27.5 41.5l35 -18l68.5 -37l62.5 -35q-11 -26 -27.5 -58t-39.5 -69z" />
    <glyph glyph-name="uni06A0.fina" unicode="&#x6a0;" horiz-adv-x="886" 
d="M886 497v-147h-53q-54 0 -100.5 10t-88.5 30t-81 50.5t-78 71.5q-83 -32 -145.5 -78t-104.5 -99t-63 -110.5t-21 -112.5q0 -59 24 -112t72 -93t120.5 -63.5t170.5 -23.5q46 0 92.5 4t90.5 11t84 16.5t75 19.5q4 2 11 2q8 0 8 -10q0 -2 -0.5 -4t-3.5 -5
q-62 -60 -118.5 -98t-108.5 -59.5t-99 -30t-90 -8.5q-108 0 -185.5 32t-127 86.5t-72.5 126t-23 149.5t21.5 158.5t61.5 154.5t96.5 136.5t126.5 104.5q-28 23 -55 35t-58 12q-17 0 -35 -3t-35 -11q-6 -3 -12.5 2.5t-3.5 11.5q21 51 45.5 93t56 71t73 45t97.5 16
q39 0 79.5 -9.5t73.5 -30t54 -51t21 -72.5q0 -35 -18.5 -73.5t-55.5 -66.5q54 -43 113.5 -60.5t119.5 -17.5h49zM377 1082l-186 110q20 42 39 73t36 54l166 -94l58 94l20 -12l89.5 -54t70.5 -38q-14 -32 -31.5 -65t-40.5 -68l-160 96zM404 1321l-170 99l10 20
q18 32 33.5 56.5t27.5 41.5l35 -18l68.5 -37l62.5 -35q-11 -26 -27.5 -58t-39.5 -69z" />
    <glyph glyph-name="uni06FC.init" unicode="&#x6fc;" horiz-adv-x="932" 
d="M243 500q-27 31 -42.5 53.5t-23 39t-9.5 30t-2 27.5q0 21 9.5 53t27 67.5t43 70.5t57.5 63.5t70.5 46t81.5 17.5q42 0 87 -19t82.5 -50t62 -70.5t24.5 -79.5q0 -12 -13 -12q-8 0 -18.5 5.5l-24.5 13.5q-45 25 -91 41t-95 16q-37 0 -66.5 -8t-50 -20t-31.5 -26.5
t-11 -28.5q0 -29 17 -65t46 -68t67 -53.5t80 -21.5q47 0 134 11t208 36q-11 -42 -21 -76.5t-28 -70.5q-107 -23 -216 -37t-214.5 -21.5t-203 -10.5t-179.5 -3q-34 0 -43.5 15.5t-9.5 58.5q0 44 8.5 58.5t34.5 14.5zM494 1163l-191 104q19 38 37 70l35 61q92 -45 184 -98
q-12 -35 -28.5 -69t-36.5 -68zM566 -67l-191 104q19 38 37 70l35 61q92 -45 184 -98q-12 -35 -28.5 -69t-36.5 -68z" />
    <glyph glyph-name="uni06FC.medi" unicode="&#x6fc;" horiz-adv-x="869" 
d="M869 497v-147q-232 3 -295 115q-46 -31 -98 -53t-113 -36.5t-131.5 -21t-152.5 -6.5q-12 0 -24.5 0.5t-24.5 0.5q-11 0 -19 0.5t-11 0.5q-28 0 -38 15.5t-10 57.5q0 44 10 59t38 15h51q58 0 118 2t118 10.5t113.5 25t105.5 46.5q-5 22 -21 41.5t-37 34.5t-45 24t-45 9
q-10 0 -22 -0.5t-26 -5.5q-8 -3 -12.5 -4.5t-7.5 -1.5q-7 0 -7 8q0 10 3.5 24t9.5 30.5t14 34t17 32.5q29 52 70 77t113 25q49 0 94 -14t78.5 -38.5t53.5 -57t20 -68.5q0 -15 -3 -36t-11 -45.5t-22.5 -50.5t-37.5 -52q76 -47 187 -50zM508 1100l-191 104q19 38 37 70l35 61
q92 -45 184 -98q-12 -35 -28.5 -69t-36.5 -68zM566 -67l-191 104q19 38 37 70l35 61q92 -45 184 -98q-12 -35 -28.5 -69t-36.5 -68z" />
    <glyph glyph-name="uni06FC.fina" unicode="&#x6fc;" horiz-adv-x="886" 
d="M886 497v-147h-53q-54 0 -100.5 10t-88.5 30t-81 50.5t-78 71.5q-83 -32 -145.5 -78t-104.5 -99t-63 -110.5t-21 -112.5q0 -59 24 -112t72 -93t120.5 -63.5t170.5 -23.5q46 0 92.5 4t90.5 11t84 16.5t75 19.5q4 2 11 2q8 0 8 -10q0 -2 -0.5 -4t-3.5 -5
q-62 -60 -118.5 -98t-108.5 -59.5t-99 -30t-90 -8.5q-108 0 -185.5 32t-127 86.5t-72.5 126t-23 149.5t21.5 158.5t61.5 154.5t96.5 136.5t126.5 104.5q-28 23 -55 35t-58 12q-17 0 -35 -3t-35 -11q-6 -3 -12.5 2.5t-3.5 11.5q21 51 45.5 93t56 71t73 45t97.5 16
q39 0 79.5 -9.5t73.5 -30t54 -51t21 -72.5q0 -35 -18.5 -73.5t-55.5 -66.5q54 -43 113.5 -60.5t119.5 -17.5h49zM488 1086l-191 104q19 38 37 70l35 61q92 -45 184 -98q-12 -35 -28.5 -69t-36.5 -68zM576 18l-191 104q19 38 37 70l35 61q92 -45 184 -98q-12 -35 -28.5 -69
t-36.5 -68z" />
    <glyph glyph-name="uni06A1.init" unicode="&#x6a1;" horiz-adv-x="766" 
d="M601 609q-9 54 -24 98t-33 75.5t-38.5 48.5t-41.5 17q-36 0 -82 -37q-23 -18 -32.5 -34.5t-9.5 -30.5q0 -9 11.5 -22.5t41 -31t80 -38.5t128.5 -45zM511 497q-66 21 -114.5 41t-80 42.5t-46.5 49t-15 60.5q0 37 21.5 92.5t62.5 112.5q79 114 149 114q80 0 129 -137
q25 -69 38 -156.5t13 -193.5q0 -113 -37 -152q-39 -34 -154 -34q-100 0 -198 2.5t-195 7.5q-35 2 -58.5 3t-35.5 1q-25 0 -34 15t-9 59q0 24 1.5 38t7 22t16 10.5t28.5 2.5q46 0 108.5 -2.5t141.5 -7.5q38 -2 68.5 -3t50.5 -1q54 0 89.5 1.5t52.5 5.5v7z" />
    <glyph glyph-name="uni06A1.medi" unicode="&#x6a1;" horiz-adv-x="756" 
d="M574 560q25 11 35 29t10 34q0 22 -9 60.5t-27 75.5t-44.5 64.5t-60.5 27.5q-19 0 -40.5 -8t-40 -21t-31 -30t-12.5 -35q0 -20 11 -41.5t37 -46t68 -52t104 -57.5zM381 496q-36 16 -58.5 38t-35 45.5t-17.5 46.5t-5 41q0 64 26 126t65 110.5t85 78t87 29.5
q36 0 67.5 -28.5t55.5 -73t37.5 -98.5t13.5 -105q0 -24 -3 -51t-8 -52.5t-11.5 -47t-13.5 -36.5q16 -9 42 -15t48 -7v-147q-18 0 -35 1t-36 4.5t-42 11t-51 21.5q-22 -12 -54 -20t-69 -13t-74.5 -7.5t-70.5 -2.5q-42 0 -90 1t-94 1.5t-85.5 1.5t-64.5 1t-34 15t-9 59
q0 24 1.5 38t7 22t16 10.5t28.5 2.5q28 0 71.5 -1t95 -2.5t107 -2.5t107.5 -1v6v0z" />
    <glyph glyph-name="uni06A1.fina" unicode="&#x6a1;" horiz-adv-x="1464" 
d="M1397 609q-9 54 -24 98t-33 75.5t-38.5 48.5t-41.5 17q-36 0 -82 -37q-23 -18 -32.5 -34.5t-9.5 -30.5q0 -9 11.5 -22.5t41 -31t80 -38.5t128.5 -45zM1305 499q-66 21 -114 41t-79 42t-46 48t-15 60q0 37 21.5 92.5t62.5 112.5q79 114 149 114q80 0 129 -137
q25 -70 38 -157t13 -193q0 -131 -41 -160q-20 -12 -59 -16.5t-51 -5.5q-63 -6 -160 -13q-116 -8 -247 -12.5t-279 -4.5q-144 0 -245.5 13.5t-166 43.5t-94 78t-29.5 116q0 32 6 68.5t19 74.5q27 78 51 90h2q12 0 12 -24q0 -12 -6 -39q-6 -47 -6 -82q0 -50 22 -84t71.5 -54.5
t129 -29.5t195.5 -9q171 0 349 2.5t368 16.5v8v0z" />
    <glyph glyph-name="uni06A2.init" unicode="&#x6a2;" horiz-adv-x="766" 
d="M601 609q-9 54 -24 98t-33 75.5t-38.5 48.5t-41.5 17q-36 0 -82 -37q-23 -18 -32.5 -34.5t-9.5 -30.5q0 -9 11.5 -22.5t41 -31t80 -38.5t128.5 -45zM511 497q-66 21 -114.5 41t-80 42.5t-46.5 49t-15 60.5q0 37 21.5 92.5t62.5 112.5q79 114 149 114q80 0 129 -137
q25 -69 38 -156.5t13 -193.5q0 -113 -37 -152q-39 -34 -154 -34q-100 0 -198 2.5t-195 7.5q-35 2 -58.5 3t-35.5 1q-25 0 -34 15t-9 59q0 24 1.5 38t7 22t16 10.5t28.5 2.5q46 0 108.5 -2.5t141.5 -7.5q38 -2 68.5 -3t50.5 -1q54 0 89.5 1.5t52.5 5.5v7zM550 -137l-191 104
q19 38 37 70l35 61q92 -45 184 -98q-12 -35 -28.5 -69t-36.5 -68z" />
    <glyph glyph-name="uni06A2.medi" unicode="&#x6a2;" horiz-adv-x="756" 
d="M574 560q25 11 35 29t10 34q0 22 -9 60.5t-27 75.5t-44.5 64.5t-60.5 27.5q-19 0 -40.5 -8t-40 -21t-31 -30t-12.5 -35q0 -20 11 -41.5t37 -46t68 -52t104 -57.5zM381 496q-36 16 -58.5 38t-35 45.5t-17.5 46.5t-5 41q0 64 26 126t65 110.5t85 78t87 29.5
q36 0 67.5 -28.5t55.5 -73t37.5 -98.5t13.5 -105q0 -24 -3 -51t-8 -52.5t-11.5 -47t-13.5 -36.5q16 -9 42 -15t48 -7v-147q-18 0 -35 1t-36 4.5t-42 11t-51 21.5q-22 -12 -54 -20t-69 -13t-74.5 -7.5t-70.5 -2.5q-42 0 -90 1t-94 1.5t-85.5 1.5t-64.5 1t-34 15t-9 59
q0 24 1.5 38t7 22t16 10.5t28.5 2.5q28 0 71.5 -1t95 -2.5t107 -2.5t107.5 -1v6v0zM594 -137l-191 104q19 38 37 70l35 61q92 -45 184 -98q-12 -35 -28.5 -69t-36.5 -68z" />
    <glyph glyph-name="uni06A2.fina" unicode="&#x6a2;" horiz-adv-x="1464" 
d="M1397 609q-9 54 -24 98t-33 75.5t-38.5 48.5t-41.5 17q-36 0 -82 -37q-23 -18 -32.5 -34.5t-9.5 -30.5q0 -9 11.5 -22.5t41 -31t80 -38.5t128.5 -45zM1305 499q-66 21 -114 41t-79 42t-46 48t-15 60q0 37 21.5 92.5t62.5 112.5q79 114 149 114q80 0 129 -137
q25 -70 38 -157t13 -193q0 -131 -41 -160q-20 -12 -59 -16.5t-51 -5.5q-63 -6 -160 -13q-116 -8 -247 -12.5t-279 -4.5q-144 0 -245.5 13.5t-166 43.5t-94 78t-29.5 116q0 32 6 68.5t19 74.5q27 78 51 90h2q12 0 12 -24q0 -12 -6 -39q-6 -47 -6 -82q0 -50 22 -84t71.5 -54.5
t129 -29.5t195.5 -9q171 0 349 2.5t368 16.5v8v0zM1346 -137l-191 104q19 38 37 70l35 61q92 -45 184 -98q-12 -35 -28.5 -69t-36.5 -68z" />
    <glyph glyph-name="uni06A3.init" unicode="&#x6a3;" horiz-adv-x="766" 
d="M601 609q-9 54 -24 98t-33 75.5t-38.5 48.5t-41.5 17q-36 0 -82 -37q-23 -18 -32.5 -34.5t-9.5 -30.5q0 -9 11.5 -22.5t41 -31t80 -38.5t128.5 -45zM511 497q-66 21 -114.5 41t-80 42.5t-46.5 49t-15 60.5q0 37 21.5 92.5t62.5 112.5q79 114 149 114q80 0 129 -137
q25 -69 38 -156.5t13 -193.5q0 -113 -37 -152q-39 -34 -154 -34q-100 0 -198 2.5t-195 7.5q-35 2 -58.5 3t-35.5 1q-25 0 -34 15t-9 59q0 24 1.5 38t7 22t16 10.5t28.5 2.5q46 0 108.5 -2.5t141.5 -7.5q38 -2 68.5 -3t50.5 -1q54 0 89.5 1.5t52.5 5.5v7zM366 -137l-191 104
q19 38 37 70l35 61q92 -45 184 -98q-12 -35 -28.5 -69t-36.5 -68zM512 1147l-191 104q19 38 37 70l35 61q92 -45 184 -98q-12 -35 -28.5 -69t-36.5 -68z" />
    </font>
</defs>
</svg>
